<svg xmlns="http://www.w3.org/2000/svg" xmlns:xlink="http://www.w3.org/1999/xlink" width="792.966" height="184" viewBox="0 0 792.96626 184"><path fill="#717295" d="M503.056 78.332l-78.76-57.22-78.759 57.22 30.084 92.59h97.352z"/><g transform="translate(327.371 -5.239)"><defs><path id="a" d="M17.108 25.237h167.916v165.357H17.108z"/></defs><clipPath id="b"><use height="100%" width="100%" xlink:href="#a" overflow="visible"/></clipPath><path clip-path="url(#b)" stroke-miterlimit="10" fill="none" stroke="#003564" stroke-width="1.8" d="M175.685 83.571l-78.76-57.22-78.759 57.22L48.25 176.16h97.352z"/><path clip-path="url(#b)" d="M154.879 189.509l-111.025-26.84L18.167 83.61 74.33 42.819l6.733 1.305s7.309-12.144 18.261-8.492c12.74 4.247 11.146 15.923 11.146 15.923l73.469 17.76-29.06 120.194z" fill="#fff"/><path clip-path="url(#b)" stroke-miterlimit="10" d="M154.879 189.509l-111.025-26.84L18.167 83.61 74.33 42.819l6.733 1.305s7.309-12.144 18.261-8.492c12.74 4.247 11.146 15.923 11.146 15.923l73.469 17.76-29.06 120.194z" fill="none" stroke="#003564" stroke-width="1.8"/></g><path fill="#003564" d="M410.91 158.09l19.446-80.282 63.669 15.361-19.446 80.284z"/><path stroke-miterlimit="10" fill="none" stroke="#003564" stroke-width="1.8" d="M410.91 158.09l19.446-80.282 63.669 15.361-19.446 80.284z"/><g transform="translate(327.371 -5.239)"><defs><path id="c" d="M17.108 25.237h167.916v165.357H17.108z"/></defs><clipPath id="d"><use height="100%" width="100%" xlink:href="#c" overflow="visible"/></clipPath><path clip-path="url(#d)" d="M126.874 123.55c-34.178-8.291-43.313 39.662-43.313 39.662l63.785 15.474c-.001 0 13.702-46.846-20.472-55.136" fill="#717295"/><path clip-path="url(#d)" stroke-miterlimit="10" d="M126.874 123.55c-34.178-8.291-43.313 39.662-43.313 39.662l63.785 15.474c-.001 0 13.702-46.846-20.472-55.136z" fill="none" stroke="#003564" stroke-width="1.8"/><path clip-path="url(#d)" d="M144.652 116.717c-1.933 8.004-10.12 12.892-18.29 10.913-8.166-1.974-13.221-10.064-11.285-18.067 1.934-8.004 10.121-12.89 18.29-10.914 8.166 1.974 13.219 10.064 11.285 18.068" fill="#d8e4eb"/><ellipse transform="rotate(13.597 129.874 113.151)" clip-path="url(#d)" stroke-miterlimit="10" cx="129.864" cy="113.14" rx="15.214" ry="14.908" fill="none" stroke="#003564" stroke-width="1.8"/><path clip-path="url(#d)" stroke-miterlimit="10" d="M65.122 136.488l-31.975-7.803m26.551 14.655l-23.719-5.862m-11.26-57.981l47.409 11.612m-52.135-4.852l45.752 11.297M79.614 75.97l-37.958-9.263m19.385 12.872L33.524 72.82m40.061-14.377L58.304 54.85m18.238 12.546l-27.351-6.67m72.165 9.512l34.84 8.501m-36.671-.848l34.836 8.504" fill="none" stroke="#003564" stroke-width="1.8"/><path clip-path="url(#d)" d="M103.407 50.467c0 4.427-3.525 8.016-7.875 8.016-4.348 0-7.874-3.589-7.874-8.016 0-4.429 3.526-8.017 7.874-8.017 4.35 0 7.875 3.588 7.875 8.017" fill="#717295"/><ellipse clip-path="url(#d)" stroke-miterlimit="10" cx="95.532" cy="50.467" rx="7.875" ry="8.016" fill="none" stroke="#003564" stroke-width="1.8"/></g><g font-size="28.931" font-family="ArialRoundedMTBold" fill="#003564"><path d="M510.416 169.32V152.4q0-1.318.558-1.977.559-.66 1.444-.66.913 0 1.472.66.572.644.572 1.977v16.92q0 1.333-.572 1.992-.559.66-1.472.66-.872 0-1.444-.66-.558-.674-.558-1.992zm13.827-16.949l7.779 12.657v-12.774q0-1.245.49-1.86.504-.63 1.349-.63.872 0 1.376.63.504.615.504 1.86v16.89q0 2.827-2.18 2.827-.545 0-.98-.175-.436-.162-.818-.528-.381-.366-.708-.85-.327-.497-.654-1.01l-7.588-12.51v12.583q0 1.23-.532 1.86-.53.63-1.362.63-.858 0-1.376-.63-.517-.644-.517-1.86v-16.568q0-1.055.218-1.655.258-.66.858-1.07.6-.424 1.294-.424.545 0 .926.19.395.19.681.513.3.322.6.835.313.513.64 1.07zm27.859 1.114h-7.97v5.493h6.662q.927 0 1.376.454.464.44.464 1.186 0 .748-.464 1.187-.463.44-1.376.44h-6.661v7.075q0 1.348-.572 2.007-.559.644-1.444.644-.9 0-1.472-.659-.558-.659-.558-1.992v-16.524q0-.938.259-1.523.258-.601.803-.865.559-.278 1.417-.278h9.536q.968 0 1.43.469.478.454.478 1.2 0 .763-.477 1.231-.463.455-1.43.455zm10.34 8.935h-1.417v6.9q0 1.362-.558 2.007-.559.644-1.458.644-.967 0-1.498-.673-.532-.674-.532-1.978v-16.524q0-1.406.586-2.036.586-.63 1.894-.63h6.58q1.362 0 2.33.132.966.117 1.743.498.94.425 1.662 1.216.722.79 1.09 1.845.381 1.04.381 2.212 0 2.403-1.267 3.838-1.253 1.436-3.814 2.037 1.076.615 2.057 1.816.98 1.201 1.744 2.564.776 1.347 1.199 2.446.435 1.084.435 1.494 0 .425-.258.85-.246.41-.682.644-.435.25-1.008.25-.68 0-1.144-.352-.463-.337-.804-.864-.327-.528-.899-1.553l-1.621-2.9q-.872-1.597-1.567-2.432-.68-.835-1.39-1.143-.708-.308-1.784-.308zm2.316-9.023h-3.733v5.903h3.624q1.458 0 2.452-.264.995-.278 1.512-.922.532-.66.532-1.802 0-.894-.423-1.568-.422-.688-1.171-1.025-.709-.322-2.793-.322zm25.08 15.776l-.953-2.695h-8.12l-.953 2.754q-.559 1.611-.954 2.183-.395.556-1.294.556-.763 0-1.349-.6t-.586-1.363q0-.439.137-.908.136-.469.45-1.304l5.108-13.945q.218-.6.517-1.436.314-.85.654-1.406.355-.557.913-.894.572-.351 1.403-.351.845 0 1.403.351.573.337.913.88.354.541.586 1.171.245.615.613 1.655l5.218 13.858q.613 1.582.613 2.3 0 .747-.586 1.377-.572.615-1.39.615-.477 0-.817-.19-.34-.176-.572-.483-.232-.323-.504-.967-.26-.66-.45-1.158zm-8.01-5.962h5.967l-3.011-8.862-2.956 8.862zm30.515 1.949q0 1.948-.94 3.5-.926 1.554-2.724 2.432-1.798.88-4.264.88-2.956 0-4.877-1.202-1.363-.864-2.22-2.3-.845-1.45-.845-2.812 0-.791.504-1.348.517-.571 1.307-.571.64 0 1.077.44.45.439.763 1.303.381 1.025.817 1.714.45.688 1.253 1.142.804.44 2.112.44 1.798 0 2.915-.894 1.13-.908 1.13-2.256 0-1.069-.612-1.728-.6-.674-1.567-1.026-.953-.351-2.561-.747-2.152-.542-3.61-1.26-1.444-.732-2.302-1.977-.845-1.26-.845-3.12 0-1.773.9-3.15.898-1.377 2.601-2.11 1.703-.746 4.005-.746 1.84 0 3.174.498 1.35.483 2.235 1.303.885.806 1.294 1.7.409.893.409 1.743 0 .776-.518 1.406-.504.616-1.267.616-.695 0-1.063-.367-.354-.38-.776-1.23-.545-1.216-1.308-1.89-.763-.688-2.452-.688-1.567 0-2.534.747-.954.732-.954 1.772 0 .645.327 1.114.327.468.9.805.572.337 1.157.528.586.19 1.935.556 1.69.425 3.051.938 1.376.512 2.33 1.245.967.732 1.498 1.86.545 1.114.545 2.74zm16.375-11.441h-4.414v15.6q0 1.349-.558 2.008-.559.644-1.444.644-.9 0-1.471-.659-.559-.659-.559-1.992v-15.601h-4.414q-1.035 0-1.54-.484-.503-.498-.503-1.303 0-.835.517-1.319.532-.483 1.526-.483h12.86q1.05 0 1.553.498.518.498.518 1.304 0 .805-.518 1.303-.517.484-1.553.484zm9.904 8.701h-1.417v6.9q0 1.362-.558 2.007-.559.644-1.458.644-.967 0-1.498-.673-.532-.674-.532-1.978v-16.524q0-1.406.586-2.036.586-.63 1.894-.63h6.58q1.362 0 2.33.132.967.117 1.743.498.94.425 1.662 1.216.722.79 1.09 1.845.381 1.04.381 2.212 0 2.403-1.267 3.838-1.253 1.436-3.814 2.037 1.076.615 2.057 1.816.98 1.201 1.744 2.564.776 1.347 1.199 2.446.436 1.084.436 1.494 0 .425-.26.85-.245.41-.68.644-.436.25-1.009.25-.68 0-1.144-.352-.463-.337-.804-.864-.327-.528-.899-1.553l-1.62-2.9q-.873-1.597-1.568-2.432-.68-.835-1.39-1.143-.708-.308-1.784-.308zm2.316-9.023h-3.733v5.903h3.624q1.458 0 2.452-.264.995-.278 1.513-.922.53-.66.53-1.802 0-.894-.422-1.568-.422-.688-1.171-1.025-.708-.322-2.793-.322zm11.648 9.331V152.4q0-1.318.545-1.977.558-.66 1.457-.66.94 0 1.485.66.559.66.559 1.977v10.562q0 1.802.368 3.018.381 1.201 1.335 1.875.953.66 2.67.66 2.37 0 3.351-1.348.981-1.363.981-4.117V152.4q0-1.333.545-1.977.545-.66 1.458-.66.912 0 1.47.66.573.644.573 1.977v10.328q0 2.52-.463 4.204-.45 1.685-1.717 2.96-1.09 1.083-2.533 1.581-1.445.498-3.379.498-2.302 0-3.964-.527-1.662-.542-2.711-1.655-1.05-1.128-1.54-2.871-.49-1.758-.49-4.19zm38.158 2.095q0 1.025-.477 2.226-.463 1.187-1.471 2.344-1.008 1.143-2.575 1.86-1.566.718-3.65.718-1.581 0-2.875-.322t-2.357-.996q-1.049-.689-1.935-1.802-.79-1.01-1.348-2.256-.559-1.26-.845-2.68-.272-1.421-.272-3.018 0-2.593.695-4.644.708-2.05 2.016-3.5 1.308-1.466 3.065-2.228 1.757-.761 3.746-.761 2.425 0 4.319 1.04 1.893 1.04 2.901 2.578 1.009 1.523 1.009 2.886 0 .747-.49 1.318-.491.571-1.186.571-.777 0-1.172-.395-.381-.396-.858-1.362-.79-1.597-1.866-2.388-1.063-.791-2.63-.791-2.493 0-3.977 2.036-1.472 2.036-1.472 5.786 0 2.505.654 4.175.654 1.656 1.853 2.476 1.199.82 2.806.82 1.744 0 2.943-.923 1.212-.937 1.825-2.739.26-.85.64-1.377.382-.542 1.227-.542.722 0 1.24.542.517.542.517 1.348zm16.606-11.104h-4.413v15.6q0 1.349-.559 2.008-.558.644-1.444.644-.899 0-1.471-.659-.559-.659-.559-1.992v-15.601h-4.414q-1.035 0-1.539-.484-.504-.498-.504-1.303 0-.835.518-1.319.53-.483 1.525-.483h12.86q1.05 0 1.554.498.517.498.517 1.304 0 .805-.517 1.303-.518.484-1.553.484zm4.496 9.009V152.4q0-1.318.545-1.977.559-.66 1.458-.66.94 0 1.485.66.558.66.558 1.977v10.562q0 1.802.368 3.018.381 1.201 1.335 1.875.954.66 2.67.66 2.37 0 3.351-1.348.981-1.363.981-4.117V152.4q0-1.333.545-1.977.545-.66 1.458-.66.913 0 1.471.66.572.644.572 1.977v10.328q0 2.52-.463 4.204-.45 1.685-1.716 2.96-1.09 1.083-2.534 1.581-1.444.498-3.379.498-2.302 0-3.964-.527-1.662-.542-2.711-1.655-1.049-1.128-1.54-2.871-.49-1.758-.49-4.19zm26.551-.308h-1.416v6.9q0 1.362-.559 2.007-.558.644-1.458.644-.967 0-1.498-.673-.531-.674-.531-1.978v-16.524q0-1.406.585-2.036.586-.63 1.894-.63h6.58q1.362 0 2.33.132.967.117 1.743.498.94.425 1.662 1.216.722.79 1.09 1.845.382 1.04.382 2.212 0 2.403-1.267 3.838-1.254 1.436-3.815 2.037 1.076.615 2.057 1.816.981 1.201 1.744 2.564.776 1.347 1.199 2.446.436 1.084.436 1.494 0 .425-.26.85-.244.41-.68.644-.436.25-1.008.25-.682 0-1.145-.352-.463-.337-.803-.864-.327-.528-.9-1.553l-1.62-2.9q-.873-1.597-1.567-2.432-.682-.835-1.39-1.143-.708-.308-1.785-.308zm2.316-9.023h-3.732v5.903h3.623q1.458 0 2.453-.264.994-.278 1.512-.922.531-.66.531-1.802 0-.894-.422-1.568-.423-.688-1.172-1.025-.708-.322-2.793-.322zm25.462.088h-9.114v5.273h8.392q.926 0 1.376.454.463.44.463 1.172 0 .733-.45 1.201-.45.454-1.39.454h-8.391v6.109h9.427q.954 0 1.43.483.491.47.491 1.26 0 .762-.49 1.245-.477.47-1.43.47h-10.995q-1.321 0-1.907-.63-.572-.63-.572-2.037v-16.143q0-.938.259-1.523.259-.601.804-.865.558-.278 1.416-.278h10.68q.968 0 1.431.469.477.454.477 1.2 0 .763-.477 1.231-.463.455-1.43.455zM537.437 102.123l-.953-2.696h-8.12l-.953 2.754q-.559 1.612-.954 2.183-.395.557-1.294.557-.763 0-1.349-.6-.585-.601-.585-1.363 0-.44.136-.908.136-.47.45-1.304l5.108-13.946q.218-.6.518-1.435.313-.85.654-1.407.354-.556.912-.893.572-.352 1.404-.352.844 0 1.403.352.572.337.912.879.355.542.586 1.172.245.615.613 1.655l5.218 13.858q.613 1.582.613 2.3 0 .747-.586 1.377-.572.615-1.39.615-.476 0-.817-.19-.34-.176-.572-.484-.232-.322-.504-.967-.259-.66-.45-1.157zm-8.01-5.962h5.967l-3.01-8.863-2.957 8.863zm14.359-.484V85.35q0-1.318.545-1.978.558-.659 1.457-.659.94 0 1.485.66.559.659.559 1.977v10.562q0 1.802.368 3.017.381 1.202 1.335 1.875.953.66 2.67.66 2.37 0 3.351-1.348.98-1.362.98-4.116V85.35q0-1.333.546-1.978.545-.659 1.458-.659.912 0 1.47.66.573.644.573 1.977v10.327q0 2.52-.463 4.205-.45 1.684-1.717 2.959-1.09 1.084-2.534 1.582-1.444.498-3.378.498-2.302 0-3.964-.528-1.662-.542-2.711-1.655-1.05-1.128-1.54-2.871-.49-1.758-.49-4.19zm34.112-9.009h-4.414v15.601q0 1.348-.559 2.007-.558.645-1.444.645-.899 0-1.47-.66-.56-.659-.56-1.992v-15.6h-4.413q-1.036 0-1.54-.484-.504-.498-.504-1.304 0-.835.518-1.318.531-.484 1.526-.484h12.86q1.049 0 1.553.498.518.498.518 1.304t-.518 1.304q-.518.483-1.553.483zm8.542-1.318v6.152h8.732V85.35q0-1.318.545-1.978.558-.659 1.457-.659.913 0 1.472.66.572.644.572 1.977v16.92q0 1.332-.572 1.992-.572.659-1.472.659-.912 0-1.457-.66-.545-.673-.545-1.992v-7.222h-8.732v7.222q0 1.333-.573 1.993-.572.659-1.47.659-.914 0-1.459-.66-.545-.673-.545-1.992V85.35q0-1.317.532-1.977.545-.659 1.471-.659.913 0 1.471.66.573.644.573 1.977zm30.284 1.084h-9.114v5.274h8.392q.926 0 1.375.454.464.44.464 1.172t-.45 1.2q-.45.455-1.39.455h-8.391v6.108h9.427q.953 0 1.43.484.49.469.49 1.26 0 .761-.49 1.245-.477.469-1.43.469h-10.994q-1.321 0-1.907-.63-.572-.63-.572-2.037V85.745q0-.937.259-1.523.258-.6.803-.864.559-.279 1.417-.279h10.68q.968 0 1.431.47.477.453.477 1.2 0 .762-.477 1.23-.463.455-1.43.455zm10.748-1.114l7.779 12.657V85.203q0-1.245.49-1.86.504-.63 1.349-.63.872 0 1.376.63.504.615.504 1.86v16.89q0 2.828-2.18 2.828-.545 0-.98-.176-.437-.161-.818-.527-.381-.367-.708-.85-.327-.498-.654-1.01l-7.588-12.51v12.583q0 1.23-.532 1.86-.53.63-1.362.63-.858 0-1.376-.63-.517-.645-.517-1.86V85.863q0-1.055.217-1.656.26-.659.859-1.07.6-.424 1.294-.424.545 0 .926.19.395.191.681.513.3.323.6.835.313.513.64 1.07zm28.895 1.348h-4.414v15.601q0 1.348-.559 2.007-.558.645-1.444.645-.899 0-1.471-.66-.559-.659-.559-1.992v-15.6h-4.414q-1.035 0-1.539-.484-.504-.498-.504-1.304 0-.835.518-1.318.531-.484 1.525-.484h12.86q1.05 0 1.554.498.517.498.517 1.304t-.517 1.304q-.518.483-1.553.483zm4.631 15.602V85.35q0-1.318.559-1.978.559-.659 1.444-.659.913 0 1.471.66.572.644.572 1.977v16.92q0 1.332-.572 1.992-.558.659-1.471.659-.872 0-1.444-.66-.559-.673-.559-1.992zm25.571-4.498q0 1.026-.477 2.227-.463 1.186-1.471 2.344-1.008 1.142-2.575 1.86-1.567.718-3.65.718-1.581 0-2.875-.322-1.295-.323-2.357-.997-1.05-.688-1.935-1.801-.79-1.011-1.348-2.256-.559-1.26-.845-2.681-.272-1.421-.272-3.018 0-2.593.694-4.643.709-2.051 2.017-3.501 1.307-1.465 3.065-2.227 1.757-.762 3.746-.762 2.425 0 4.319 1.04 1.893 1.04 2.901 2.578 1.008 1.524 1.008 2.886 0 .747-.49 1.319-.49.57-1.185.57-.777 0-1.172-.395-.381-.395-.858-1.362-.79-1.597-1.866-2.388-1.063-.79-2.63-.79-2.493 0-3.978 2.035-1.47 2.037-1.47 5.787 0 2.505.653 4.175.654 1.655 1.853 2.475 1.199.82 2.806.82 1.744 0 2.943-.922 1.212-.938 1.825-2.74.259-.85.64-1.377.382-.542 1.227-.542.722 0 1.24.542.517.542.517 1.348zm16.416 4.351l-.954-2.696h-8.12l-.953 2.754q-.558 1.612-.953 2.183-.396.557-1.295.557-.763 0-1.348-.6-.586-.601-.586-1.363 0-.44.136-.908.136-.47.45-1.304L694.47 86.8q.218-.6.518-1.435.313-.85.654-1.407.354-.556.913-.893.572-.352 1.403-.352.844 0 1.403.352.572.337.913.879.354.542.585 1.172.246.615.614 1.655l5.217 13.858q.613 1.582.613 2.3 0 .747-.586 1.377-.572.615-1.39.615-.476 0-.817-.19-.34-.176-.572-.484-.231-.322-.504-.967-.259-.66-.45-1.157zm-8.01-5.962h5.966l-3.01-8.863-2.957 8.863zm25.883-9.493h-4.414v15.601q0 1.348-.558 2.007-.559.645-1.444.645-.9 0-1.472-.66-.558-.659-.558-1.992v-15.6h-4.414q-1.035 0-1.54-.484-.503-.498-.503-1.304 0-.835.517-1.318.531-.484 1.526-.484h12.86q1.05 0 1.553.498.518.498.518 1.304t-.518 1.304q-.518.483-1.553.483zm4.659 15.602V85.35q0-1.318.559-1.978.558-.659 1.444-.659.913 0 1.471.66.572.644.572 1.977v16.92q0 1.332-.572 1.992-.558.659-1.471.659-.872 0-1.444-.66-.559-.673-.559-1.992zm17.343-19.557q3.105 0 5.326 1.362 2.234 1.348 3.378 3.853 1.145 2.49 1.145 5.86 0 2.49-.627 4.526-.627 2.036-1.88 3.53-1.253 1.495-3.079 2.286-1.825.79-4.182.79-2.343 0-4.196-.805-1.853-.82-3.092-2.3-1.24-1.48-1.88-3.56-.627-2.08-.627-4.497 0-2.475.654-4.54.668-2.066 1.92-3.516 1.254-1.45 3.052-2.212 1.799-.777 4.087-.777zm5.748 11.045q0-2.358-.708-4.087-.709-1.728-2.03-2.607-1.308-.894-3.01-.894-1.213 0-2.248.498-1.022.484-1.771 1.421-.736.938-1.172 2.403-.422 1.45-.422 3.266 0 1.831.422 3.311.436 1.48 1.212 2.461.79.967 1.799 1.45 1.021.484 2.234.484 1.553 0 2.847-.835 1.308-.835 2.07-2.579.777-1.743.777-4.292zm12.86-8.438l7.78 12.657V85.203q0-1.245.49-1.86.504-.63 1.348-.63.872 0 1.376.63.504.615.504 1.86v16.89q0 2.828-2.18 2.828-.544 0-.98-.176-.436-.161-.818-.527-.381-.367-.708-.85-.327-.498-.654-1.01l-7.588-12.51v12.583q0 1.23-.531 1.86-.532.63-1.363.63-.858 0-1.376-.63-.517-.645-.517-1.86V85.863q0-1.055.218-1.656.259-.659.858-1.07.6-.424 1.294-.424.545 0 .927.19.395.191.68.513.3.323.6.835.313.513.64 1.07zM529.234 135.648l-.954-2.695h-8.119l-.953 2.754q-.559 1.611-.954 2.182-.395.557-1.294.557-.763 0-1.349-.6-.586-.601-.586-1.363 0-.44.136-.908.137-.469.45-1.304l5.109-13.946q.218-.6.517-1.435.314-.85.654-1.406.354-.557.913-.894.572-.352 1.403-.352.845 0 1.403.352.573.337.913.879.354.542.586 1.172.245.615.613 1.655l5.218 13.858q.613 1.582.613 2.3 0 .747-.586 1.377-.572.615-1.39.615-.477 0-.817-.19-.34-.176-.572-.484-.232-.322-.504-.967-.26-.659-.45-1.157zm-8.01-5.962h5.967l-3.011-8.862-2.956 8.862zm14.358-.483v-10.328q0-1.318.545-1.977.559-.66 1.458-.66.94 0 1.485.66.558.659.558 1.977v10.562q0 1.802.368 3.018.382 1.2 1.335 1.875.954.659 2.67.659 2.37 0 3.352-1.348.98-1.362.98-4.116v-10.65q0-1.333.546-1.977.544-.66 1.457-.66t1.471.66q.573.644.573 1.977v10.328q0 2.52-.464 4.204-.45 1.684-1.716 2.959-1.09 1.084-2.534 1.582-1.444.498-3.378.498-2.303 0-3.965-.527-1.662-.542-2.71-1.656-1.05-1.128-1.54-2.87-.49-1.759-.49-4.19zm34.113-9.009h-4.414v15.6q0 1.348-.559 2.008-.558.644-1.444.644-.9 0-1.471-.66-.559-.658-.559-1.991v-15.601h-4.414q-1.035 0-1.539-.484-.504-.498-.504-1.304 0-.835.518-1.318.53-.483 1.525-.483h12.86q1.05 0 1.554.498.517.498.517 1.303 0 .806-.517 1.304-.518.484-1.553.484zm8.541-1.319v6.153h8.733v-6.153q0-1.318.544-1.977.559-.66 1.458-.66.913 0 1.471.66.573.644.573 1.977v16.92q0 1.333-.573 1.992-.572.66-1.47.66-.914 0-1.459-.66-.544-.674-.544-1.992v-7.222h-8.733v7.222q0 1.333-.572 1.992-.572.66-1.471.66-.913 0-1.458-.66-.545-.674-.545-1.992v-16.92q0-1.318.531-1.977.545-.66 1.472-.66.912 0 1.471.66.572.644.572 1.977zm25.911-2.637q3.106 0 5.327 1.363 2.234 1.347 3.378 3.852 1.145 2.49 1.145 5.86 0 2.49-.627 4.526-.627 2.037-1.88 3.53-1.253 1.495-3.079 2.286-1.825.791-4.182.791-2.343 0-4.196-.806-1.853-.82-3.092-2.3-1.24-1.479-1.88-3.56-.627-2.08-.627-4.496 0-2.476.654-4.541.667-2.066 1.92-3.516 1.254-1.45 3.052-2.212 1.799-.777 4.087-.777zm5.75 11.046q0-2.359-.71-4.087-.708-1.729-2.03-2.608-1.307-.893-3.01-.893-1.212 0-2.248.498-1.021.483-1.77 1.42-.736.938-1.172 2.403-.422 1.45-.422 3.267 0 1.83.422 3.31.436 1.48 1.212 2.461.79.967 1.799 1.45 1.021.484 2.234.484 1.553 0 2.847-.835 1.308-.835 2.07-2.578.777-1.743.777-4.292zm13.023 1.611h-1.417v6.9q0 1.362-.559 2.007-.558.644-1.457.644-.967 0-1.499-.674-.531-.674-.531-1.977V119.27q0-1.407.586-2.036.586-.63 1.893-.63h6.58q1.363 0 2.33.131.967.118 1.744.499.94.424 1.662 1.215.722.791 1.09 1.846.38 1.04.38 2.212 0 2.403-1.266 3.838-1.253 1.436-3.815 2.036 1.077.616 2.058 1.817.98 1.201 1.743 2.563.777 1.348 1.2 2.447.435 1.084.435 1.494 0 .425-.259.85-.245.41-.68.644-.437.25-1.01.25-.68 0-1.143-.352-.464-.337-.804-.865-.327-.527-.9-1.553l-1.62-2.9q-.872-1.597-1.567-2.432-.681-.835-1.39-1.142-.708-.308-1.784-.308zm2.316-9.024h-3.733v5.904h3.624q1.457 0 2.452-.264.994-.278 1.512-.923.531-.659.531-1.802 0-.893-.422-1.567-.422-.688-1.172-1.025-.708-.323-2.792-.323zm12.464 15.924v-16.92q0-1.318.56-1.977.558-.66 1.443-.66.913 0 1.472.66.572.644.572 1.977v16.92q0 1.333-.572 1.992-.559.66-1.472.66-.872 0-1.444-.66-.558-.674-.558-1.992zm23.732-4.161q0 1.949-.94 3.501-.926 1.553-2.724 2.432-1.799.88-4.264.88-2.957 0-4.878-1.202-1.362-.864-2.22-2.3-.845-1.45-.845-2.813 0-.79.504-1.347.518-.572 1.308-.572.64 0 1.076.44.45.44.763 1.304.382 1.025.818 1.714.45.688 1.253 1.142.804.44 2.112.44 1.798 0 2.915-.894 1.13-.908 1.13-2.256 0-1.07-.612-1.728-.6-.674-1.567-1.026-.954-.351-2.561-.747-2.153-.542-3.61-1.26-1.444-.732-2.303-1.977-.844-1.26-.844-3.12 0-1.773.899-3.15t2.602-2.11q1.703-.747 4.005-.747 1.84 0 3.174.498 1.349.484 2.234 1.304.886.806 1.295 1.7.408.893.408 1.743 0 .776-.517 1.406-.504.615-1.267.615-.695 0-1.063-.366-.354-.38-.776-1.23-.545-1.216-1.308-1.89-.763-.689-2.452-.689-1.567 0-2.534.747-.954.733-.954 1.773 0 .644.327 1.113t.9.806q.571.337 1.157.527.586.19 1.935.557 1.689.425 3.051.937 1.376.513 2.33 1.246.967.732 1.498 1.86.545 1.113.545 2.74zm16.184 4.014l-.953-2.695h-8.12l-.953 2.754q-.559 1.611-.954 2.182-.395.557-1.294.557-.763 0-1.349-.6-.586-.601-.586-1.363 0-.44.137-.908.136-.469.45-1.304l5.108-13.946q.218-.6.518-1.435.313-.85.653-1.406.355-.557.913-.894.572-.352 1.403-.352.845 0 1.404.352.572.337.912.879.355.542.586 1.172.245.615.613 1.655l5.218 13.858q.613 1.582.613 2.3 0 .747-.586 1.377-.572.615-1.39.615-.476 0-.817-.19-.34-.176-.572-.484-.232-.322-.504-.967-.259-.659-.45-1.157zm-8.01-5.962h5.967l-3.01-8.862-2.957 8.862zm25.884-9.492h-4.414v15.6q0 1.348-.559 2.008-.558.644-1.444.644-.899 0-1.471-.66-.559-.658-.559-1.991v-15.601h-4.413q-1.036 0-1.54-.484-.504-.498-.504-1.304 0-.835.518-1.318.531-.483 1.526-.483h12.86q1.049 0 1.553.498.517.498.517 1.303 0 .806-.517 1.304-.518.484-1.553.484zm4.659 15.601v-16.92q0-1.318.558-1.977.559-.66 1.444-.66.913 0 1.472.66.572.644.572 1.977v16.92q0 1.333-.572 1.992-.559.66-1.472.66-.871 0-1.444-.66-.558-.674-.558-1.992zm17.342-19.557q3.106 0 5.327 1.363 2.234 1.347 3.378 3.852 1.144 2.49 1.144 5.86 0 2.49-.626 4.526-.627 2.037-1.88 3.53-1.254 1.495-3.079 2.286-1.826.791-4.182.791-2.343 0-4.196-.806-1.853-.82-3.093-2.3-1.24-1.479-1.88-3.56-.626-2.08-.626-4.496 0-2.476.654-4.541.667-2.066 1.92-3.516 1.254-1.45 3.052-2.212 1.798-.777 4.087-.777zm5.749 11.046q0-2.359-.709-4.087-.708-1.729-2.03-2.608-1.307-.893-3.01-.893-1.212 0-2.248.498-1.022.483-1.77 1.42-.736.938-1.172 2.403-.423 1.45-.423 3.267 0 1.83.423 3.31.436 1.48 1.212 2.461.79.967 1.798 1.45 1.022.484 2.234.484 1.553 0 2.848-.835 1.307-.835 2.07-2.578.777-1.743.777-4.292zm12.86-8.438l7.779 12.657v-12.774q0-1.245.49-1.86.504-.63 1.349-.63.872 0 1.376.63.504.615.504 1.86v16.89q0 2.827-2.18 2.827-.545 0-.98-.176-.437-.16-.818-.527-.381-.366-.708-.85-.327-.498-.654-1.01l-7.588-12.51v12.583q0 1.23-.532 1.86-.531.63-1.362.63-.858 0-1.376-.63-.518-.644-.518-1.86v-16.568q0-1.055.218-1.655.26-.66.859-1.07.599-.425 1.294-.425.545 0 .926.19.395.191.681.514.3.322.6.835.313.512.64 1.069z"/></g><path d="M83.37 166.614c7.255 0 11.89-4.281 11.89-12.344 0-7.96-4.735-12.244-11.89-12.244h-5.39v24.588h5.39zM71.53 138.55c0-1.361.705-2.117 2.065-2.117h10.128c11.034 0 18.238 6.55 18.238 17.836 0 11.286-7.204 17.937-18.238 17.937H73.595c-1.36 0-2.065-.705-2.065-2.117v-31.54zm52.8 19.197l-3.174-9.574c-.605-2.015-1.411-5.542-1.411-5.542h-.101s-.806 3.527-1.411 5.542l-3.225 9.574h9.322zm-8.616-19.6c.403-1.159 1.16-1.713 2.368-1.713h3.224c1.21 0 2.016.554 2.368 1.713l11.185 31.641c.504 1.46-.15 2.419-1.713 2.419h-2.317c-1.21 0-2.016-.555-2.368-1.713l-2.519-7.457h-12.546l-2.469 7.407c-.352 1.208-1.158 1.763-2.367 1.763h-2.317c-1.563 0-2.218-.958-1.714-2.419l11.185-31.641zm36.373 15.065c3.477 0 5.644-2.167 5.644-5.694 0-2.267-.856-4.08-2.822-4.886-.856-.405-1.965-.606-3.88-.606h-4.786v11.186h5.844zm-12.293-14.661c0-1.361.705-2.117 2.066-2.117h9.674c3.526 0 5.29.302 6.801.957 3.628 1.512 5.996 4.938 5.996 9.775 0 4.232-2.217 8.263-5.945 9.775v.1s.454.555 1.159 1.865l5.895 10.783c.856 1.46.2 2.519-1.462 2.519h-2.721c-1.159 0-1.913-.454-2.469-1.462l-6.298-11.89h-6.247v11.234c0 1.412-.706 2.117-2.067 2.117h-2.316c-1.361 0-2.067-.705-2.067-2.117v-31.54zm31.536-.001c0-1.36.706-2.116 2.066-2.116h2.318c1.36 0 2.065.756 2.065 2.117v31.54c0 1.41-.704 2.116-2.065 2.116h-2.318c-1.36 0-2.066-.705-2.066-2.117v-31.54zm31.186 19.197l-3.174-9.574c-.604-2.015-1.41-5.542-1.41-5.542h-.1s-.807 3.527-1.412 5.542l-3.224 9.574h9.32zm-8.615-19.6c.403-1.159 1.16-1.713 2.368-1.713h3.224c1.211 0 2.017.554 2.368 1.713l11.185 31.641c.503 1.46-.151 2.419-1.713 2.419h-2.317c-1.209 0-2.015-.555-2.367-1.713l-2.519-7.457h-12.546l-2.47 7.407c-.35 1.208-1.157 1.763-2.366 1.763h-2.319c-1.56 0-2.216-.958-1.711-2.419l11.183-31.641zm24.079.403c0-1.36.706-2.116 2.066-2.116h2.318c1.36 0 2.066.756 2.066 2.117V151.6h16.374v-13.05c0-1.36.706-2.116 2.116-2.116h2.268c1.36 0 2.065.756 2.065 2.117v31.54c0 1.41-.704 2.116-2.065 2.116h-2.268c-1.41 0-2.116-.705-2.116-2.117v-12.898H224.43v12.898c0 1.412-.705 2.117-2.066 2.117h-2.318c-1.36 0-2.065-.705-2.065-2.117v-31.54z" fill="#003564"/><path d="M50.056 91.596c0-6.24 8.034-10.098 13.323-13.303 4.156 2.53 13.848 7.11 13.85 13.676.002 7.29-3.032 19.17-5.445 19.222-2.625.057-6.25-15.06-8.18-15.02-1.93.041-5.521 15.081-7.942 15.077-2.628-.004-5.606-12.86-5.606-19.652" fill="#3d4365"/><path d="M28.534 126.799c-5.935-1.93-7.12-10.763-8.534-16.782 3.691-3.171 11.04-10.974 17.287-8.947 6.932 2.25 17.294 8.806 16.598 11.119-.755 2.513-16.254 1.29-16.811 3.138-.56 1.848 12.635 9.91 11.883 12.213-.816 2.497-13.963 1.356-20.423-.741" fill="#707294"/><path d="M55.363 158.144c-3.67 5.047-12.434 3.445-18.597 2.931-1.876-4.49-7.024-13.892-3.167-19.205 4.283-5.897 13.72-13.725 15.703-12.35 2.157 1.494-3.795 15.857-2.208 16.958 1.583 1.104 13.33-8.955 15.287-7.528 2.122 1.547-3.026 13.699-7.018 19.194" fill="#003564"/><path d="M90.184 101.183c5.936-1.928 12.087 4.52 16.77 8.562-1.123 4.733-2.482 15.366-8.727 17.396-6.932 2.256-19.169 3.042-19.964.763-.866-2.479 12.39-10.6 11.756-12.423-.633-1.822-16.05-.59-16.793-2.893-.808-2.502 10.5-9.305 16.958-11.405" fill="#434e79"/><path d="M287.126 157.747l-3.174-9.574c-.605-2.015-1.411-5.542-1.411-5.542h-.1s-.807 3.527-1.411 5.542l-3.225 9.574h9.32zm-8.615-19.6c.402-1.159 1.159-1.713 2.368-1.713h3.223c1.211 0 2.017.554 2.368 1.713l11.185 31.641c.504 1.46-.15 2.419-1.713 2.419h-2.317c-1.209 0-2.015-.555-2.367-1.713l-2.519-7.457h-12.546l-2.469 7.407c-.351 1.208-1.158 1.763-2.366 1.763h-2.32c-1.56 0-2.215-.958-1.711-2.419l11.184-31.641zm44.363 19.633l-3.174-9.574c-.604-2.015-1.41-5.542-1.41-5.542h-.102s-.805 3.527-1.41 5.542l-3.225 9.574h9.32zm-8.615-19.6c.402-1.158 1.159-1.713 2.368-1.713h3.224c1.21 0 2.016.555 2.367 1.713l11.185 31.642c.504 1.46-.15 2.418-1.713 2.418h-2.316c-1.21 0-2.015-.554-2.368-1.713l-2.518-7.457h-12.546l-2.47 7.407c-.351 1.209-1.158 1.763-2.366 1.763h-2.32c-1.56 0-2.215-.958-1.711-2.418l11.184-31.642zm24.073.457c0-1.361.706-2.117 2.066-2.117h2.318c1.36 0 2.065.756 2.065 2.117v31.54c0 1.41-.704 2.116-2.065 2.116h-2.318c-1.36 0-2.066-.705-2.066-2.116v-31.54z" fill="#003564"/></svg>
