<?xml version="1.0" standalone="no"?>
<!DOCTYPE svg PUBLIC "-//W3C//DTD SVG 1.1//EN" "http://www.w3.org/Graphics/SVG/1.1/DTD/svg11.dtd" >
<svg xmlns="http://www.w3.org/2000/svg">
<metadata>
This is a custom SVG webfont generated by Fontspring.
</metadata>
<defs>
<font id="webfontAhOK7zbK" horiz-adv-x="1267" >
<font-face units-per-em="2048" ascent="1536" descent="-512" />
<missing-glyph horiz-adv-x="512" />
<glyph unicode=" "  horiz-adv-x="512" />
<glyph unicode="&#x09;" horiz-adv-x="512" />
<glyph unicode="&#xa0;" horiz-adv-x="512" />
<glyph unicode="!" horiz-adv-x="552" d="M246 420q-82 0 -86 84l-17 862q0 88 84 88h97q88 0 84 -88l-17 -862q0 -84 -86 -84h-59zM152 86v72q0 86 84 86h81q86 0 86 -86v-72q0 -86 -86 -86h-81q-84 0 -84 86z" />
<glyph unicode="&#x22;" horiz-adv-x="724" d="M516 1024q-86 0 -86 84v287q0 86 86 86h23q84 0 84 -86v-287q0 -84 -84 -84h-23zM186 1024q-84 0 -84 84v287q0 86 84 86h23q86 0 86 -86v-287q0 -84 -86 -84h-23z" />
<glyph unicode="#" horiz-adv-x="1425" d="M254 92l51 291h-149q-94 0 -78 90l4 21q8 76 90 75h166l51 287h-149q-43 0 -63.5 24.5t-14.5 65.5l4 21q12 78 90 77h164l57 332q16 78 94 78h35q45 0 65.5 -24.5t12.5 -67.5l-55 -318h278l60 332q12 78 92 78h37q90 0 78 -92l-58 -318h154q45 0 65.5 -24.5t12.5 -67.5 l-2 -18q-12 -78 -93 -78h-168l-51 -287h152q90 0 78 -90l-4 -20q-12 -76 -93 -76h-163l-54 -305q-12 -78 -92 -78h-37q-45 0 -65.5 24.5t-12.5 67.5l52 291h-281l-51 -305q-16 -78 -94 -78h-37q-90 0 -78 92zM547 569h278l52 287h-281z" />
<glyph unicode="$" horiz-adv-x="1124" d="M129 121q-66 47 -14 119l45 63q47 66 119 19q145 -102 292 -103q90 0 151.5 46t61.5 130q0 68 -71.5 120t-173 94t-202.5 93.5t-173 141.5t-72 213q0 158 106.5 270.5t278.5 140.5v109q0 84 82 84h14q80 0 80 -72v-116q168 -12 297 -103q66 -39 25 -115l-35 -69 q-39 -70 -117 -27q-123 76 -245 76q-94 0 -158 -49t-64 -125q0 -55 51.5 -101.5t128 -76t167 -72.5t167 -89t128 -129t51.5 -192q0 -162 -106.5 -278.5t-289.5 -140.5v-103q0 -86 -80 -86h-14q-82 0 -82 72v117q-194 20 -348 139z" />
<glyph unicode="%" horiz-adv-x="1622" d="M413.5 831q-139.5 0 -236.5 94.5t-97 229.5q0 133 97 228.5t237 95.5q137 0 235.5 -95.5t98.5 -228.5q0 -135 -97.5 -229.5t-237 -94.5zM213 104l995 1299q39 51 105 51h41q55 0 70.5 -30.5t-19.5 -73.5l-995 -1299q-39 -51 -105 -51h-43q-53 0 -67.5 30.5t18.5 73.5z M413.5 1020q57.5 0 97.5 39t40 96q0 55 -40 95t-97.5 40t-96 -40t-38.5 -95q0 -57 38.5 -96t96 -39zM874 297q0 133 97.5 228.5t236.5 95.5q137 0 235.5 -95.5t98.5 -228.5t-97 -227.5t-236.5 -94.5t-237 94.5t-97.5 227.5zM1073 299q0 -57 39 -96t96.5 -39t97.5 39t40 96 q0 55 -40 95t-97.5 40t-96.5 -40t-39 -95z" />
<glyph unicode="&#x26;" horiz-adv-x="1335" d="M80 412q0 121 67.5 222t180.5 140v4q-8 2 -20.5 9.5t-44.5 33t-56.5 57t-44 90t-19.5 128.5q0 184 129 283.5t330 99.5h86q86 0 86 -86v-52q0 -84 -86 -84h-67q-96 0 -153.5 -56t-57.5 -138q0 -78 51 -135.5t170 -57.5h231v105q0 84 86 84h88q86 0 86 -70v-119h103 q86 0 86 -86v-57q0 -86 -86 -86h-103v-172q0 -225 -139 -359.5t-385 -134.5q-231 0 -374.5 124.5t-143.5 312.5zM350 428q0 -90 68.5 -150.5t179.5 -60.5q127 0 195.5 67.5t68.5 198.5v158h-246q-125 0 -195.5 -54.5t-70.5 -158.5z" />
<glyph unicode="'" horiz-adv-x="397" d="M186 1053q-86 0 -86 86v256q0 86 86 86h27q84 0 84 -86v-256q0 -86 -84 -86h-27z" />
<glyph unicode="(" horiz-adv-x="583" d="M301 -143q-213 383 -213 845q0 401 207 758q33 57 102 58h39q49 0 65.5 -28t-5.5 -73q-176 -352 -177 -717q0 -412 183 -794q20 -45 3.5 -73t-65.5 -28h-43q-67 1 -96 52z" />
<glyph unicode=")" horiz-adv-x="583" d="M82 -90q180 385 180 790q0 371 -176 717q-23 45 -8.5 73t63.5 28h43q70 0 103 -58q209 -360 209 -758q0 -457 -211 -839q-31 -57 -101 -58h-41q-49 0 -65 30t4 75z" />
<glyph unicode="*" horiz-adv-x="960" d="M264 711l-43 30q-72 53 -14 117l112 139v4l-169 46q-86 18 -62 102l16 51q29 86 107 51l168 -65l-10 178q-4 43 17.5 66.5t64.5 23.5h57q90 0 80 -88l-10 -180l165 65q86 33 111 -49l16 -51q27 -84 -57 -102l-176 -48v-4l113 -135q59 -66 -13 -121l-43 -30 q-72 -55 -116 22l-97 150h-4l-94 -148q-47 -77 -119 -24z" />
<glyph unicode="+" d="M172 483q-86 0 -86 86v31q0 86 86 86h356v399q0 86 86 86h41q84 0 84 -86v-399h359q84 0 84 -86v-31q0 -86 -84 -86h-359v-397q0 -86 -84 -86h-41q-86 0 -86 86v397h-356z" />
<glyph unicode="," horiz-adv-x="499" d="M43 -147l100 340q20 72 97 71h77q47 0 65.5 -27.5t0.5 -72.5l-141 -342q-27 -66 -99 -66h-26q-47 0 -66.5 26t-7.5 71z" />
<glyph unicode="-" horiz-adv-x="854" d="M205 471q-86 0 -86 86v57q0 84 86 84h444q86 0 86 -84v-57q0 -86 -86 -86h-444z" />
<glyph unicode="." horiz-adv-x="487" d="M113 86v92q0 84 86 84h90q86 0 86 -84v-92q0 -86 -86 -86h-90q-86 0 -86 86z" />
<glyph unicode="/" horiz-adv-x="831" d="M74 10l469 1448q25 70 98 70h45q47 0 66.5 -25.5t5.5 -70.5l-469 -1448q-20 -70 -96 -70h-48q-47 0 -66 25.5t-5 70.5z" />
<glyph unicode="0" horiz-adv-x="1277" d="M639 -25q-143 0 -248.5 57.5t-164 164t-86 237.5t-27.5 295q0 750 526 750q145 0 249.5 -57.5t164 -162t87 -235.5t27.5 -295t-27.5 -295t-87 -237.5t-165 -164t-248.5 -57.5zM639 217q256 0 256 512q0 506 -256 506t-256 -506q0 -512 256 -512z" />
<glyph unicode="1" horiz-adv-x="1007" d="M88 86v57q0 84 84 84h231v807l3 99h-5q-18 -39 -55 -74l-63 -62q-63 -57 -119 4l-39 41q-59 59 2 121l258 248q49 43 107 43h86q84 0 84 -86v-1141h229q86 0 86 -84v-57q0 -86 -86 -86h-719q-84 0 -84 86z" />
<glyph unicode="2" horiz-adv-x="1161" d="M88 86v43q0 106 38 198.5t97.5 159t132 124t145 106.5t132 96t97.5 101.5t38 111.5q0 92 -63.5 147.5t-157.5 55.5q-127 0 -215 -109q-66 -66 -121 -18l-55 43q-68 51 -23 115q166 219 436 219q199 0 336 -116t137 -314q0 -94 -35.5 -177.5t-93 -142.5t-128 -112.5 t-140.5 -98.5t-129 -89t-97 -95t-40 -107h600q86 0 86 -84v-57q0 -86 -86 -86h-799q-41 0 -66.5 22.5t-25.5 63.5z" />
<glyph unicode="3" horiz-adv-x="1146" d="M111 117q-66 49 -17 119l41 63q43 66 117 18q133 -92 262 -92q113 0 187.5 61.5t74.5 155.5q0 111 -88 168.5t-223 57.5h-31q-66 0 -94 59l-8 16q-29 57 18 111l223 264q55 68 105 111v4q-45 -6 -129 -6h-350q-84 0 -84 84v57q0 86 84 86h716q86 0 86 -84v-22 q0 -63 -38 -105l-318 -366q166 -23 281.5 -134.5t115.5 -289.5q0 -197 -139 -337.5t-373 -140.5q-229 1 -419 142z" />
<glyph unicode="4" horiz-adv-x="1243" d="M125 375q-84 0 -84 84v20q0 59 31 105l561 815q35 55 102 55h160q86 0 86 -86v-774h102q86 0 86 -84v-51q0 -84 -69 -84h-119v-289q0 -86 -86 -86h-90q-84 0 -84 86v289h-596zM319 594h402v450l10 152h-4q-33 -78 -72 -133l-336 -465v-4z" />
<glyph unicode="5" horiz-adv-x="1146" d="M129 121q-63 47 -12 117l41 61q43 68 116 16q115 -90 242 -90q111 0 191.5 68.5t80.5 179.5q0 113 -81.5 182.5t-208.5 69.5q-78 0 -168 -37q-66 -23 -115 -4l-18 6q-70 27 -64 103l53 579q6 82 88 82h598q86 0 86 -86v-57q0 -84 -86 -84h-450l-23 -240l-10 -67h4 q68 33 156 32q233 0 372.5 -137t139.5 -340q0 -215 -149.5 -357.5t-374.5 -142.5q-232 1 -408 146z" />
<glyph unicode="6" horiz-adv-x="1226" d="M100 657q0 152 43 296.5t123 263t211 190.5t293 72q125 0 219 -33q80 -25 51 -109l-24 -67q-23 -72 -101 -56q-70 20 -131 21q-164 0 -262 -114.5t-129 -286.5h4q39 49 116 81.5t177 32.5q203 0 327 -135t124 -332q0 -211 -134.5 -358.5t-344.5 -147.5q-236 0 -399 185.5 t-163 496.5zM375 561q0 -119 85 -231.5t202 -112.5q98 0 158.5 69.5t60.5 178.5q0 115 -72 190.5t-207 75.5q-98 0 -162.5 -47t-64.5 -123z" />
<glyph unicode="7" horiz-adv-x="1079" d="M188 100l496 994q45 90 82 133v4q-23 -4 -94 -4h-537q-84 0 -84 84v57q0 86 84 86h830q86 0 86 -84v-45q0 -57 -25 -104l-582 -1160q-33 -61 -102 -61h-92q-49 0 -67 27.5t5 72.5z" />
<glyph unicode="8" horiz-adv-x="1239" d="M98 412q0 76 27 144.5t70 116.5t70.5 73.5t56.5 46.5q-166 117 -166 290q0 162 120.5 279t344.5 117q209 0 343 -107.5t134 -286.5q0 -84 -37 -170t-67.5 -125.5t-59.5 -68.5q201 -119 201 -315q0 -174 -141.5 -302.5t-375.5 -128.5q-231 0 -375.5 127.5t-144.5 309.5z M745 813l13 16l16 26l19 29q12 19 19 36.5t14.5 40t11.5 46t4 48.5q0 92 -59.5 143t-160 51t-154.5 -48t-54 -122q0 -23 5 -43t18 -39l24 -32q10 -14 35 -31l39 -26q14 -9 48.5 -25.5t49.5 -22.5l56 -23zM362 440q0 -104 75 -169.5t184 -65.5q100 0 171.5 58.5t71.5 146.5 q0 29 -8 53t-28.5 45.5t-39 37t-58.5 36t-64 31.5l-80 36q-55 25 -86 37q-37 -33 -56.5 -52.5t-50.5 -77t-31 -116.5z" />
<glyph unicode="9" horiz-adv-x="1226" d="M186 115l25 69q12 41 35.5 51.5t64.5 4.5q82 -23 131 -23q164 0 262.5 114.5t129.5 289.5h-5q-39 -51 -120.5 -84t-176.5 -33q-195 0 -320.5 139t-125.5 338q0 209 133 353.5t344 144.5q238 0 400.5 -185.5t162.5 -496.5q0 -205 -70.5 -387.5t-227 -308.5t-371.5 -126 q-125 0 -219 33q-81 25 -52 107zM625 721q98 0 162.5 48t64.5 124q0 119 -85 230.5t-202 111.5q-98 0 -157.5 -68.5t-59.5 -179.5q0 -115 71 -190.5t206 -75.5z" />
<glyph unicode=":" horiz-adv-x="501" d="M207 784q-84 0 -84 84v90q0 86 84 86h88q86 0 86 -86v-90q0 -84 -86 -84h-88zM123 86v88q0 86 84 86h88q86 0 86 -86v-88q0 -86 -86 -86h-88q-84 0 -84 86z" />
<glyph unicode=";" horiz-adv-x="565" d="M266 780q-84 0 -84 86v92q0 86 84 86h84q86 0 86 -86v-92q0 -86 -86 -86h-84zM76 -150l86 340q18 74 94 74h78q49 0 67.5 -26.5t-0.5 -71.5l-125 -342q-23 -68 -98 -68h-28q-45 0 -64.5 25.5t-9.5 68.5z" />
<glyph unicode="&#x3c;" d="M178 473q-63 27 -63 100v25q0 72 63 100l821 365q45 20 73 2t28 -66v-47q0 -72 -68 -98l-643 -266v-4l643 -267q68 -27 68 -98v-47q0 -49 -28 -66.5t-73 0.5z" />
<glyph unicode="=" d="M219 694q-84 0 -84 86v31q0 84 84 84h830q86 0 86 -84v-31q0 -86 -86 -86h-830zM219 274q-84 0 -84 84v31q0 86 84 86h830q86 0 86 -86v-31q0 -84 -86 -84h-830z" />
<glyph unicode="&#x3e;" d="M170 172v47q0 72 66 98l643 267v4l-643 266q-66 27 -66 98v47q0 47 26.5 65.5t71.5 -1.5l822 -365q66 -31 65 -100v-25q0 -74 -65 -100l-822 -364q-45 -20 -71.5 -2t-26.5 65z" />
<glyph unicode="?" horiz-adv-x="960" d="M350 420q-86 0 -86 84v33q0 72 35 134t85 108l99 89q49 43 84 95.5t35 109.5q0 72 -57.5 121t-141.5 49q-70 0 -151 -41q-82 -43 -123 21l-35 51q-51 72 15 115q141 94 317 94q182 0 315 -105.5t133 -279.5q0 -90 -33.5 -163t-83.5 -123t-101.5 -94t-91.5 -96.5 t-46 -107.5l-4 -35q-14 -59 -82 -59h-82zM264 86v72q0 86 86 86h82q84 0 84 -86v-72q0 -86 -84 -86h-82q-86 0 -86 86z" />
<glyph unicode="@" horiz-adv-x="1658" d="M94 492q0 319 223.5 541t548.5 222q293 0 428.5 -124.5t135.5 -321.5v-512h63q84 0 84 -84v-16q0 -86 -84 -86h-481q-199 0 -320 112.5t-121 268.5q0 154 120 264t321 110h172q-2 80 -89 130.5t-221 50.5q-219 0 -370.5 -166t-151.5 -389q0 -211 129 -365t344 -180 q82 -12 82 -88v-33q0 -43 -22.5 -64.5t-65.5 -17.5q-324 27 -524.5 238t-200.5 510zM829 498q0 -86 55.5 -143.5t143.5 -57.5h156v401h-152q-90 0 -146.5 -58t-56.5 -142z" />
<glyph unicode="A" horiz-adv-x="1298" d="M33 98l454 1286q25 70 97 70h131q76 0 96 -70l455 -1286q7 -21 7 -37q0 -20 -10 -34q-19 -27 -67 -27h-94q-76 0 -96 70l-103 303h-510l-100 -301q-20 -72 -96 -72h-95q-47 0 -66 27q-11 14 -11 34q1 16 8 37zM459 588h379l-129 389l-58 225h-4q-33 -143 -57 -225z" />
<glyph unicode="B" horiz-adv-x="1277" d="M168 86v1282q0 86 84 86h434q201 0 326 -99.5t125 -275.5q0 -102 -47.5 -184t-128.5 -127v-4q113 -33 173 -129t60 -213q0 -207 -142.5 -314.5t-359.5 -107.5h-440q-84 0 -84 86zM430 860h258q84 0 131 52.5t47 134t-47 131t-137 49.5h-252v-367zM430 227h283 q98 0 154.5 58.5t56.5 152.5q0 92 -56.5 150.5t-154.5 58.5h-283v-420z" />
<glyph unicode="C" horiz-adv-x="1441" d="M82 733q0 319 211 532.5t538 213.5q270 0 476 -146q35 -27 35 -62q0 -26 -19 -57l-37 -59q-24 -40 -60 -40q-25 0 -57 20q-158 102 -327 102q-229 0 -358.5 -144.5t-129.5 -355.5q0 -215 132 -367.5t358 -152.5q182 0 356 127q32 23 59 24q34 0 60 -38l41 -56 q22 -29 22 -55q0 -33 -34 -63q-225 -180 -514 -181q-338 0 -545 215t-207 543z" />
<glyph unicode="D" horiz-adv-x="1490" d="M168 86v1282q0 86 84 86h412q340 0 540.5 -192.5t200.5 -532.5t-200.5 -534.5t-540.5 -194.5h-412q-84 0 -84 86zM430 227h219q225 0 354.5 130t129.5 372q0 238 -130.5 368t-353.5 130h-219v-1000z" />
<glyph unicode="E" horiz-adv-x="1140" d="M168 86v1282q0 86 84 86h700q86 0 86 -86v-57q0 -84 -86 -84h-522v-381h406q86 0 86 -84v-57q0 -86 -86 -87h-406v-391h555q86 0 86 -84v-57q0 -86 -86 -86h-733q-84 0 -84 86z" />
<glyph unicode="F" horiz-adv-x="1048" d="M168 86v1282q0 86 84 86h666q86 0 86 -86v-57q0 -84 -86 -84h-488v-412h397q86 0 86 -84v-57q0 -86 -86 -86h-397v-502q0 -86 -84 -86h-94q-84 0 -84 86z" />
<glyph unicode="G" horiz-adv-x="1544" d="M82 721q0 326 213 542t539 216q158 0 282.5 -43t192.5 -90q37 -29 37 -65q0 -25 -19 -54l-37 -58q-26 -40 -64 -39q-25 0 -55 17q-156 90 -323 90q-229 0 -361.5 -144.5t-132.5 -359.5q0 -225 140.5 -370.5t345.5 -145.5q211 0 350 139l18 21v162h-139q-86 0 -86 86v55 q0 86 86 86h291q84 0 84 -86v-594q0 -86 -84 -86h-51q-84 0 -84 70v34l2 35h-4l-18 -17q-11 -11 -51 -40t-86 -50.5t-120 -39t-151 -17.5q-297 0 -506 210t-209 536z" />
<glyph unicode="H" horiz-adv-x="1525" d="M168 86v1282q0 86 84 86h94q84 0 84 -86v-530h666v530q0 86 86 86h92q84 0 84 -86v-1282q0 -86 -84 -86h-92q-86 0 -86 86v524h-666v-524q0 -86 -84 -86h-94q-84 0 -84 86z" />
<glyph unicode="I" horiz-adv-x="598" d="M168 86v1282q0 86 84 86h94q84 0 84 -86v-1282q0 -86 -84 -86h-94q-84 0 -84 86z" />
<glyph unicode="J" horiz-adv-x="1095" d="M39 430q0 84 84 84h96q41 0 59.5 -18.5t22.5 -63.5q6 -96 53 -155.5t138 -59.5q82 0 135 53.5t53 163.5v793h-289q-86 0 -86 84v57q0 86 86 86h467q86 0 86 -86v-938q0 -223 -134 -339t-318.5 -116t-318.5 118t-134 337z" />
<glyph unicode="K" horiz-adv-x="1286" d="M168 86v1282q0 86 84 86h94q84 0 84 -86v-506h191l307 533q33 59 100 59h100q51 0 68 -30q7 -12 7 -26q0 -21 -15 -46l-352 -590v-4l378 -656q16 -27 17 -48q0 -14 -7 -25q-17 -29 -69 -29h-113q-68 0 -100 59l-321 576h-191v-549q0 -86 -84 -86h-94q-84 0 -84 86z" />
<glyph unicode="L" horiz-adv-x="1067" d="M168 86v1282q0 86 84 86h94q84 0 84 -86v-1141h543q86 0 86 -84v-57q0 -86 -86 -86h-721q-84 0 -84 86z" />
<glyph unicode="M" horiz-adv-x="1746" d="M121 88l104 1284q10 82 88 82h129q72 0 97 -70l260 -649l73 -213h5q39 127 71 213l260 649q25 70 99 70h127q82 0 88 -82l104 -1284q0 -6 1 -11q0 -77 -83 -77h-92q-82 0 -88 82l-55 731q-4 58 -4 127q0 46 2 98h-4q-45 -141 -78 -225l-211 -496q-25 -68 -96 -67h-87 q-74 0 -98 67l-209 496l-80 227h-4q2 -52 2 -99q0 -70 -4 -128l-55 -731q-6 -82 -88 -82h-92q-82 0 -83 77q1 5 1 11z" />
<glyph unicode="N" horiz-adv-x="1521" d="M168 86v1282q0 86 84 86h110q72 0 103 -57l516 -783q25 -39 54 -95l48 -93l19 -37h4q-14 139 -14 225v754q0 86 86 86h92q86 0 86 -86v-1282q0 -86 -86 -86h-111q-70 0 -100 57l-518 781q-25 39 -55 95l-48 93l-18 37h-4q14 -139 14 -225v-752q0 -86 -84 -86h-94 q-84 0 -84 86z" />
<glyph unicode="O" horiz-adv-x="1667" d="M82 737q0 315 212 528.5t539.5 213.5t539.5 -213t212 -529q0 -324 -212 -543t-539.5 -219t-539.5 219t-212 543zM354 737q0 -223 136.5 -371.5t343 -148.5t343 148.5t136.5 371.5q0 213 -136.5 356.5t-343 143.5t-343 -143.5t-136.5 -356.5z" />
<glyph unicode="P" horiz-adv-x="1236" d="M168 86v1282q0 86 84 86h475q205 0 334 -131t129 -342t-129 -345t-334 -134h-297v-416q0 -86 -84 -86h-94q-84 0 -84 86zM430 731h248q115 0 179.5 67.5t64.5 182.5q0 113 -63.5 179.5t-176.5 66.5h-252v-496z" />
<glyph unicode="Q" horiz-adv-x="1667" d="M82 735q0 315 213 529.5t539 214.5q328 0 539.5 -213t211.5 -531q0 -254 -160 -461l99 -92q35 -29 35 -62q0 -28 -27 -59l-37 -38q-32 -33 -62 -33q-26 0 -51 24l-104 105q-190 -143 -444 -144q-326 0 -539 219t-213 541zM354 735q0 -221 137.5 -369.5t342.5 -148.5 q147 0 253 78l-100 96q-33 29 -33 61q0 28 27 58l37 39q31 36 61 35q26 0 51 -25l103 -104q80 125 80 280q0 215 -137.5 358.5t-342 143.5t-342 -143.5t-137.5 -358.5z" />
<glyph unicode="R" horiz-adv-x="1282" d="M168 86v1282q0 86 84 86h393q186 0 277 -39q113 -47 178 -150.5t65 -246.5q0 -131 -65.5 -241.5t-175.5 -155.5v-5q18 -23 47 -75l239 -439q16 -27 16 -48q0 -14 -6 -25q-17 -29 -69 -29h-111q-68 0 -100 59l-256 484h-254v-457q0 -86 -84 -86h-94q-84 0 -84 86zM430 772 h238q106 0 167.5 62.5t61.5 169.5q0 152 -115 198q-53 25 -157 25h-195v-455z" />
<glyph unicode="S" horiz-adv-x="1124" d="M117 123q-34 30 -34 63q0 27 21 56l46 65q25 35 62 35q25 0 56 -16q154 -106 295 -107q100 0 158.5 46t58.5 120q0 55 -37.5 99t-97 76t-131.5 62.5t-144.5 67.5t-132 83t-97.5 119t-38 165q0 188 139.5 305t350.5 117q117 0 217 -35t158 -76q41 -30 41 -68 q0 -23 -15 -49l-37 -67q-23 -45 -62 -45q-24 0 -54 16q-137 80 -252 80q-100 0 -160.5 -45t-60.5 -119t69.5 -127t169 -93t199.5 -88t169.5 -138t69.5 -219q0 -184 -130 -307.5t-351 -123.5q-137 0 -255.5 46.5t-190.5 101.5z" />
<glyph unicode="T" horiz-adv-x="1239" d="M489 86v1141h-391q-86 0 -86 84v57q0 86 86 86h1045q84 0 84 -86v-57q0 -84 -84 -84h-391v-1141q0 -86 -86 -86h-93q-84 0 -84 86z" />
<glyph unicode="U" horiz-adv-x="1472" d="M152 522v846q0 86 84 86h92q86 0 86 -86v-844q0 -145 87 -226t234.5 -81t235.5 81t88 226v844q0 86 84 86h94q84 0 84 -86v-846q0 -244 -161 -395.5t-423 -151.5q-264 0 -424.5 150.5t-160.5 396.5z" />
<glyph unicode="V" horiz-adv-x="1306" d="M492 68l-467 1288q-7 21 -8 37q0 20 11 34q19 27 66 27h109q76 0 96 -72l297 -876l55 -213h4q27 129 56 213l301 876q18 72 94 72h104q47 0 67 -27q11 -14 10 -34q0 -17 -7 -37l-465 -1288q-23 -68 -96 -68h-131q-73 0 -96 68z" />
<glyph unicode="W" horiz-adv-x="1966" d="M393 74l-321 1286q-4 15 -4 27q0 24 13 41q19 26 64 26h103q74 0 92 -76l211 -929l22 -154h5q8 70 30 154l242 931q23 74 96 74h70q78 0 92 -74l240 -931l30 -154h4q6 72 25 154l223 929q14 76 94 76h97q45 0 65 -26q14 -17 14 -41q0 -12 -4 -27l-333 -1288 q-20 -72 -97 -72h-145q-76 0 -94 74l-207 786q-25 94 -39 191h-6q-14 -96 -37 -191l-209 -786q-18 -74 -94 -74h-148q-76 0 -94 74z" />
<glyph unicode="X" horiz-adv-x="1245" d="M74 102l389 635l-373 615q-16 27 -16 48q0 13 6 24q16 30 67 30h115q68 0 100 -59l168 -297l91 -178h4q43 92 90 178l170 297q33 59 100 59h115q51 0 67 -30q6 -11 7 -24q0 -22 -17 -48l-375 -615l389 -635q17 -29 17 -50q0 -13 -5 -23q-15 -29 -69 -29h-106 q-68 0 -101 59l-194 332l-90 172h-5q-41 -88 -88 -172l-192 -332q-33 -59 -100 -59h-105q-53 0 -70 29q-6 11 -6 24q1 21 17 49z" />
<glyph unicode="Y" horiz-adv-x="1187" d="M463 86v522l-426 744q-16 26 -16 47q0 14 7 25q17 30 66 30h115q68 0 98 -63l197 -365l88 -195h4q43 104 88 195l197 365q31 63 98 63h115q51 0 67 -30q7 -12 7 -26q0 -21 -15 -46l-428 -744v-522q0 -86 -84 -86h-92q-86 0 -86 86z" />
<glyph unicode="Z" horiz-adv-x="1230" d="M63 86v25q0 59 35 108l611 877q25 37 51 69.5t41 46.5l14 15v4q-41 -4 -108 -4h-525q-86 0 -86 84v57q0 86 86 86h881q84 0 84 -84v-24q0 -61 -33 -109l-612 -879q-25 -37 -51.5 -69.5t-40.5 -46.5l-15 -15v-4q41 4 109 4h567q86 0 86 -84v-57q0 -86 -86 -86h-921 q-87 0 -87 86z" />
<glyph unicode="[" horiz-adv-x="620" d="M147 -109v1543q0 84 86 84h234q86 0 86 -84v-19q0 -86 -80 -86h-102v-1335h96q86 0 86 -86v-17q0 -86 -86 -86h-234q-86 0 -86 86z" />
<glyph unicode="\" horiz-adv-x="831" d="M541 -16l-467 1448q-14 45 5 70.5t66 25.5h45q74 0 99 -70l467 -1448q14 -45 -4.5 -70.5t-65.5 -25.5h-47q-73 0 -98 70z" />
<glyph unicode="]" horiz-adv-x="620" d="M70 -92q0 86 84 86h98v1335h-98q-84 0 -84 86v19q0 84 84 84h235q84 0 84 -84v-1543q0 -86 -84 -86h-235q-84 0 -84 86v17z" />
<glyph unicode="^" d="M242 502q-49 0 -67.5 27.5t-0.5 70.5l342 789q27 66 98 65h23q74 0 100 -65l340 -789q18 -43 1 -70.5t-66 -27.5h-45q-72 0 -99 67l-241 611l-244 -611q-23 -68 -98 -67h-43z" />
<glyph unicode="_" horiz-adv-x="1155" d="M2 -86q0 86 86 86h979q84 0 84 -86v-31q0 -84 -84 -84h-979q-86 0 -86 84v31z" />
<glyph unicode="`" horiz-adv-x="1009" d="M571 1550q-61 0 -104 52l-92 124q-35 41 -22.5 72t65.5 31h76q66 0 100 -60l72 -124q23 -35 12.5 -65t-53.5 -30h-54z" />
<glyph unicode="a" horiz-adv-x="1075" d="M49 289q0 109 60.5 183.5t160 109t193.5 49t196 14.5h43v25q0 184 -194 184q-106 0 -217 -59q-27 -12 -48 -12q-43 0 -67 46l-20 39q-14 27 -14 49q0 41 46 66q168 86 342 86q203 0 318 -109.5t115 -306.5v-567q0 -86 -86 -86h-70q-84 0 -84 86v41l4 45h-4 q-4 -8 -12.5 -21.5t-37 -47t-63.5 -59.5t-93 -47.5t-122 -21.5q-145 0 -245.5 87.5t-100.5 226.5zM307 311q0 -55 42 -96t116 -41q104 0 172 86t68 189v38h-43q-355 0 -355 -176z" />
<glyph unicode="b" horiz-adv-x="1234" d="M129 86v1282q0 86 86 86h88q86 0 86 -86v-379l-6 -88h4l11 18q7 11 36 40.5t61.5 51t90 40t121.5 18.5q207 0 333.5 -151.5t126.5 -393.5q0 -246 -135 -397.5t-342 -151.5q-66 0 -123 18.5t-92 44t-59.5 51.5t-34.5 44l-10 19h-4q4 -16 4 -46v-32q0 -74 -86 -74h-70 q-86 0 -86 86zM381 522q0 -135 68.5 -231t189.5 -96q113 0 188.5 87t75.5 236q0 147 -71.5 237.5t-186.5 90.5q-111 0 -187.5 -83t-76.5 -241z" />
<glyph unicode="c" horiz-adv-x="1085" d="M63 522q0 229 157 388t411 159q193 0 342 -104q36 -25 36 -60q0 -26 -20 -57l-26 -41q-24 -37 -62 -37q-24 0 -53 14q-94 63 -203 64q-141 0 -229 -93t-88 -230.5t90 -232.5t235 -95q121 0 234 79q30 16 54 17q39 0 63 -43l20 -39q15 -28 15 -51q0 -37 -38 -64 q-164 -121 -370 -121q-254 0 -411 157t-157 390z" />
<glyph unicode="d" horiz-adv-x="1234" d="M68 522q0 246 132 396.5t341 150.5q63 0 118.5 -15.5t88 -37t56 -44t32.5 -38.5l10 -14h4q-4 27 -4 59v389q0 86 84 86h90q84 0 84 -86v-1282q0 -86 -84 -86h-76q-84 0 -84 78v41l4 37h-4q-4 -8 -11 -19.5t-35 -43.5t-62.5 -55.5t-93 -43t-126.5 -19.5 q-211 0 -337.5 151.5t-126.5 395.5zM330 522q0 -147 71.5 -237t188.5 -90q111 0 186.5 82.5t75.5 246.5q0 131 -67.5 226.5t-192.5 95.5q-111 0 -186.5 -87t-75.5 -237z" />
<glyph unicode="e" horiz-adv-x="1118" d="M66 522q0 242 147 394.5t383 152.5q217 0 340 -138t123 -360q0 -35 -26.5 -61.5t-63.5 -26.5h-637q12 -135 100 -210.5t213 -75.5q117 0 225 67q28 13 51 13q40 0 64 -41l25 -41q14 -27 14 -50q0 -39 -43 -65q-164 -104 -354 -105q-252 0 -406.5 159t-154.5 388zM338 641 h463q-2 106 -61.5 168.5t-149.5 62.5q-98 0 -166 -62.5t-86 -168.5z" />
<glyph unicode="f" horiz-adv-x="692" d="M184 86v737h-51q-84 0 -84 86v35q0 86 84 86h51v49q0 94 32 167t78 112t104.5 64.5t102.5 32.5t83 7h30q84 0 84 -86v-53q0 -78 -88 -84q-31 -2 -53 -7t-52 -21.5t-45.5 -52.5t-15.5 -89v-39h140q84 0 84 -86v-35q0 -86 -84 -86h-140v-737q0 -86 -86 -86h-90 q-84 0 -84 86z" />
<glyph unicode="g" horiz-adv-x="1218" d="M215 -217q24 53 73 53q17 0 36 -6q104 -39 211 -39q131 0 212.5 61.5t81.5 192.5v78l5 53h-5q-90 -156 -286 -156q-221 0 -347 152t-126 379q0 225 122.5 371.5t348.5 146.5q68 0 125 -16.5t89.5 -40t55.5 -47t31 -39.5l8 -17h4q-2 10 -2 27v39q0 31 21.5 50t62.5 19h70 q84 0 84 -86v-895q0 -248 -161 -370.5t-380 -122.5q-176 0 -305 55q-55 23 -55 69q0 19 10 42zM594 240q104 0 173 71.5t69 233.5q0 303 -254 303q-119 0 -184.5 -78t-65.5 -209q0 -145 69.5 -233t192.5 -88z" />
<glyph unicode="h" horiz-adv-x="1226" d="M129 86v1282q0 86 86 86h88q86 0 86 -86v-422l-6 -88h4q43 84 140.5 147.5t222.5 63.5q365 0 364 -397v-586q0 -86 -86 -86h-88q-86 0 -86 86v532q0 104 -36 158.5t-128 54.5q-135 0 -218 -97t-83 -249v-399q0 -86 -86 -86h-88q-86 0 -86 86z" />
<glyph unicode="i" horiz-adv-x="516" d="M213 1223q-84 0 -84 84v61q0 86 84 86h90q86 0 86 -86v-61q0 -84 -86 -84h-90zM129 86v872q0 86 84 86h90q84 0 84 -86v-872q0 -86 -84 -86h-90q-84 0 -84 86z" />
<glyph unicode="j" horiz-adv-x="518" d="M215 1223q-86 0 -86 84v61q0 86 86 86h90q84 0 84 -86v-61q0 -84 -84 -84h-90zM129 -10v968q0 86 86 86h88q86 0 86 -86v-985q0 -96 -32.5 -170.5t-78 -115.5t-104.5 -68t-103 -35t-81 -8h-31q-84 0 -84 86v53q0 45 22.5 61.5t61.5 22.5q33 4 57.5 11.5t53 27t44 57.5 t15.5 95z" />
<glyph unicode="k" horiz-adv-x="1091" d="M129 86v1282q0 86 86 86h88q86 0 86 -86v-692h129l217 311q35 57 103 57h98q51 0 66 -30q5 -11 6 -23q0 -22 -19 -49l-260 -364v-5l307 -471q16 -28 17 -49q0 -13 -6 -24q-16 -29 -68 -29h-111q-68 0 -100 59l-244 398h-135v-371q0 -86 -86 -86h-88q-86 0 -86 86z" />
<glyph unicode="l" horiz-adv-x="571" d="M127 326v1042q0 86 84 86h90q84 0 84 -86v-1022q0 -117 82 -125q63 -6 63 -74v-69q0 -88 -86 -88q-61 0 -109 11t-99.5 43t-80 104t-28.5 178z" />
<glyph unicode="m" horiz-adv-x="1839" d="M129 86v872q0 86 84 86h80q84 0 84 -86v-63l-4 -47h4q43 88 136 154.5t206 66.5q240 0 305 -215h4q45 88 142.5 151.5t213.5 63.5q342 0 342 -397v-586q0 -86 -86 -86h-88q-86 0 -86 86v537q0 102 -29.5 155t-113.5 53q-125 0 -195.5 -107.5t-70.5 -254.5v-383 q0 -86 -84 -86h-90q-86 0 -86 86v537q0 100 -28 154t-112 54q-129 0 -199.5 -108.5t-70.5 -253.5v-383q0 -86 -84 -86h-90q-84 0 -84 86z" />
<glyph unicode="n" horiz-adv-x="1226" d="M129 86v872q0 86 84 86h80q84 0 84 -86v-63l-4 -47h4q43 86 136 153.5t235 67.5q365 0 364 -397v-586q0 -86 -86 -86h-88q-86 0 -86 86v532q0 104 -36 158.5t-128 54.5q-135 0 -218 -98t-83 -244v-403q0 -86 -84 -86h-90q-84 0 -84 86z" />
<glyph unicode="o" horiz-adv-x="1273" d="M63 522.5q0 237.5 166 392t408 154.5t408.5 -155.5t166.5 -391.5q0 -238 -166.5 -392.5t-408.5 -154.5t-408 155t-166 392.5zM328 522q0 -143 89 -234t220 -91t221 91t90 234q0 141 -91 233.5t-220 92.5t-219 -92.5t-90 -233.5z" />
<glyph unicode="p" horiz-adv-x="1234" d="M129 -324v1282q0 86 86 86h66q41 0 62.5 -19t21.5 -52v-47l-3 -41h5q4 8 11 20.5t36.5 44t64.5 56t95.5 44t127.5 19.5q211 0 338 -151.5t127 -395.5q0 -246 -135 -396.5t-344 -150.5q-184 0 -287 138l-14 22h-4q6 -37 6 -90v-369q0 -86 -86 -86h-88q-86 0 -86 86z M381 516q0 -131 69.5 -226t190.5 -95q113 0 187.5 87t74.5 236q0 147 -71.5 237.5t-186.5 90.5q-111 0 -187.5 -83t-76.5 -247z" />
<glyph unicode="q" horiz-adv-x="1234" d="M68 522q0 246 133 396.5t344 150.5q68 0 125 -17.5t92 -43t59.5 -51t34.5 -44.5l10 -16h4q-4 16 -4 41v37q0 31 22.5 50t63.5 19h68q84 0 84 -86v-1282q0 -86 -84 -86h-90q-84 0 -84 86v379l4 90h-4q-4 -6 -10.5 -18t-33 -41t-59 -51.5t-92 -41t-127.5 -18.5 q-203 0 -329.5 151.5t-126.5 395.5zM330 522q0 -147 71.5 -237t188.5 -90q111 0 186.5 82.5t75.5 246.5q0 131 -67.5 226.5t-192.5 95.5q-111 0 -186.5 -87t-75.5 -237z" />
<glyph unicode="r" horiz-adv-x="768" d="M129 86v872q0 86 84 86h80q86 0 86 -86v-98l-6 -72h4q35 104 118 184.5t185 80.5q78 0 78 -86v-80q0 -86 -88 -86q-135 0 -209 -111.5t-74 -267.5v-336q0 -86 -84 -86h-90q-84 0 -84 86z" />
<glyph unicode="s" horiz-adv-x="915" d="M104 82q-42 24 -41 60q0 26 21 57l25 37q26 36 63 35q24 0 53 -15q133 -72 234 -72q68 0 106.5 29t38.5 78q0 45 -53 77.5t-130 57.5t-152.5 58.5t-129 102t-53.5 169.5q0 147 113.5 230t285.5 83q154 0 291 -76q44 -23 44 -64q0 -23 -13 -50l-21 -37q-23 -45 -65 -45 q-22 0 -49 12q-113 51 -199 51q-141 0 -141 -102q0 -47 53 -79t129 -56.5t152.5 -57.5t130 -101.5t53.5 -166.5q0 -139 -109.5 -230.5t-287.5 -91.5q-191 1 -349 107z" />
<glyph unicode="t" horiz-adv-x="745" d="M186 373v450h-55q-84 0 -84 86v35q0 86 86 86h60v213q0 86 86 86h81q86 0 86 -86v-213h152q86 0 86 -86v-35q0 -86 -84 -86h-154v-405q0 -176 168 -195q47 -4 66.5 -22.5t19.5 -61.5v-63q0 -86 -106 -86q-162 0 -285 94t-123 289z" />
<glyph unicode="u" horiz-adv-x="1216" d="M115 373v585q0 86 86 86h88q86 0 86 -86v-532q0 -104 35.5 -158.5t126.5 -54.5q135 0 213.5 102.5t78.5 249.5v393q0 86 86 86h89q86 0 86 -86v-872q0 -86 -86 -86h-80q-84 0 -84 86v61l4 48h-4q-41 -88 -139.5 -154t-223.5 -66q-362 1 -362 398z" />
<glyph unicode="v" horiz-adv-x="1064" d="M356 70l-319 876q-8 20 -8 38q0 19 10 34q18 27 65 26h97q76 0 96 -71l195 -576l38 -157h5q16 96 36 157l195 576q20 72 96 71h96q47 0 67 -26q11 -14 11 -34q0 -17 -8 -38l-315 -876q-23 -70 -97 -70h-163q-77 0 -97 70z" />
<glyph unicode="w" horiz-adv-x="1658" d="M315 72l-270 876q-5 17 -5 31q0 22 12 39q19 27 65 26h98q78 0 92 -75l168 -611l21 -110h4q8 55 22 110l176 611q14 74 95 73h77q76 0 95 -73l174 -611l22 -110h4q8 55 23 110l166 611q18 76 94 75h94q45 0 65 -26q12 -16 12 -39q0 -14 -5 -31l-268 -876q-20 -72 -97 -72 h-137q-78 0 -96 74l-158 522l-24 113h-5q-10 -57 -26 -113l-158 -522q-18 -74 -94 -74h-141q-75 0 -95 72z" />
<glyph unicode="x" horiz-adv-x="1019" d="M76 102l278 426l-270 414q-19 28 -19 50q0 12 6 23q15 30 68 29h105q68 0 100 -61l131 -223l33 -66h4l33 66l131 223q33 61 100 61h105q53 0 68 -29q5 -10 6 -23q0 -22 -19 -50l-268 -414l278 -426q18 -27 18 -48q0 -13 -7 -24q-17 -30 -68 -30h-98q-68 0 -101 59 l-149 244l-29 55h-4q-14 -33 -29 -55l-147 -244q-35 -59 -101 -59h-100q-53 0 -69 30q-5 10 -5 22q0 22 19 50z" />
<glyph unicode="y" horiz-adv-x="1052" d="M49 -244q23 50 70 50q11 0 22 -3q41 -18 74 -18q53 0 97 40t69 99l39 92l-397 928q-11 24 -11 43q0 17 8 30q18 28 68 27h111q72 0 96 -69l197 -533l38 -141h5q18 82 34 137l185 535q20 72 96 71h102q47 0 67 -26q11 -14 10 -34q0 -17 -7 -38l-430 -1102 q-51 -137 -152.5 -205.5t-224.5 -68.5q-66 0 -145 31q-37 14 -47 45q-4 11 -4 22q0 21 12 43z" />
<glyph unicode="z" horiz-adv-x="1044" d="M57 70v20q0 51 37 96l432 541l88 96v4q-29 -4 -96 -4h-354q-86 0 -86 86v49q0 86 86 86h717q86 0 86 -69v-21q0 -51 -37 -96l-432 -543q-20 -27 -43 -50l-35 -36l-12 -10v-4q31 6 98 6h389q86 0 86 -86v-49q0 -86 -86 -86h-752q-86 0 -86 70z" />
<glyph unicode="{" horiz-adv-x="702" d="M223 145v199q0 135 -104 193q-37 20 -53.5 39.5t-16.5 54.5v80q0 35 15.5 53t52.5 43q106 47 106 194v175q0 104 35 177.5t90 107.5t101.5 48.5t87.5 14.5h26q86 0 86 -86v-31q0 -84 -86 -84q-119 0 -119 -174v-215q0 -172 -139 -248l-29 -12v-4q6 -2 17.5 -6.5 t41.5 -23.5t51.5 -46t39.5 -75t18 -107v-240q0 -172 119 -172q86 0 86 -86v-31q0 -86 -86 -86h-26q-41 0 -87.5 14.5t-101.5 48.5t-90 108.5t-35 176.5z" />
<glyph unicode="|" horiz-adv-x="514" d="M145 -246v1790q0 86 86 86h52q86 0 86 -86v-1790q0 -84 -86 -84h-52q-86 0 -86 84z" />
<glyph unicode="}" horiz-adv-x="704" d="M53 -86q0 86 86 86q119 0 119 172v240q0 174 137 245l31 13v4q-6 2 -17.5 7t-41 25.5t-51 47t-40 75t-18.5 105.5v215q0 174 -119 174q-86 0 -86 84v31q0 86 86 86h27q41 0 87 -14.5t101.5 -48.5t90 -107.5t34.5 -177.5v-175q0 -147 107 -194q25 -16 37 -25.5t21 -28 t9 -42.5v-80q0 -35 -16 -54.5t-53 -39.5q-104 -57 -105 -193v-199q0 -102 -34.5 -176.5t-90 -108.5t-101.5 -48.5t-87 -14.5h-27q-86 0 -86 86v31z" />
<glyph unicode="~" horiz-adv-x="1214" d="M184 408q-43 0 -65.5 27.5t-14.5 78.5q43 266 306 266q70 0 127 -28.5t88.5 -64.5t73.5 -64.5t87 -28.5q82 0 115 100q16 41 35.5 59.5t54.5 18.5h41q43 0 65.5 -23.5t16.5 -66.5q-37 -283 -307 -283q-70 0 -126 29t-89 63.5t-76 63.5t-88 29q-82 0 -111 -101 q-18 -41 -37.5 -58t-54.5 -17h-41z" />
<glyph unicode="&#xa1;" horiz-adv-x="536" d="M297 623q82 0 86 -84l16 -863q0 -88 -84 -88h-96q-88 0 -84 88l17 863q0 84 86 84h59zM391 956v-71q0 -86 -84 -86h-82q-86 0 -86 86v71q0 86 86 86h82q84 0 84 -86z" />
<glyph unicode="&#xa2;" horiz-adv-x="1153" d="M518 59v93q-193 33 -312.5 193.5t-119.5 381.5t120 383t312 195v86q0 86 82 86h14q82 0 82 -68v-104q111 -18 208 -90t145 -162q39 -76 -45 -111l-78 -31q-25 -14 -48.5 -8t-35 15.5t-29.5 31.5q-76 115 -195 115q-121 0 -195.5 -94t-74.5 -248q0 -150 72 -242t196 -92 q121 0 197 115q51 63 113 41l78 -31q82 -35 45 -113q-47 -90 -144.5 -164.5t-208.5 -84.5v-93q0 -84 -82 -84h-14q-82 0 -82 84z" />
<glyph unicode="&#xa3;" horiz-adv-x="1210" d="M106 86v57q0 84 84 84h43v410h-34q-78 0 -78 82v12q0 84 78 84h34v248q0 182 131.5 299t333.5 117q158 0 299 -95q68 -47 11 -118l-39 -52q-47 -57 -121 -16t-143 41q-90 0 -146.5 -52t-56.5 -132v-240h276q84 0 84 -84v-12q0 -82 -84 -82h-276v-410h551q86 0 86 -84v-57 q0 -86 -86 -86h-863q-84 0 -84 86z" />
<glyph unicode="&#xa5;" horiz-adv-x="1228" d="M231 381q-84 0 -84 74v12q0 72 84 72h250v67l-53 99h-197q-84 0 -84 71v12q0 72 74 72h127l-264 494q-23 43 -5.5 71.5t66.5 28.5h119q72 0 96 -68l166 -321l88 -234h4q41 121 89 234l163 321q25 68 97 68h116q51 0 68.5 -28.5t-4.5 -71.5l-266 -494h116q84 0 84 -72v-12 q0 -72 -84 -71h-196l-51 -99v-67h247q84 0 84 -72v-12q0 -74 -84 -74h-247v-295q0 -86 -86 -86h-99q-84 0 -84 86v295h-250z" />
<glyph unicode="&#xa7;" horiz-adv-x="958" d="M264 356l-131 631q-14 55 -14 117q0 166 111.5 270.5t308.5 104.5q152 0 276 -78q70 -41 19 -117l-23 -31q-41 -59 -117 -24q-74 37 -153 37q-94 0 -152.5 -47.5t-58.5 -145.5q0 -47 14 -102l119 -594q10 -43 -9.5 -68.5t-64.5 -25.5h-31q-76 -1 -94 73zM125 68l20 34 q41 63 117 25q78 -43 160 -43q94 0 152.5 52t58.5 155q0 59 -19 117l-110 567q-12 43 7 68.5t64 25.5h31q76 0 94 -74l129 -630q14 -72 15 -117q0 -166 -111.5 -270.5t-308.5 -104.5q-156 0 -277 78q-69 43 -22 117z" />
<glyph unicode="&#xa8;" horiz-adv-x="1009" d="M678 1591q-84 0 -84 86v68q0 84 84 84h31q84 0 84 -84v-68q0 -86 -84 -86h-31zM303 1591q-86 0 -86 86v68q0 84 86 84h29q86 0 86 -84v-68q0 -86 -86 -86h-29z" />
<glyph unicode="&#xa9;" horiz-adv-x="1654" d="M92 727q0 311 214 530.5t519 219.5t521.5 -219.5t216.5 -530.5t-216.5 -531.5t-521.5 -220.5t-519 220.5t-214 531.5zM274 727q0 -246 159 -416t392.5 -170t394 170t160.5 416t-160.5 415t-394 169t-392.5 -169t-159 -415zM451 723q0 166 109.5 282.5t279.5 116.5 q96 0 171.5 -43t112.5 -96t-8 -90l-31 -27q-25 -18 -52 -12t-48 31q-61 68 -141 67q-92 0 -148.5 -65.5t-56.5 -167.5q0 -96 54.5 -160.5t150.5 -64.5q94 0 151 73q45 49 90 13l29 -25q49 -41 8 -94q-111 -137 -282.5 -137t-280 116.5t-108.5 282.5z" />
<glyph unicode="&#xaa;" horiz-adv-x="815" d="M332 784q-90 0 -155.5 54.5t-65.5 148.5q0 223 381 223h16v15q0 106 -117 106q-57 0 -106 -24q-70 -27 -95 24l-6 15q-29 59 47 90q88 39 187 39q133 0 203.5 -71t70.5 -196v-325q0 -86 -78 -86h-6q-78 0 -78 80v28h-4l-6 -12q-4 -8 -21.5 -29.5t-38 -37t-55 -29 t-73.5 -13.5zM377 928q55 0 92 45t37 102v15h-23q-188 0 -188 -93q0 -31 22.5 -50t59.5 -19zM199 545q-86 0 -86 65v11q0 63 86 63h415q86 0 86 -63v-11q0 -66 -86 -65h-415z" />
<glyph unicode="&#xab;" horiz-adv-x="1134" d="M561 518q-49 59 0 119l248 313q43 49 104 49h50q55 0 69.5 -30.5t-20.5 -73.5l-252 -317l252 -316q35 -43 23.5 -73.5t-62.5 -30.5h-60q-61 0 -104 49zM348 207l-248 311q-49 59 0 119l248 313q43 49 105 49h51q53 0 67.5 -30.5t-18.5 -73.5l-252 -317l252 -316 q35 -43 22.5 -73.5t-63.5 -30.5h-59q-62 0 -105 49z" />
<glyph unicode="&#xac;" horiz-adv-x="1251" d="M195 694q-84 0 -84 86v31q0 84 84 84h829q86 0 86 -84v-432q0 -86 -86 -86h-39q-84 0 -84 86v315h-706z" />
<glyph unicode="&#xad;" horiz-adv-x="854" d="M205 471q-86 0 -86 86v57q0 84 86 84h444q86 0 86 -84v-57q0 -86 -86 -86h-444z" />
<glyph unicode="&#xae;" horiz-adv-x="1654" d="M92 727q0 311 214 530.5t517 219.5q309 0 524.5 -219.5t215.5 -530.5t-215 -531.5t-525 -220.5q-303 0 -517 220.5t-214 531.5zM274 727q0 -246 159 -416t390 -170q236 0 396.5 170t160.5 416t-160.5 415t-396.5 169q-231 0 -390 -169t-159 -415zM567 442v578q0 86 86 86 h226q113 0 179 -64.5t66 -173.5q0 -80 -42 -131t-89 -63v-4q8 -8 27 -43l88 -170q23 -45 10.5 -73t-53.5 -28h-27q-72 0 -98 64l-98 213h-101v-191q0 -86 -79 -86h-15q-80 0 -80 86zM741 756h97q51 0 79.5 29.5t28.5 82.5q0 111 -104 111h-101v-223z" />
<glyph unicode="&#xaf;" horiz-adv-x="1009" d="M322 1604q-84 0 -84 82v14q0 82 84 82h366q86 0 86 -82v-14q0 -82 -86 -82h-366z" />
<glyph unicode="&#xb0;" horiz-adv-x="802" d="M401.5 836q-139.5 0 -236.5 93t-97 228q0 133 97 228.5t236 95.5q137 0 235.5 -95.5t98.5 -228.5q0 -135 -97 -228t-236.5 -93zM401.5 1022q57.5 0 97.5 39t40 96q0 55 -40 95t-97.5 40t-96.5 -40t-39 -95q0 -57 39 -96t96.5 -39z" />
<glyph unicode="&#xb1;" d="M172 483q-86 0 -86 86v31q0 86 86 86h356v399q0 86 86 86h41q84 0 84 -86v-399h359q84 0 84 -86v-31q0 -86 -84 -86h-359v-397q0 -86 -84 -86h-41q-86 0 -86 86v397h-356zM199 -174h870q86 0 86 -86v-31q0 -84 -86 -84h-870q-84 0 -84 84v31q0 86 84 86z" />
<glyph unicode="&#xb2;" horiz-adv-x="751" d="M139 866q-86 0 -86 86q0 96 44 173t106.5 122t124 83t105.5 80t44 89t-35.5 77t-89 30t-104.5 -39q-70 -47 -117 -4l-10 8q-68 59 -4 117q109 98 248 98q127 0 218 -75t91 -204q0 -82 -40 -146.5t-98.5 -104t-117 -72.5t-102.5 -70t-48 -78h334q86 0 86 -80v-10 q0 -80 -86 -80h-463z" />
<glyph unicode="&#xb3;" horiz-adv-x="741" d="M340 846q-147 0 -254 84q-61 41 -16 110l10 13q39 55 110 18q63 -47 140 -47q61 0 103 37t42 92q0 53 -45 85t-104 32h-23q-59 0 -80 47q-20 49 27 98l115 131l49 49v4q-41 -6 -72 -6h-180q-84 0 -84 82v11q0 80 84 79h403q86 0 86 -61v-12q0 -49 -41 -97l-161 -184 q100 -18 161.5 -86t61.5 -174q0 -125 -91 -215t-241 -90z" />
<glyph unicode="&#xb4;" horiz-adv-x="1009" d="M395 1550q-45 0 -59 28t8 69l72 122q35 59 100 60h74q55 0 67.5 -31t-22.5 -72l-92 -124q-43 -51 -105 -52h-43z" />
<glyph unicode="&#xb5;" horiz-adv-x="1304" d="M158 -324v1282q0 86 86 86h88q86 0 86 -86v-532q0 -104 35.5 -158.5t126.5 -54.5q135 0 213.5 102.5t78.5 249.5v393q0 86 86 86h89q86 0 86 -86v-872q0 -86 -86 -86h-80q-84 0 -84 86v59l2 48h-4q-39 -76 -133.5 -147t-229.5 -71q-100 0 -145 43h-4q14 -100 14 -170 v-172q0 -86 -84 -86h-55q-86 0 -86 86z" />
<glyph unicode="&#xb6;" horiz-adv-x="1269" d="M553 -16v510q-199 0 -341 140t-142 341t141 340t340 139h541q84 0 84 -86v-57q0 -84 -84 -84h-351v-1243q0 -86 -84 -86h-20q-84 0 -84 86zM868 -16v1044q0 86 86 86h19q86 0 86 -86v-1044q0 -86 -86 -86h-19q-86 0 -86 86z" />
<glyph unicode="&#xb7;" horiz-adv-x="493" d="M205 467q-84 0 -84 84v94q0 84 84 84h84q86 0 86 -84v-94q0 -84 -86 -84h-84z" />
<glyph unicode="&#xb8;" horiz-adv-x="1009" d="M387 -109l41 150h129l-29 -131q68 -8 109 -47t41 -109q0 -94 -63.5 -137t-157.5 -43q-117 0 -117 70q0 33 12.5 52t30.5 19q10 0 26.5 -3t24.5 -3q76 0 76 60q0 49 -92 59q-47 4 -31 63z" />
<glyph unicode="&#xb9;" horiz-adv-x="649" d="M143 866q-84 0 -84 80v10q0 80 72 80h115v424l6 58h-4q-6 -12 -29 -33l-33 -31q-35 -31 -73 6l-23 23q-55 57 10 116l125 123q49 43 105 43h26q84 0 84 -86v-643h103q84 0 84 -80v-10q0 -80 -84 -80h-400z" />
<glyph unicode="&#xba;" horiz-adv-x="915" d="M457 786q-150 0 -254.5 98.5t-104.5 248.5q0 147 104.5 244.5t254.5 97.5q152 0 256 -97.5t104 -244.5q0 -150 -104 -248.5t-256 -98.5zM457 950q74 0 124 51.5t50 131.5q0 78 -50.5 129t-123.5 51q-72 0 -122 -51.5t-50 -128.5q0 -80 50 -131.5t122 -51.5zM213 545 q-84 0 -84 65v11q0 63 84 63h492q84 0 83 -63v-11q0 -66 -83 -65h-492z" />
<glyph unicode="&#xbb;" horiz-adv-x="1134" d="M582 262l252 316l-252 317q-35 43 -23 73.5t64 30.5h59q61 0 104 -49l246 -313q49 -59 0 -119l-246 -311q-43 -49 -104 -49h-51q-55 0 -69.5 30.5t20.5 73.5zM170 158q-53 0 -67.5 30.5t18.5 73.5l252 316l-252 317q-35 43 -22.5 73.5t63.5 30.5h59q61 0 105 -49 l247 -313q49 -59 0 -119l-247 -311q-43 -49 -105 -49h-51z" />
<glyph unicode="&#xbc;" horiz-adv-x="1976" d="M1677 0q-86 0 -86 86v117h-331q-84 0 -84 65v23q0 43 30 90l320 463q39 55 102 55h70q86 0 86 -86v-442h53q72 0 72 -78v-10q0 -80 -72 -80h-53v-117q0 -86 -86 -86h-21zM1372 371h219v225l8 113h-4q-25 -55 -53 -97l-170 -237v-4zM743 63q-31 -63 -98 -63h-29 q-41 0 -53 27.5t8 72.5l613 1291q31 63 98 63h29q41 0 53 -27.5t-8 -72.5zM178 557q-84 0 -84 80v10q0 80 72 80h115v424l6 57h-4q-6 -12 -29 -32l-33 -31q-35 -31 -74 6l-22 23q-55 57 10 116l125 123q49 43 105 43h26q84 0 84 -86v-643h103q84 0 84 -80v-10q0 -80 -84 -80 h-400z" />
<glyph unicode="&#xbd;" horiz-adv-x="1943" d="M1315 0q-86 0 -86 86q0 96 44 173t106.5 122t124 83t105.5 80t44 89t-36 76.5t-89 29.5t-105 -39q-70 -47 -116 -4l-11 9q-68 59 -4 116q109 98 248 99q127 0 218 -75t91 -204q0 -82 -40 -146.5t-98 -104.5t-116.5 -72.5t-102.5 -69.5t-48 -78h334q86 0 86 -80v-10 q0 -80 -86 -80h-463zM741 63q-31 -63 -98 -63h-29q-41 0 -53 27.5t8 72.5l613 1291q31 63 98 63h29q41 0 53 -27.5t-8 -72.5zM170 557q-84 0 -84 80v10q0 80 72 80h114v424l7 57h-5q-6 -12 -28 -32l-33 -31q-35 -31 -74 6l-22 23q-55 57 10 116l125 123q49 43 104 43h27 q84 0 84 -86v-643h102q84 0 84 -80v-10q0 -80 -84 -80h-399z" />
<glyph unicode="&#xbe;" horiz-adv-x="2000" d="M1700 0q-86 0 -86 86v117h-332q-84 0 -84 65v23q0 43 31 90l319 463q41 55 103 55h69q86 0 86 -86v-442h54q72 0 71 -78v-10q0 -80 -71 -80h-54v-117q0 -86 -86 -86h-20zM1395 371h219v225l8 113h-4q-25 -55 -53 -97l-170 -237v-4zM373 537q-147 0 -254 84 q-61 41 -17 110l11 12q39 55 110 19q63 -47 139 -47q61 0 103.5 36.5t42.5 92.5q0 53 -45 85t-105 32h-22q-59 0 -80 47q-20 49 27 98l114 131l49 49v4q-41 -6 -71 -6h-180q-84 0 -84 82v10q0 80 84 80h403q86 0 86 -61v-13q0 -49 -41 -96l-162 -184q100 -18 162 -86 t62 -174q0 -125 -91 -215t-241 -90zM766 63q-31 -63 -98 -63h-29q-41 0 -53.5 27.5t8.5 72.5l612 1291q31 63 99 63h28q41 0 53.5 -27.5t-8.5 -72.5z" />
<glyph unicode="&#xbf;" horiz-adv-x="956" d="M618 623q86 0 87 -84v-33q0 -72 -35 -134.5t-84 -108.5l-100 -89q-50 -43 -84.5 -95t-34.5 -110q0 -72 57 -121t141 -49q70 0 152 41q82 43 123 -20l34 -51q51 -72 -14 -115q-141 -94 -317 -94q-182 0 -315.5 105.5t-133.5 279.5q0 90 34 162.5t84 123t101.5 94.5t91 96 t46.5 107l4 35q14 59 82 60h81zM705 956v-71q0 -86 -87 -86h-81q-84 0 -84 86v71q0 86 84 86h81q87 0 87 -86z" />
<glyph unicode="&#xc0;" horiz-adv-x="1298" d="M33 98l454 1286q25 70 97 70h131q76 0 96 -70l455 -1286q16 -45 -3.5 -71.5t-66.5 -26.5h-94q-76 0 -96 70l-103 303h-510l-100 -301q-20 -72 -96 -72h-95q-47 0 -66 26.5t-3 71.5zM459 588h379l-129 389l-58 225h-4q-33 -143 -57 -225zM614 1550q-61 0 -104 52l-92 124 q-35 41 -22.5 72t65.5 31h76q66 0 100 -60l72 -124q23 -35 12.5 -65t-53.5 -30h-54z" />
<glyph unicode="&#xc1;" horiz-adv-x="1298" d="M33 98l454 1286q25 70 97 70h131q76 0 96 -70l455 -1286q16 -45 -3.5 -71.5t-66.5 -26.5h-94q-76 0 -96 70l-103 303h-510l-100 -301q-20 -72 -96 -72h-95q-47 0 -66 26.5t-3 71.5zM459 588h379l-129 389l-58 225h-4q-33 -143 -57 -225zM639 1550q-45 0 -59.5 28t8.5 69 l71 122q35 59 101 60h74q55 0 67 -31t-22 -72l-93 -124q-43 -51 -104 -52h-43z" />
<glyph unicode="&#xc2;" horiz-adv-x="1298" d="M33 98l454 1286q25 70 97 70h131q76 0 96 -70l455 -1286q16 -45 -3.5 -71.5t-66.5 -26.5h-94q-76 0 -96 70l-103 303h-510l-100 -301q-20 -72 -96 -72h-95q-47 0 -66 26.5t-3 71.5zM459 588h379l-129 389l-58 225h-4q-33 -143 -57 -225zM436 1550q-45 0 -55 30t18 75 l82 119q37 55 105 55h127q68 0 104 -55l82 -119q29 -45 18.5 -75t-55.5 -30h-53q-35 0 -52.5 13.5t-37.5 46.5l-68 106h-4l-69 -106q-33 -59 -89 -60h-53z" />
<glyph unicode="&#xc3;" horiz-adv-x="1298" d="M33 98l454 1286q25 70 97 70h131q76 0 96 -70l455 -1286q16 -45 -3.5 -71.5t-66.5 -26.5h-94q-76 0 -96 70l-103 303h-510l-100 -301q-20 -72 -96 -72h-95q-47 0 -66 26.5t-3 71.5zM459 588h379l-129 389l-58 225h-4q-33 -143 -57 -225zM358 1552q-74 0 -73 78 q0 84 58 143.5t149 59.5q66 0 118 -34t89.5 -66.5t72.5 -32.5q66 0 72 80q4 47 74 47h20q76 0 76 -70q0 -94 -57.5 -152.5t-149.5 -58.5q-68 0 -119 34t-89 66.5t-73 32.5q-70 0 -77 -82q-6 -45 -70 -45h-21z" />
<glyph unicode="&#xc4;" horiz-adv-x="1298" d="M33 98l454 1286q25 70 97 70h131q76 0 96 -70l455 -1286q16 -45 -3.5 -71.5t-66.5 -26.5h-94q-76 0 -96 70l-103 303h-510l-100 -301q-20 -72 -96 -72h-95q-47 0 -66 26.5t-3 71.5zM459 588h379l-129 389l-58 225h-4q-33 -143 -57 -225zM821 1591q-84 0 -84 86v68 q0 84 84 84h31q84 0 84 -84v-68q0 -86 -84 -86h-31zM446 1591q-86 0 -86 86v68q0 84 86 84h29q86 0 86 -84v-68q0 -86 -86 -86h-29z" />
<glyph unicode="&#xc5;" horiz-adv-x="1298" d="M33 98l454 1286q25 70 97 70h131q76 0 96 -70l455 -1286q16 -45 -3.5 -71.5t-66.5 -26.5h-94q-76 0 -96 70l-103 303h-510l-100 -301q-20 -72 -96 -72h-95q-47 0 -66 26.5t-3 71.5zM459 588h379l-129 389l-58 225h-4q-33 -143 -57 -225zM649 1526q-80 0 -137 43t-57 117 q0 76 57 118.5t137 42.5q78 0 135.5 -43t57.5 -118q0 -74 -57.5 -117t-135.5 -43zM649 1616q31 0 50.5 19.5t19.5 50.5q0 33 -19.5 52t-50.5 19t-50 -19.5t-19 -51.5q0 -31 18 -50.5t51 -19.5z" />
<glyph unicode="&#xc6;" horiz-adv-x="1816" d="M20 98l535 1291q25 66 98 65h977q84 0 84 -86v-57q0 -84 -84 -84h-522v-381h405q84 0 84 -84v-57q0 -86 -84 -87h-405v-391h553q84 0 84 -84v-57q0 -86 -84 -86h-731q-86 0 -86 86v537h-346l-219 -557q-27 -66 -97 -66h-98q-47 0 -65.5 27.5t1.5 70.5zM582 838h262v389 h-107z" />
<glyph unicode="&#xc7;" horiz-adv-x="1445" d="M717 -109l24 89q-299 31 -478 240.5t-179 512.5q0 319 211 532.5t539 213.5q270 0 475 -146q61 -47 16 -119l-37 -59q-41 -68 -117 -20q-160 102 -327 102q-229 0 -358.5 -144.5t-129.5 -355.5q0 -215 132.5 -367.5t357.5 -152.5q182 0 356 127q72 53 119 -14l41 -56 q49 -66 -12 -118q-205 -166 -478 -179l-14 -67q68 -8 109 -47t41 -109q0 -94 -63.5 -137t-158.5 -43q-117 0 -116 70q0 33 12 52t31 19q8 0 24.5 -3t26.5 -3q76 0 76 60q0 49 -92 59q-47 4 -31 63z" />
<glyph unicode="&#xc8;" horiz-adv-x="1140" d="M168 86v1282q0 86 84 86h700q86 0 86 -86v-57q0 -84 -86 -84h-522v-381h406q86 0 86 -84v-57q0 -86 -86 -87h-406v-391h555q86 0 86 -84v-57q0 -86 -86 -86h-733q-84 0 -84 86zM588 1550q-61 0 -105 52l-92 124q-35 41 -22.5 72t65.5 31h76q66 0 100 -60l72 -124 q23 -35 12.5 -65t-53.5 -30h-53z" />
<glyph unicode="&#xc9;" horiz-adv-x="1140" d="M610 1550q-45 0 -59 28t8 69l72 122q35 59 100 60h74q55 0 67.5 -31t-22.5 -72l-92 -124q-43 -51 -105 -52h-43zM168 86v1282q0 86 84 86h700q86 0 86 -86v-57q0 -84 -86 -84h-522v-381h406q86 0 86 -84v-57q0 -86 -86 -87h-406v-391h555q86 0 86 -84v-57q0 -86 -86 -86 h-733q-84 0 -84 86z" />
<glyph unicode="&#xca;" horiz-adv-x="1140" d="M408 1550q-45 0 -55.5 30t18.5 75l82 119q37 55 104 55h127q68 0 104 -55l82 -119q29 -45 19 -75t-55 -30h-54q-35 0 -52 13.5t-38 46.5l-67 106h-5l-69 -106q-33 -59 -88 -60h-53zM168 86v1282q0 86 84 86h700q86 0 86 -86v-57q0 -84 -86 -84h-522v-381h406q86 0 86 -84 v-57q0 -86 -86 -87h-406v-391h555q86 0 86 -84v-57q0 -86 -86 -86h-733q-84 0 -84 86z" />
<glyph unicode="&#xcb;" horiz-adv-x="1140" d="M795 1591q-84 0 -84 86v68q0 84 84 84h30q84 0 84 -84v-68q0 -86 -84 -86h-30zM420 1591q-86 0 -86 86v68q0 84 86 84h29q86 0 86 -84v-68q0 -86 -86 -86h-29zM168 86v1282q0 86 84 86h700q86 0 86 -86v-57q0 -84 -86 -84h-522v-381h406q86 0 86 -84v-57q0 -86 -86 -87 h-406v-391h555q86 0 86 -84v-57q0 -86 -86 -86h-733q-84 0 -84 86z" />
<glyph unicode="&#xcc;" horiz-adv-x="598" d="M168 86v1282q0 86 84 86h94q84 0 84 -86v-1282q0 -86 -84 -86h-94q-84 0 -84 86zM268 1550q-61 0 -104 52l-92 124q-35 41 -23 72t66 31h75q66 0 101 -60l71 -124q23 -35 13 -65t-53 -30h-54z" />
<glyph unicode="&#xcd;" horiz-adv-x="598" d="M168 86v1282q0 86 84 86h94q84 0 84 -86v-1282q0 -86 -84 -86h-94q-84 0 -84 86zM291 1550q-45 0 -59.5 28t8.5 69l71 122q35 59 101 60h73q55 0 67.5 -31t-22.5 -72l-92 -124q-43 -51 -104 -52h-43z" />
<glyph unicode="&#xce;" horiz-adv-x="598" d="M168 86v1282q0 86 84 86h94q84 0 84 -86v-1282q0 -86 -84 -86h-94q-84 0 -84 86zM88 1550q-45 0 -55 30t18 75l82 119q37 55 105 55h127q68 0 104 -55l82 -119q29 -45 18.5 -75t-55.5 -30h-53q-35 0 -52.5 13.5t-37.5 46.5l-68 106h-4l-70 -106q-33 -59 -88 -60h-53z" />
<glyph unicode="&#xcf;" horiz-adv-x="598" d="M168 86v1282q0 86 84 86h94q84 0 84 -86v-1282q0 -86 -84 -86h-94q-84 0 -84 86zM475 1591q-84 0 -84 86v68q0 84 84 84h31q84 0 84 -84v-68q0 -86 -84 -86h-31zM100 1591q-86 0 -86 86v68q0 84 86 84h29q86 0 86 -84v-68q0 -86 -86 -86h-29z" />
<glyph unicode="&#xd0;" horiz-adv-x="1492" d="M170 86v530h-33q-86 0 -86 86v43q0 86 51 86h68v537q0 86 86 86h410q340 0 540.5 -192.5t200.5 -532.5t-200.5 -534.5t-540.5 -194.5h-410q-86 0 -86 86zM432 227h219q225 0 354.5 130t129.5 372q0 238 -130.5 368t-353.5 130h-219v-396h186q84 0 84 -86v-43 q0 -86 -79 -86h-191v-389z" />
<glyph unicode="&#xd1;" horiz-adv-x="1521" d="M168 86v1282q0 86 84 86h110q72 0 103 -57l516 -783q25 -39 54 -95l48 -93l19 -37h4q-14 139 -14 225v754q0 86 86 86h92q86 0 86 -86v-1282q0 -86 -86 -86h-111q-70 0 -100 57l-518 781q-25 39 -55 95l-48 93l-18 37h-4q14 -139 14 -225v-752q0 -86 -84 -86h-94 q-84 0 -84 86zM471 1552q-74 0 -74 78q0 84 58.5 143.5t148.5 59.5q66 0 118 -34t90 -66.5t73 -32.5q66 0 71 80q4 47 74 47h21q76 0 75 -70q0 -94 -57 -152.5t-149 -58.5q-68 0 -119 34t-89 66.5t-73 32.5q-70 0 -78 -82q-6 -45 -69 -45h-21z" />
<glyph unicode="&#xd2;" horiz-adv-x="1667" d="M82 737q0 315 212 528.5t539.5 213.5t539.5 -213t212 -529q0 -324 -212 -543t-539.5 -219t-539.5 219t-212 543zM354 737q0 -223 136.5 -371.5t343 -148.5t343 148.5t136.5 371.5q0 213 -136.5 356.5t-343 143.5t-343 -143.5t-136.5 -356.5zM799 1550q-61 0 -105 52 l-92 124q-35 41 -22.5 72t65.5 31h76q66 0 100 -60l72 -124q23 -35 12.5 -65t-53.5 -30h-53z" />
<glyph unicode="&#xd3;" horiz-adv-x="1667" d="M823 1550q-45 0 -59 28t8 69l72 122q35 59 100 60h74q55 0 67.5 -31t-22.5 -72l-92 -124q-43 -51 -105 -52h-43zM82 737q0 315 212 528.5t539.5 213.5t539.5 -213t212 -529q0 -324 -212 -543t-539.5 -219t-539.5 219t-212 543zM354 737q0 -223 136.5 -371.5t343 -148.5 t343 148.5t136.5 371.5q0 213 -136.5 356.5t-343 143.5t-343 -143.5t-136.5 -356.5z" />
<glyph unicode="&#xd4;" horiz-adv-x="1667" d="M621 1550q-45 0 -55.5 30t18.5 75l82 119q37 55 104 55h127q68 0 104 -55l82 -119q29 -45 19 -75t-55 -30h-54q-35 0 -52 13.5t-38 46.5l-67 106h-5l-69 -106q-33 -59 -88 -60h-53zM82 737q0 315 212 528.5t539.5 213.5t539.5 -213t212 -529q0 -324 -212 -543 t-539.5 -219t-539.5 219t-212 543zM354 737q0 -223 136.5 -371.5t343 -148.5t343 148.5t136.5 371.5q0 213 -136.5 356.5t-343 143.5t-343 -143.5t-136.5 -356.5z" />
<glyph unicode="&#xd5;" horiz-adv-x="1667" d="M82 737q0 315 212 528.5t539.5 213.5t539.5 -213t212 -529q0 -324 -212 -543t-539.5 -219t-539.5 219t-212 543zM354 737q0 -223 136.5 -371.5t343 -148.5t343 148.5t136.5 371.5q0 213 -136.5 356.5t-343 143.5t-343 -143.5t-136.5 -356.5zM543 1552q-74 0 -74 78 q0 84 58.5 143.5t148.5 59.5q66 0 118 -34t90 -66.5t72 -32.5q66 0 72 80q4 47 74 47h20q76 0 76 -70q0 -94 -57.5 -152.5t-149.5 -58.5q-68 0 -119 34t-89 66.5t-72 32.5q-70 0 -78 -82q-6 -45 -70 -45h-20z" />
<glyph unicode="&#xd6;" horiz-adv-x="1667" d="M1006 1591q-84 0 -84 86v68q0 84 84 84h30q84 0 84 -84v-68q0 -86 -84 -86h-30zM631 1591q-86 0 -86 86v68q0 84 86 84h28q86 0 86 -84v-68q0 -86 -86 -86h-28zM82 737q0 315 212 528.5t539.5 213.5t539.5 -213t212 -529q0 -324 -212 -543t-539.5 -219t-539.5 219 t-212 543zM354 737q0 -223 136.5 -371.5t343 -148.5t343 148.5t136.5 371.5q0 213 -136.5 356.5t-343 143.5t-343 -143.5t-136.5 -356.5z" />
<glyph unicode="&#xd7;" d="M152 84q-57 57 -2 121l346 381l-346 381q-55 63 2 120l20 23q63 61 121 -2l340 -375l340 375q57 63 121 2l22 -23q57 -57 2 -120l-348 -381l348 -381q55 -63 -2 -121l-22 -23q-63 -63 -121 2l-340 373l-340 -373q-57 -66 -121 -2z" />
<glyph unicode="&#xd8;" horiz-adv-x="1665" d="M268 82l60 84q-246 223 -246 569q0 313 216 528.5t536 215.5q201 0 372 -95l39 58q51 66 111 26q55 -43 22 -86l-53 -77q123 -104 191.5 -251t68.5 -319q0 -322 -216 -541t-535 -219q-215 0 -392 107l-45 -68q-51 -68 -110.5 -26.5t-18.5 94.5zM483 381l574 797 q-106 59 -223 59q-201 0 -340.5 -143.5t-139.5 -358.5q0 -209 129 -354zM590 287q111 -70 244 -70q201 0 340 148.5t139 369.5q0 215 -142 357z" />
<glyph unicode="&#xd9;" horiz-adv-x="1472" d="M152 522v846q0 86 84 86h92q86 0 86 -86v-844q0 -145 87 -226t234.5 -81t235.5 81t88 226v844q0 86 84 86h94q84 0 84 -86v-846q0 -244 -161 -395.5t-423 -151.5q-264 0 -424.5 150.5t-160.5 396.5zM700 1550q-61 0 -104 52l-92 124q-35 41 -22.5 72t65.5 31h76 q66 0 100 -60l72 -124q23 -35 12.5 -65t-53.5 -30h-54z" />
<glyph unicode="&#xda;" horiz-adv-x="1472" d="M725 1550q-45 0 -59.5 28t8.5 69l71 122q35 59 101 60h74q55 0 67 -31t-22 -72l-93 -124q-43 -51 -104 -52h-43zM152 522v846q0 86 84 86h92q86 0 86 -86v-844q0 -145 87 -226t234.5 -81t235.5 81t88 226v844q0 86 84 86h94q84 0 84 -86v-846q0 -244 -161 -395.5 t-423 -151.5q-264 0 -424.5 150.5t-160.5 396.5z" />
<glyph unicode="&#xdb;" horiz-adv-x="1472" d="M522 1550q-45 0 -55 30t18 75l82 119q37 55 105 55h127q68 0 104 -55l82 -119q29 -45 18.5 -75t-55.5 -30h-53q-35 0 -52.5 13.5t-37.5 46.5l-68 106h-4l-69 -106q-33 -59 -89 -60h-53zM152 522v846q0 86 84 86h92q86 0 86 -86v-844q0 -145 87 -226t234.5 -81t235.5 81 t88 226v844q0 86 84 86h94q84 0 84 -86v-846q0 -244 -161 -395.5t-423 -151.5q-264 0 -424.5 150.5t-160.5 396.5z" />
<glyph unicode="&#xdc;" horiz-adv-x="1472" d="M909 1591q-84 0 -84 86v68q0 84 84 84h31q84 0 84 -84v-68q0 -86 -84 -86h-31zM535 1591q-86 0 -86 86v68q0 84 86 84h28q86 0 86 -84v-68q0 -86 -86 -86h-28zM152 522v846q0 86 84 86h92q86 0 86 -86v-844q0 -145 87 -226t234.5 -81t235.5 81t88 226v844q0 86 84 86h94 q84 0 84 -86v-846q0 -244 -161 -395.5t-423 -151.5q-264 0 -424.5 150.5t-160.5 396.5z" />
<glyph unicode="&#xdd;" horiz-adv-x="1187" d="M463 86v522l-426 744q-27 43 -9.5 72.5t66.5 29.5h115q68 0 98 -63l197 -365l88 -195h4q43 104 88 195l197 365q31 63 98 63h115q51 0 67.5 -29.5t-8.5 -72.5l-428 -744v-522q0 -86 -84 -86h-92q-86 0 -86 86zM584 1550q-45 0 -59.5 28t7.5 69l72 122q35 59 101 60h73 q55 0 67.5 -31t-22.5 -72l-92 -124q-43 -51 -104 -52h-43z" />
<glyph unicode="&#xde;" horiz-adv-x="1241" d="M168 86v1282q0 86 84 86h94q84 0 84 -84v-151h297q205 0 334 -131.5t129 -342t-129 -344t-336 -133.5h-295v-182q0 -86 -84 -86h-94q-84 0 -84 86zM430 496h248q115 0 179.5 67.5t64.5 182t-63.5 180t-176.5 65.5h-252v-495z" />
<glyph unicode="&#xdf;" horiz-adv-x="1222" d="M129 86v997q0 184 141.5 290t333.5 106q178 0 300 -101.5t122 -255.5q0 -80 -46 -144.5t-91 -116.5t-45 -99q0 -39 51 -84t113.5 -86t114 -115t51.5 -162q0 -158 -106.5 -243.5t-262.5 -85.5q-104 0 -207 30q-70 14 -70 95v51q0 92 78 71q80 -27 162 -26q61 0 102 29.5 t41 93.5q0 45 -51 93t-113.5 87t-113.5 104.5t-51 141.5q0 53 28.5 105t62.5 86t62.5 80t28.5 91q0 57 -45 98t-123 41q-88 0 -147.5 -48t-59.5 -144v-979q0 -86 -86 -86h-88q-86 0 -86 86z" />
<glyph unicode="&#xe0;" horiz-adv-x="1075" d="M49 289q0 109 60.5 183.5t160 109t193.5 49t196 14.5h43v25q0 184 -194 184q-106 0 -217 -59q-80 -35 -115 34l-20 39q-39 76 32 115q168 86 342 86q203 0 318 -109.5t115 -306.5v-567q0 -86 -86 -86h-70q-84 0 -84 86v41l4 45h-4q-4 -8 -12.5 -21.5t-37 -47t-63.5 -59.5 t-93 -47.5t-122 -21.5q-145 0 -245.5 87.5t-100.5 226.5zM307 311q0 -55 42 -96t116 -41q104 0 172 86t68 189v38h-43q-355 0 -355 -176zM506 1176q-61 0 -105 51l-92 125q-35 41 -22.5 71.5t65.5 30.5h76q66 0 100 -59l72 -125q23 -35 12.5 -64.5t-53.5 -29.5h-53z" />
<glyph unicode="&#xe1;" horiz-adv-x="1075" d="M49 289q0 109 60.5 183.5t160 109t193.5 49t196 14.5h43v25q0 184 -194 184q-106 0 -217 -59q-80 -35 -115 34l-20 39q-39 76 32 115q168 86 342 86q203 0 318 -109.5t115 -306.5v-567q0 -86 -86 -86h-70q-84 0 -84 86v41l4 45h-4q-4 -8 -12.5 -21.5t-37 -47t-63.5 -59.5 t-93 -47.5t-122 -21.5q-145 0 -245.5 87.5t-100.5 226.5zM307 311q0 -55 42 -96t116 -41q104 0 172 86t68 189v38h-43q-355 0 -355 -176zM524 1176q-45 0 -59 28.5t8 67.5l72 123q35 59 100 59h74q55 0 67.5 -30.5t-22.5 -71.5l-92 -125q-43 -51 -105 -51h-43z" />
<glyph unicode="&#xe2;" horiz-adv-x="1075" d="M49 289q0 109 60.5 183.5t160 109t193.5 49t196 14.5h43v25q0 184 -194 184q-106 0 -217 -59q-80 -35 -115 34l-20 39q-39 76 32 115q168 86 342 86q203 0 318 -109.5t115 -306.5v-567q0 -86 -86 -86h-70q-84 0 -84 86v41l4 45h-4q-4 -8 -12.5 -21.5t-37 -47t-63.5 -59.5 t-93 -47.5t-122 -21.5q-145 0 -245.5 87.5t-100.5 226.5zM307 311q0 -55 42 -96t116 -41q104 0 172 86t68 189v38h-43q-355 0 -355 -176zM324 1176q-45 0 -55.5 29.5t18.5 74.5l82 119q37 55 104 55h127q68 0 105 -55l81 -119q29 -45 19 -74.5t-55 -29.5h-54q-35 0 -52 13 t-38 46l-67 106h-4l-70 -106q-33 -59 -88 -59h-53z" />
<glyph unicode="&#xe3;" horiz-adv-x="1075" d="M49 289q0 109 60.5 183.5t160 109t193.5 49t196 14.5h43v25q0 184 -194 184q-106 0 -217 -59q-80 -35 -115 34l-20 39q-39 76 32 115q168 86 342 86q203 0 318 -109.5t115 -306.5v-567q0 -86 -86 -86h-70q-84 0 -84 86v41l4 45h-4q-4 -8 -12.5 -21.5t-37 -47t-63.5 -59.5 t-93 -47.5t-122 -21.5q-145 0 -245.5 87.5t-100.5 226.5zM307 311q0 -55 42 -96t116 -41q104 0 172 86t68 189v38h-43q-355 0 -355 -176zM246 1178q-74 0 -74 77q0 84 58.5 143.5t148.5 59.5q51 0 96 -20.5t69.5 -46t55.5 -46t59 -20.5q66 0 72 80q4 47 74 47h20 q76 0 76 -70q0 -94 -57.5 -152.5t-149.5 -58.5q-68 0 -119 33t-88.5 67t-72.5 34q-70 0 -78 -82q-6 -45 -70 -45h-20z" />
<glyph unicode="&#xe4;" horiz-adv-x="1075" d="M49 289q0 109 60.5 183.5t160 109t193.5 49t196 14.5h43v25q0 184 -194 184q-106 0 -217 -59q-80 -35 -115 34l-20 39q-39 76 32 115q168 86 342 86q203 0 318 -109.5t115 -306.5v-567q0 -86 -86 -86h-70q-84 0 -84 86v41l4 45h-4q-4 -8 -12.5 -21.5t-37 -47t-63.5 -59.5 t-93 -47.5t-122 -21.5q-145 0 -245.5 87.5t-100.5 226.5zM307 311q0 -55 42 -96t116 -41q104 0 172 86t68 189v38h-43q-355 0 -355 -176zM709 1217q-84 0 -84 86v67q0 84 84 84h30q84 0 84 -84v-67q0 -86 -84 -86h-30zM334 1217q-86 0 -86 86v67q0 84 86 84h28q86 0 87 -84 v-67q0 -86 -87 -86h-28z" />
<glyph unicode="&#xe5;" horiz-adv-x="1075" d="M49 289q0 109 60.5 183.5t160 109t193.5 49t196 14.5h43v25q0 184 -194 184q-106 0 -217 -59q-80 -35 -115 34l-20 39q-39 76 32 115q168 86 342 86q203 0 318 -109.5t115 -306.5v-567q0 -86 -86 -86h-70q-84 0 -84 86v41l4 45h-4q-4 -8 -12.5 -21.5t-37 -47t-63.5 -59.5 t-93 -47.5t-122 -21.5q-145 0 -245.5 87.5t-100.5 226.5zM307 311q0 -55 42 -96t116 -41q104 0 172 86t68 189v38h-43q-355 0 -355 -176zM537 1151q-80 0 -137.5 43t-57.5 117q0 76 57.5 119t137.5 43q78 0 135 -43.5t57 -118.5q0 -74 -57 -117t-135 -43zM537 1241 q31 0 50 19.5t19 50.5q0 33 -19.5 52t-50 19t-50 -19.5t-19.5 -51.5q0 -31 18.5 -50.5t51.5 -19.5z" />
<glyph unicode="&#xe6;" horiz-adv-x="1734" d="M53 301q0 344 619 344h33v25q0 184 -201 184q-100 0 -211 -59q-80 -35 -117 34l-18 37q-41 78 30 115q156 88 334 88q244 0 340 -154h4q125 154 346 154q217 0 340 -138t123 -358q0 -33 -26.5 -60.5t-63.5 -27.5h-631q12 -139 97.5 -213.5t210.5 -74.5q117 0 225 67 q80 39 117 -31l20 -38q41 -74 -27 -115q-164 -104 -354 -105q-299 0 -438 230h-4q-10 -25 -35 -57.5t-70 -73.5t-120.5 -69t-165.5 -28q-152 0 -254.5 87t-102.5 237zM963 645h450q-2 100 -60.5 160.5t-142.5 60.5q-98 0 -162.5 -58.5t-84.5 -162.5zM315 313q0 -57 41 -96 t119 -39q100 0 167 86t67 191v30h-72q-59 0 -110.5 -7t-101.5 -25.5t-80 -53.5t-30 -86z" />
<glyph unicode="&#xe7;" horiz-adv-x="1091" d="M508 -109l24 93q-213 31 -339.5 181t-126.5 357q0 229 156.5 388t410.5 159q193 0 342 -104q63 -43 16 -117l-26 -41q-39 -59 -115 -23q-96 63 -203 64q-141 0 -229 -93t-88 -230.5t90 -232.5t235 -95q121 0 234 79q78 43 117 -26l20 -39q39 -72 -22 -115 q-143 -109 -340 -119l-15 -67q68 -8 109 -47t41 -109q0 -94 -63.5 -137t-157.5 -43q-117 0 -117 70q0 33 12 52t31 19q8 0 24.5 -3t26.5 -3q76 0 76 60q0 49 -92 59q-47 4 -31 63z" />
<glyph unicode="&#xe8;" horiz-adv-x="1118" d="M66 522q0 242 147 394.5t383 152.5q217 0 340 -138t123 -360q0 -35 -26.5 -61.5t-63.5 -26.5h-637q12 -135 100 -210.5t213 -75.5q117 0 225 67q78 37 115 -28l25 -41q39 -74 -29 -115q-164 -104 -354 -105q-252 0 -406.5 159t-154.5 388zM338 641h463 q-2 106 -61.5 168.5t-149.5 62.5q-98 0 -166 -62.5t-86 -168.5zM561 1176q-61 0 -104 51l-92 125q-35 41 -23 71.5t66 30.5h75q66 0 101 -59l71 -125q23 -35 12.5 -64.5t-53.5 -29.5h-53z" />
<glyph unicode="&#xe9;" horiz-adv-x="1118" d="M580 1176q-45 0 -59.5 28.5t7.5 67.5l72 123q35 59 100 59h74q55 0 67.5 -30.5t-22.5 -71.5l-92 -125q-43 -51 -104 -51h-43zM66 522q0 242 147 394.5t383 152.5q217 0 340 -138t123 -360q0 -35 -26.5 -61.5t-63.5 -26.5h-637q12 -135 100 -210.5t213 -75.5q117 0 225 67 q78 37 115 -28l25 -41q39 -74 -29 -115q-164 -104 -354 -105q-252 0 -406.5 159t-154.5 388zM338 641h463q-2 106 -61.5 168.5t-149.5 62.5q-98 0 -166 -62.5t-86 -168.5z" />
<glyph unicode="&#xea;" horiz-adv-x="1118" d="M377 1176q-45 0 -55.5 29.5t18.5 74.5l82 119q37 55 104 55h127q68 0 105 -55l82 -119q29 -45 18.5 -74.5t-55.5 -29.5h-53q-35 0 -52.5 13t-38.5 46l-67 106h-4l-70 -106q-33 -59 -88 -59h-53zM66 522q0 242 147 394.5t383 152.5q217 0 340 -138t123 -360 q0 -35 -26.5 -61.5t-63.5 -26.5h-637q12 -135 100 -210.5t213 -75.5q117 0 225 67q78 37 115 -28l25 -41q39 -74 -29 -115q-164 -104 -354 -105q-252 0 -406.5 159t-154.5 388zM338 641h463q-2 106 -61.5 168.5t-149.5 62.5q-98 0 -166 -62.5t-86 -168.5z" />
<glyph unicode="&#xeb;" horiz-adv-x="1118" d="M764 1217q-84 0 -84 86v67q0 84 84 84h31q84 0 84 -84v-67q0 -86 -84 -86h-31zM389 1217q-86 0 -86 86v67q0 84 86 84h29q86 0 86 -84v-67q0 -86 -86 -86h-29zM66 522q0 242 147 394.5t383 152.5q217 0 340 -138t123 -360q0 -35 -26.5 -61.5t-63.5 -26.5h-637 q12 -135 100 -210.5t213 -75.5q117 0 225 67q78 37 115 -28l25 -41q39 -74 -29 -115q-164 -104 -354 -105q-252 0 -406.5 159t-154.5 388zM338 641h463q-2 106 -61.5 168.5t-149.5 62.5q-98 0 -166 -62.5t-86 -168.5z" />
<glyph unicode="&#xec;" horiz-adv-x="516" d="M129 86v872q0 86 84 86h90q84 0 84 -86v-872q0 -86 -84 -86h-90q-84 0 -84 86zM225 1176q-61 0 -104 51l-92 125q-35 41 -23 71.5t66 30.5h75q66 0 101 -59l71 -125q23 -35 13 -64.5t-53 -29.5h-54z" />
<glyph unicode="&#xed;" horiz-adv-x="516" d="M250 1176q-45 0 -59.5 28.5t8.5 67.5l71 123q35 59 101 59h73q55 0 67.5 -30.5t-22.5 -71.5l-92 -125q-43 -51 -104 -51h-43zM129 86v872q0 86 84 86h90q84 0 84 -86v-872q0 -86 -84 -86h-90q-84 0 -84 86z" />
<glyph unicode="&#xee;" horiz-adv-x="516" d="M47 1176q-45 0 -55 29.5t18 74.5l82 119q37 55 105 55h127q68 0 104 -55l82 -119q29 -45 18.5 -74.5t-55.5 -29.5h-53q-35 0 -52.5 13t-37.5 46l-68 106h-4l-70 -106q-33 -59 -88 -59h-53zM129 86v872q0 86 84 86h90q84 0 84 -86v-872q0 -86 -84 -86h-90q-84 0 -84 86z " />
<glyph unicode="&#xef;" horiz-adv-x="516" d="M432 1217q-84 0 -84 86v67q0 84 84 84h31q84 0 84 -84v-67q0 -86 -84 -86h-31zM57 1217q-86 0 -86 86v67q0 84 86 84h29q86 0 86 -84v-67q0 -86 -86 -86h-29zM129 86v872q0 86 84 86h90q84 0 84 -86v-872q0 -86 -84 -86h-90q-84 0 -84 86z" />
<glyph unicode="&#xf0;" horiz-adv-x="1185" d="M68 485q0 193 130 330t351 137q139 -2 219 -71h4q-57 135 -203 229l-282 -123q-43 -18 -62.5 -13t-34.5 38l-10 24q-25 55 49 86l177 78q-66 35 -152 57q-82 29 -55 109l14 45q29 80 106 57q209 -55 365 -151l207 90q43 14 61.5 9t30.5 -32l14 -30q25 -49 -47 -80 l-131 -60q281 -246 281 -645q0 -86 -17.5 -169t-58.5 -160.5t-101.5 -136t-151.5 -93.5t-204 -35q-229 0 -364 151.5t-135 358.5zM330 479q0 -117 63.5 -200.5t179.5 -83.5q131 0 198 98t67 229q0 100 -65.5 164t-176.5 64q-127 0 -196.5 -80t-69.5 -191z" />
<glyph unicode="&#xf1;" horiz-adv-x="1226" d="M129 86v872q0 86 84 86h80q84 0 84 -86v-63l-4 -47h4q43 86 136 153.5t235 67.5q365 0 364 -397v-586q0 -86 -86 -86h-88q-86 0 -86 86v532q0 104 -36 158.5t-128 54.5q-135 0 -218 -98t-83 -244v-403q0 -86 -84 -86h-90q-84 0 -84 86zM342 1178q-74 0 -74 77 q0 84 58.5 143.5t148.5 59.5q51 0 96 -20.5t70 -46t55.5 -46t59.5 -20.5q66 0 71 80q4 47 74 47h21q76 0 75 -70q0 -94 -57 -152.5t-149 -58.5q-68 0 -119 33t-89 67t-73 34q-70 0 -78 -82q-6 -45 -70 -45h-20z" />
<glyph unicode="&#xf2;" horiz-adv-x="1273" d="M63 522.5q0 237.5 166 392t408 154.5t408.5 -155.5t166.5 -391.5q0 -238 -166.5 -392.5t-408.5 -154.5t-408 155t-166 392.5zM328 522q0 -143 89 -234t220 -91t221 91t90 234q0 141 -91 233.5t-220 92.5t-219 -92.5t-90 -233.5zM602 1176q-61 0 -104 51l-92 125 q-35 41 -23 71.5t66 30.5h75q66 0 101 -59l71 -125q23 -35 12.5 -64.5t-53.5 -29.5h-53z" />
<glyph unicode="&#xf3;" horiz-adv-x="1273" d="M627 1176q-45 0 -59.5 28.5t7.5 67.5l72 123q35 59 101 59h73q55 0 67.5 -30.5t-22.5 -71.5l-92 -125q-43 -51 -104 -51h-43zM63 522.5q0 237.5 166 392t408 154.5t408.5 -155.5t166.5 -391.5q0 -238 -166.5 -392.5t-408.5 -154.5t-408 155t-166 392.5zM328 522 q0 -143 89 -234t220 -91t221 91t90 234q0 141 -91 233.5t-220 92.5t-219 -92.5t-90 -233.5z" />
<glyph unicode="&#xf4;" horiz-adv-x="1273" d="M424 1176q-45 0 -55.5 29.5t18.5 74.5l82 119q37 55 104 55h127q68 0 105 -55l82 -119q29 -45 18.5 -74.5t-55.5 -29.5h-53q-35 0 -52.5 13t-37.5 46l-68 106h-4l-70 -106q-33 -59 -88 -59h-53zM63 522.5q0 237.5 166 392t408 154.5t408.5 -155.5t166.5 -391.5 q0 -238 -166.5 -392.5t-408.5 -154.5t-408 155t-166 392.5zM328 522q0 -143 89 -234t220 -91t221 91t90 234q0 141 -91 233.5t-220 92.5t-219 -92.5t-90 -233.5z" />
<glyph unicode="&#xf5;" horiz-adv-x="1273" d="M63 522.5q0 237.5 166 392t408 154.5t408.5 -155.5t166.5 -391.5q0 -238 -166.5 -392.5t-408.5 -154.5t-408 155t-166 392.5zM328 522q0 -143 89 -234t220 -91t221 91t90 234q0 141 -91 233.5t-220 92.5t-219 -92.5t-90 -233.5zM346 1178q-74 0 -74 77q0 84 58.5 143.5 t148.5 59.5q51 0 96.5 -20.5t70 -46t55 -46t59.5 -20.5q66 0 71 80q4 47 74 47h21q76 0 75 -70q0 -94 -57 -152.5t-149 -58.5q-68 0 -119 33t-89 67t-73 34q-70 0 -78 -82q-6 -45 -69 -45h-21z" />
<glyph unicode="&#xf6;" horiz-adv-x="1273" d="M809 1217q-84 0 -84 86v67q0 84 84 84h31q84 0 84 -84v-67q0 -86 -84 -86h-31zM434 1217q-86 0 -86 86v67q0 84 86 84h29q86 0 86 -84v-67q0 -86 -86 -86h-29zM63 522.5q0 237.5 166 392t408 154.5t408.5 -155.5t166.5 -391.5q0 -238 -166.5 -392.5t-408.5 -154.5 t-408 155t-166 392.5zM328 522q0 -143 89 -234t220 -91t221 91t90 234q0 141 -91 233.5t-220 92.5t-219 -92.5t-90 -233.5z" />
<glyph unicode="&#xf7;" d="M602 895q-86 0 -86 84v51q0 86 86 86h64q86 0 86 -86v-51q0 -84 -86 -84h-64zM186 483q-86 0 -86 86v31q0 86 86 86h897q84 0 84 -86v-31q0 -86 -84 -86h-897zM516 139v51q0 86 86 86h64q86 0 86 -86v-51q0 -84 -86 -84h-64q-86 0 -86 84z" />
<glyph unicode="&#xf8;" horiz-adv-x="1275" d="M217 39l45 63q-197 154 -196 420q0 238 165.5 392.5t407.5 154.5q145 0 272 -63l33 47q49 68 107 30q57 -41 22 -86l-47 -65q188 -162 188 -410q0 -238 -166.5 -392.5t-408.5 -154.5q-143 0 -258 56l-35 -49q-49 -68 -106 -29q-58 41 -23 86zM408 305l366 510 q-66 33 -135 33q-129 0 -219 -92t-90 -234q0 -133 78 -217zM518 221q55 -25 121 -24q131 0 221 91t90 234q0 119 -71 203z" />
<glyph unicode="&#xf9;" horiz-adv-x="1216" d="M115 373v585q0 86 86 86h88q86 0 86 -86v-532q0 -104 35.5 -158.5t126.5 -54.5q135 0 213.5 102.5t78.5 249.5v393q0 86 86 86h89q86 0 86 -86v-872q0 -86 -86 -86h-80q-84 0 -84 86v61l4 48h-4q-41 -88 -139.5 -154t-223.5 -66q-362 1 -362 398zM571 1176q-61 0 -104 51 l-92 125q-35 41 -22.5 71.5t65.5 30.5h76q66 0 100 -59l72 -125q23 -35 12.5 -64.5t-53.5 -29.5h-54z" />
<glyph unicode="&#xfa;" horiz-adv-x="1216" d="M592 1176q-45 0 -59.5 28.5t8.5 67.5l71 123q35 59 101 59h73q55 0 67.5 -30.5t-22.5 -71.5l-92 -125q-43 -51 -104 -51h-43zM115 373v585q0 86 86 86h88q86 0 86 -86v-532q0 -104 35.5 -158.5t126.5 -54.5q135 0 213.5 102.5t78.5 249.5v393q0 86 86 86h89q86 0 86 -86 v-872q0 -86 -86 -86h-80q-84 0 -84 86v61l4 48h-4q-41 -88 -139.5 -154t-223.5 -66q-362 1 -362 398z" />
<glyph unicode="&#xfb;" horiz-adv-x="1216" d="M389 1176q-45 0 -55 29.5t18 74.5l82 119q37 55 105 55h127q68 0 104 -55l82 -119q29 -45 18.5 -74.5t-55.5 -29.5h-53q-35 0 -52.5 13t-37.5 46l-68 106h-4l-70 -106q-33 -59 -88 -59h-53zM115 373v585q0 86 86 86h88q86 0 86 -86v-532q0 -104 35.5 -158.5t126.5 -54.5 q135 0 213.5 102.5t78.5 249.5v393q0 86 86 86h89q86 0 86 -86v-872q0 -86 -86 -86h-80q-84 0 -84 86v61l4 48h-4q-41 -88 -139.5 -154t-223.5 -66q-362 1 -362 398z" />
<glyph unicode="&#xfc;" horiz-adv-x="1216" d="M774 1217q-84 0 -84 86v67q0 84 84 84h31q84 0 84 -84v-67q0 -86 -84 -86h-31zM399 1217q-86 0 -86 86v67q0 84 86 84h29q86 0 86 -84v-67q0 -86 -86 -86h-29zM115 373v585q0 86 86 86h88q86 0 86 -86v-532q0 -104 35.5 -158.5t126.5 -54.5q135 0 213.5 102.5t78.5 249.5 v393q0 86 86 86h89q86 0 86 -86v-872q0 -86 -86 -86h-80q-84 0 -84 86v61l4 48h-4q-41 -88 -139.5 -154t-223.5 -66q-362 1 -362 398z" />
<glyph unicode="&#xfd;" horiz-adv-x="1052" d="M49 -244q29 61 92 47q41 -18 74 -18q53 0 97 40t69 99l39 92l-397 928q-20 45 -2 72.5t67 27.5h111q72 0 96 -69l197 -533l38 -141h5q18 82 34 137l185 535q20 72 96 71h102q47 0 66.5 -26.5t3.5 -71.5l-430 -1102q-51 -137 -152.5 -205.5t-224.5 -68.5q-66 0 -145 31 q-37 14 -47.5 44.5t8.5 65.5zM520 1174q-45 0 -59.5 27.5t8.5 68.5l72 123q35 59 100 59h74q55 0 67.5 -30.5t-22.5 -71.5l-92 -125q-43 -51 -105 -51h-43z" />
<glyph unicode="&#xfe;" horiz-adv-x="1234" d="M131 -324v1692q0 86 86 86h88q86 0 86 -86v-360l-4 -86h4q37 41 59.5 62.5t94 53t153.5 31.5q211 0 340 -154.5t129 -392t-132 -392.5t-341 -155q-98 0 -174 36t-102 71l-27 35h-4q4 -37 4 -90v-351q0 -86 -86 -86h-88q-86 0 -86 86zM383 520q0 -152 71.5 -238.5 t192.5 -86.5q113 0 185.5 92t72.5 235.5t-70.5 234.5t-183.5 91q-119 0 -193.5 -80t-74.5 -248z" />
<glyph unicode="&#xff;" horiz-adv-x="1052" d="M49 -244q29 61 92 47q41 -18 74 -18q53 0 97 40t69 99l39 92l-397 928q-20 45 -2 72.5t67 27.5h111q72 0 96 -69l197 -533l38 -141h5q18 82 34 137l185 535q20 72 96 71h102q47 0 66.5 -26.5t3.5 -71.5l-430 -1102q-51 -137 -152.5 -205.5t-224.5 -68.5q-66 0 -145 31 q-37 14 -47.5 44.5t8.5 65.5zM705 1214q-84 0 -84 86v68q0 84 84 84h30q84 0 84 -84v-68q0 -86 -84 -86h-30zM330 1214q-86 0 -86 86v68q0 84 86 84h28q86 0 86 -84v-68q0 -86 -86 -86h-28z" />
<glyph unicode="&#x152;" horiz-adv-x="1961" d="M78 729q0 313 220 527t544 214q61 0 142 -8t116 -8h672q86 0 86 -86v-57q0 -84 -86 -84h-523v-381h406q86 0 86 -84v-57q0 -86 -86 -87h-406v-391h557q84 0 84 -84v-57q0 -86 -84 -86h-706q-35 0 -116 -9t-142 -9q-322 0 -543 217t-221 530zM350 729q0 -219 140.5 -369.5 t351.5 -150.5l145 16v1004q-61 16 -145 16q-211 0 -351.5 -149.5t-140.5 -366.5z" />
<glyph unicode="&#x153;" horiz-adv-x="2000" d="M63 520.5q0 241.5 164 395t402 153.5q279 0 432 -215h4q135 215 412 215q217 0 339.5 -138t122.5 -360q0 -35 -25.5 -61.5t-64.5 -26.5h-635q14 -135 102.5 -210.5t209.5 -75.5q115 0 227 67q76 39 115 -28l22 -41q39 -76 -28 -115q-160 -104 -355 -105q-293 0 -436 222 h-4q-156 -221 -438 -222q-240 0 -403 152t-163 393.5zM1221 641h456q-2 102 -59 164.5t-143 62.5q-100 0 -168 -62.5t-86 -164.5zM326 520.5q0 -145.5 90 -234.5t221 -89q129 0 219 90t90 235.5t-90 235.5t-219 90q-131 0 -221 -91t-90 -236.5z" />
<glyph unicode="&#x178;" horiz-adv-x="1187" d="M463 86v522l-426 744q-27 43 -9.5 72.5t66.5 29.5h115q68 0 98 -63l197 -365l88 -195h4q43 104 88 195l197 365q31 63 98 63h115q51 0 67.5 -29.5t-8.5 -72.5l-428 -744v-522q0 -86 -84 -86h-92q-86 0 -86 86zM764 1591q-84 0 -84 86v68q0 84 84 84h31q84 0 84 -84v-68 q0 -86 -84 -86h-31zM389 1591q-86 0 -86 86v68q0 84 86 84h29q86 0 86 -84v-68q0 -86 -86 -86h-29z" />
<glyph unicode="&#x2c6;" horiz-adv-x="1011" d="M293 1550q-45 0 -55.5 30t18.5 75l82 119q37 55 104 55h127q68 0 105 -55l82 -119q29 -45 18.5 -75t-55.5 -30h-53q-35 0 -52.5 13.5t-38.5 46.5l-67 106h-4l-70 -106q-33 -59 -88 -60h-53z" />
<glyph unicode="&#x2dc;" horiz-adv-x="1009" d="M215 1552q-74 0 -74 78q0 84 58.5 143.5t148.5 59.5q66 0 118 -34t90 -66.5t73 -32.5q66 0 71 80q4 47 74 47h21q76 0 75 -70q0 -94 -57 -152.5t-149 -58.5q-68 0 -119 34t-89 66.5t-73 32.5q-70 0 -78 -82q-6 -45 -69 -45h-21z" />
<glyph unicode="&#x2000;" horiz-adv-x="923" />
<glyph unicode="&#x2001;" horiz-adv-x="1847" />
<glyph unicode="&#x2002;" horiz-adv-x="923" />
<glyph unicode="&#x2003;" horiz-adv-x="1847" />
<glyph unicode="&#x2004;" horiz-adv-x="615" />
<glyph unicode="&#x2005;" horiz-adv-x="461" />
<glyph unicode="&#x2006;" horiz-adv-x="307" />
<glyph unicode="&#x2007;" horiz-adv-x="307" />
<glyph unicode="&#x2008;" horiz-adv-x="230" />
<glyph unicode="&#x2009;" horiz-adv-x="369" />
<glyph unicode="&#x200a;" horiz-adv-x="102" />
<glyph unicode="&#x2010;" horiz-adv-x="854" d="M205 471q-86 0 -86 86v57q0 84 86 84h444q86 0 86 -84v-57q0 -86 -86 -86h-444z" />
<glyph unicode="&#x2011;" horiz-adv-x="854" d="M205 471q-86 0 -86 86v57q0 84 86 84h444q86 0 86 -84v-57q0 -86 -86 -86h-444z" />
<glyph unicode="&#x2012;" horiz-adv-x="854" d="M205 471q-86 0 -86 86v57q0 84 86 84h444q86 0 86 -84v-57q0 -86 -86 -86h-444z" />
<glyph unicode="&#x2013;" horiz-adv-x="1374" d="M205 483q-84 0 -84 86v31q0 86 84 86h964q84 0 84 -86v-31q0 -86 -84 -86h-964z" />
<glyph unicode="&#x2014;" horiz-adv-x="1783" d="M205 483q-84 0 -84 86v31q0 86 84 86h1374q84 0 84 -86v-31q0 -86 -84 -86h-1374z" />
<glyph unicode="&#x2018;" horiz-adv-x="444" d="M152 1004q-47 0 -66.5 25.5t-3.5 70.5l102 311q29 68 99 68h20q90 0 70 -93l-70 -307q-14 -76 -92 -75h-59z" />
<glyph unicode="&#x2019;" horiz-adv-x="440" d="M156 1004q-90 0 -70 92l70 307q14 76 92 76h57q47 0 66.5 -26t5.5 -71l-105 -311q-25 -68 -96 -67h-20z" />
<glyph unicode="&#x201a;" horiz-adv-x="473" d="M68 -119l69 307q14 76 92 76h60q47 0 66.5 -26.5t2.5 -71.5l-102 -309q-27 -68 -98 -68h-21q-89 0 -69 92z" />
<glyph unicode="&#x201c;" horiz-adv-x="786" d="M494 1004q-47 0 -66.5 25.5t-3.5 70.5l102 311q27 68 99 68h22q88 0 68 -93l-68 -307q-18 -76 -94 -75h-59zM152 1004q-47 0 -66.5 25.5t-3.5 70.5l102 311q29 68 99 68h22q86 0 70 -93l-70 -307q-18 -76 -92 -75h-61z" />
<glyph unicode="&#x201d;" horiz-adv-x="782" d="M498 1004q-90 0 -70 92l70 307q14 76 92 76h59q47 0 66.5 -26t3.5 -71l-103 -311q-25 -68 -98 -67h-20zM156 1004q-90 0 -70 92l70 307q14 76 92 76h59q47 0 66.5 -26t3.5 -71l-103 -311q-25 -68 -98 -67h-20z" />
<glyph unicode="&#x201e;" horiz-adv-x="815" d="M410 -119l69 307q14 76 92 76h60q47 0 66.5 -26.5t2.5 -71.5l-102 -309q-23 -68 -96 -68h-23q-89 0 -69 92zM68 -119l69 307q14 76 92 76h60q47 0 66.5 -26.5t2.5 -71.5l-102 -309q-23 -68 -96 -68h-23q-89 0 -69 92z" />
<glyph unicode="&#x2022;" horiz-adv-x="872" d="M436.5 254q-141.5 0 -242 100.5t-100.5 241.5t100.5 241.5t242 100.5t241.5 -100.5t100 -241.5t-100 -241.5t-241.5 -100.5z" />
<glyph unicode="&#x2026;" horiz-adv-x="1644" d="M1280 86v92q0 84 84 84h84q84 0 84 -84v-92q0 -86 -84 -86h-84q-84 0 -84 86zM696 86v92q0 84 84 84h84q86 0 86 -84v-92q0 -86 -86 -86h-84q-84 0 -84 86zM113 86v92q0 84 86 84h82q86 0 86 -84v-92q0 -86 -86 -86h-82q-86 0 -86 86z" />
<glyph unicode="&#x202f;" horiz-adv-x="369" />
<glyph unicode="&#x2039;" horiz-adv-x="673" d="M348 207l-248 311q-49 59 0 119l248 313q43 49 105 49h51q53 0 67.5 -30.5t-18.5 -73.5l-252 -317l252 -316q35 -43 22.5 -73.5t-63.5 -30.5h-59q-62 0 -105 49z" />
<glyph unicode="&#x203a;" horiz-adv-x="673" d="M170 158q-53 0 -67.5 30.5t18.5 73.5l252 316l-252 317q-35 43 -22.5 73.5t63.5 30.5h59q61 0 105 -49l247 -313q49 -59 0 -119l-247 -311q-43 -49 -105 -49h-51z" />
<glyph unicode="&#x205f;" horiz-adv-x="461" />
<glyph unicode="&#x20ac;" horiz-adv-x="1234" d="M154 512q-78 0 -78 78t78 78h36q-10 51 -2 127h-32q-80 0 -80 79q0 78 80 78h61q68 233 259.5 380t441.5 147q45 0 131 -11q88 -12 65 -102l-20 -76q-20 -76 -86 -65q-49 8 -97 8q-145 0 -254.5 -75t-156.5 -206h426q94 0 80 -80q-8 -43 -30 -60t-65 -17h-448 q-10 -61 0 -127h407q96 0 80 -80q-10 -43 -30.5 -59.5t-63.5 -16.5h-346q49 -131 159.5 -209t252.5 -78q49 0 106 8q86 12 98 -63l17 -78q16 -86 -66 -100q-78 -16 -159 -17q-260 0 -448.5 147.5t-252.5 389.5h-63z" />
<glyph unicode="&#x2122;" horiz-adv-x="2000" d="M942 635l59 737q6 82 89 82h28q72 0 99 -65l159 -363l27 -86h4q14 51 29 86l159 363q27 66 99 65h28q82 0 88 -82l58 -737q4 -88 -82 -88h-27q-80 0 -86 82l-28 385l2 63h-5l-133 -299q-27 -66 -98 -65h-12q-70 0 -96 65l-134 299h-4l2 -63l-30 -385q-6 -82 -88 -82h-25 q-88 0 -82 88zM469 547q-86 0 -86 84v651h-219q-84 0 -84 80v12q0 80 84 80h631q86 0 86 -80v-12q0 -80 -86 -80h-217v-651q0 -84 -84 -84h-25z" />
<glyph unicode="&#xe000;" horiz-adv-x="1045" d="M0 1045h1045v-1045h-1045v1045z" />
<glyph unicode="&#xfb01;" horiz-adv-x="1208" d="M184 86v752h-51q-84 0 -84 86v34q0 86 84 86h51v35q0 94 32 167t78 112t104.5 64.5t102.5 32.5t83 7h30q84 0 84 -86v-53q0 -78 -88 -84q-31 -2 -53 -7t-52 -21.5t-45.5 -52.5t-15.5 -89v-25h551q86 0 86 -86v-872q0 -86 -86 -86h-90q-84 0 -84 86v752h-377v-752 q0 -86 -86 -86h-90q-84 0 -84 86zM905 1223q-84 0 -84 84v61q0 86 84 86h90q86 0 86 -86v-61q0 -84 -86 -84h-90z" />
<glyph unicode="&#xfb02;" horiz-adv-x="1265" d="M819 326v1042q0 86 84 86h90q84 0 84 -86v-1022q0 -117 82 -125q63 -6 64 -74v-69q0 -88 -86 -88q-61 0 -109.5 11t-99.5 43t-80 104t-29 178zM184 86v737h-51q-84 0 -84 86v35q0 86 84 86h51v49q0 94 32 167t78 112t104.5 64.5t102.5 32.5t83 7h30q84 0 84 -86v-53 q0 -78 -88 -84q-31 -2 -53 -7t-52 -21.5t-45.5 -52.5t-15.5 -89v-39h140q84 0 84 -86v-35q0 -86 -84 -86h-140v-737q0 -86 -86 -86h-90q-84 0 -84 86z" />
<glyph unicode="&#xfb03;" horiz-adv-x="1902" d="M184 86l-6 752h-45q-84 0 -84 86v34q0 86 84 86h45l6 35q0 94 32 167t78 112t104.5 64.5t102.5 32.5t83 7h30q84 0 84 -86v-53q0 -78 -88 -84q-31 -2 -53 -7t-52 -21.5t-45.5 -52.5t-15.5 -89v-25h433v35q0 94 31.5 167t77.5 112t104.5 64.5t103.5 32.5t84 7h29 q84 0 84 -86v-53q0 -78 -88 -84q-31 -2 -53.5 -7t-52.5 -21.5t-45 -52.5t-15 -89v-25h551q86 0 86 -86v-872q0 -86 -86 -86h-89q-86 0 -86 86v752h-376v-752q0 -86 -86 -86h-88q-86 0 -86 86v752h-433v-752q0 -86 -86 -86h-90q-84 0 -84 86zM1513 1307v61q0 86 86 86h89 q86 0 86 -86v-61q0 -84 -86 -84h-89q-86 0 -86 84z" />
<glyph unicode="&#xfb04;" horiz-adv-x="1957" d="M184 86l-6 752h-43q-86 0 -86 86v34q0 86 86 86h43l6 35q0 94 32 167t78 112t104.5 64.5t103.5 32.5t84 7h28q86 0 86 -86v-53q0 -78 -88 -84q-33 -2 -55 -7t-52 -21.5t-45.5 -52.5t-15.5 -89v-25h433v35q0 94 31.5 167t77.5 112t104.5 64.5t103.5 32.5t84 7h29 q86 0 86 -86v-53q0 -78 -88 -84q-31 -2 -54.5 -7t-52.5 -21.5t-45 -52.5t-16 -89v-25h139q86 0 86 -86v-34q0 -86 -74 -86h-151v-752q0 -86 -84 -86h-90q-86 0 -86 86v752h-433v-752q0 -86 -86 -86h-88q-86 0 -86 86zM1513 326v1042q0 86 84 86h91q84 0 84 -86v-1022 q0 -117 81 -125q63 -6 64 -74v-69q0 -88 -88 -88q-61 0 -108.5 11t-98.5 43t-80 104t-29 178z" />
</font>
</defs>
</svg>
