<svg xmlns="http://www.w3.org/2000/svg" width="190" height="200" viewBox="0 -12 190 200"><path fill="#fff" d="M109.218 116.352c0-2.883 1.496-4.486 4.378-4.486h21.465c23.39 0 38.658 13.884 38.658 37.804s-15.27 38.018-38.657 38.018h-21.464c-2.882 0-4.378-1.495-4.378-4.487v-66.848zm25.094 59.48c15.378 0 25.2-9.073 25.2-26.162 0-16.87-10.036-25.952-25.2-25.952h-11.426v52.115h11.426z"/><path fill="#fff" d="M63.704 16.832c0-13.228 17.028-21.402 28.238-28.196C100.75-6 121.292 3.704 121.296 17.622c.006 15.45-6.426 40.632-11.54 40.74-5.563.123-13.248-31.916-17.34-31.833-4.087.086-11.7 31.963-16.83 31.956-5.572-.01-11.882-27.26-11.882-41.654"/><path fill="#fff" d="M18.088 91.444C5.508 87.354 2.996 68.634 0 55.874c7.823-6.72 23.4-23.258 36.64-18.962 14.692 4.77 36.655 18.666 35.178 23.566-1.6 5.327-34.448 2.736-35.63 6.652C35 71.046 62.968 88.135 61.376 93.016c-1.73 5.29-29.597 2.874-43.288-1.572"/><path fill="#fff" d="M74.95 157.88c-7.776 10.698-26.353 7.304-39.416 6.214-3.975-9.518-14.888-29.446-6.713-40.707 9.08-12.5 29.083-29.09 33.284-26.174 4.57 3.166-8.043 33.606-4.68 35.942 3.355 2.34 28.253-18.98 32.4-15.955 4.5 3.278-6.41 29.034-14.873 40.68"/><path fill="#fff" d="M148.755 37.152c12.582-4.085 25.618 9.583 35.544 18.146-2.38 10.032-5.26 32.57-18.496 36.874-14.694 4.78-40.63 6.446-42.313 1.617-1.836-5.254 26.26-22.47 24.916-26.332-1.34-3.862-34.016-1.25-35.592-6.132-1.715-5.305 22.253-19.724 35.94-24.174"/></svg>
