<svg xmlns="http://www.w3.org/2000/svg" width="518.74" height="246.549" viewBox="0 0 518.74 246.549"><g fill="#213365"><path d="M89.478 181.41a36.537 36.537 0 0 1 6.004-.488c4.061 0 6.946.977 8.861 2.728 1.979 1.785 3.117 4.32 3.117 7.86 0 3.568-1.138 6.49-3.148 8.499-2.078 2.046-5.451 3.148-9.706 3.148-2.045 0-3.701-.095-5.127-.257v-21.49zm2.826 19.349c.712.099 1.75.13 2.854.13 6.071 0 9.318-3.378 9.318-9.284.032-5.163-2.89-8.442-8.865-8.442-1.459 0-2.563.13-3.306.294v17.302zM114.875 182.838c0 .976-.682 1.757-1.82 1.757-1.039 0-1.721-.781-1.721-1.757 0-.973.713-1.785 1.789-1.785 1.037 0 1.752.781 1.752 1.785zm-3.185 20.13v-15.713h2.858v15.713h-2.858zM133.414 200.659c0 3.636-.75 5.813-2.242 7.208-1.558 1.395-3.766 1.88-5.749 1.88-1.88 0-3.957-.453-5.225-1.297l.714-2.207c1.039.682 2.664 1.268 4.615 1.268 2.918 0 5.059-1.527 5.059-5.519v-1.722h-.065c-.84 1.459-2.56 2.629-4.994 2.629-3.902 0-6.692-3.31-6.692-7.661 0-5.324 3.473-8.31 7.113-8.31 2.726 0 4.188 1.398 4.899 2.692h.064l.1-2.366h2.532c-.099 1.102-.129 2.398-.129 4.286v9.119zm-2.859-7.208c0-.482-.033-.904-.159-1.264-.522-1.685-1.887-3.049-3.997-3.049-2.728 0-4.67 2.302-4.67 5.94 0 3.083 1.586 5.646 4.639 5.646 1.783 0 3.377-1.103 3.96-2.917.163-.489.227-1.04.227-1.528v-2.828zM141.798 182.838c0 .976-.682 1.757-1.815 1.757-1.04 0-1.722-.781-1.722-1.757 0-.973.714-1.785 1.785-1.785 1.037 0 1.752.781 1.752 1.785zm-3.18 20.13v-15.713h2.854v15.713h-2.854zM150.338 183.489v3.766h4.092v2.176h-4.092v8.469c0 1.951.556 3.054 2.146 3.054.779 0 1.231-.064 1.653-.194l.135 2.175c-.557.192-1.433.39-2.539.39-1.328 0-2.402-.456-3.081-1.207-.781-.872-1.107-2.267-1.107-4.119v-8.568h-2.433v-2.176h2.433v-2.922l2.793-.844zM169.371 199.2c0 1.364.063 2.697.229 3.768h-2.569l-.225-1.983h-.101c-.872 1.234-2.562 2.34-4.801 2.34-3.184 0-4.807-2.245-4.807-4.514 0-3.798 3.375-5.874 9.45-5.842v-.326c0-1.269-.357-3.636-3.573-3.603-1.496 0-3.017.425-4.124 1.168l-.646-1.914c1.296-.814 3.21-1.365 5.195-1.365 4.8 0 5.971 3.279 5.971 6.396v5.875zm-2.761-4.254c-3.116-.062-6.653.489-6.653 3.542 0 1.878 1.229 2.728 2.662 2.728 2.078 0 3.404-1.301 3.865-2.633.094-.325.126-.65.126-.907v-2.73zM174.667 179.916h2.858v23.052h-2.858v-23.052zM190.685 181.379c1.427-.258 3.503-.458 5.416-.458 3.02 0 5.003.586 6.332 1.785 1.074.977 1.72 2.472 1.72 4.188 0 2.858-1.821 4.772-4.087 5.554v.099c1.651.579 2.659 2.142 3.179 4.414.712 3.048 1.232 5.157 1.688 6.007h-2.926c-.357-.65-.84-2.502-1.428-5.227-.65-3.021-1.848-4.155-4.412-4.255h-2.66v9.481h-2.822v-21.588zm2.822 9.963h2.886c3.021 0 4.932-1.653 4.932-4.155 0-2.822-2.041-4.056-5.027-4.056-1.365 0-2.307.1-2.791.226v7.985zM210.461 195.628c.062 3.867 2.497 5.452 5.388 5.452 2.046 0 3.31-.356 4.348-.809l.521 2.047c-1.003.451-2.76 1.007-5.261 1.007-4.834 0-7.724-3.215-7.724-7.954 0-4.742 2.791-8.442 7.366-8.442 5.164 0 6.496 4.48 6.496 7.371 0 .584-.033 1.004-.096 1.328h-11.038zm8.373-2.042c.033-1.789-.746-4.615-3.958-4.615-2.926 0-4.154 2.634-4.385 4.615h8.343zM225.431 200.076c.881.52 2.371 1.104 3.799 1.104 2.046 0 3.021-1.003 3.021-2.336 0-1.364-.813-2.078-2.89-2.858-2.859-1.04-4.188-2.566-4.188-4.445 0-2.534 2.079-4.612 5.421-4.612 1.593 0 2.99.426 3.83.972l-.683 2.077a6.082 6.082 0 0 0-3.21-.938c-1.689 0-2.596.971-2.596 2.145 0 1.296.907 1.879 2.953 2.692 2.697 1.008 4.125 2.367 4.125 4.706 0 2.792-2.179 4.743-5.845 4.743-1.721 0-3.312-.456-4.417-1.106l.68-2.144zM240.957 195.628c.065 3.867 2.5 5.452 5.389 5.452 2.045 0 3.31-.356 4.35-.809l.519 2.047c-1.003.451-2.759 1.007-5.261 1.007-4.832 0-7.723-3.215-7.723-7.954 0-4.742 2.792-8.442 7.367-8.442 5.162 0 6.495 4.48 6.495 7.371 0 .584-.032 1.004-.097 1.328h-11.039zm8.375-2.042c.032-1.789-.745-4.615-3.957-4.615-2.927 0-4.156 2.634-4.385 4.615h8.342zM267.354 199.2c0 1.364.069 2.697.23 3.768h-2.564l-.226-1.983h-.1c-.876 1.234-2.565 2.34-4.8 2.34-3.185 0-4.807-2.245-4.807-4.514 0-3.798 3.374-5.874 9.445-5.842v-.326c0-1.269-.357-3.636-3.568-3.603-1.496 0-3.022.425-4.124 1.168l-.651-1.914c1.301-.814 3.211-1.365 5.194-1.365 4.805 0 5.97 3.279 5.97 6.396v5.875zm-2.758-4.254c-3.117-.062-6.654.489-6.654 3.542 0 1.878 1.233 2.728 2.664 2.728 2.079 0 3.407-1.301 3.862-2.633.096-.325.127-.65.127-.907v-2.73zM272.655 192.155c0-1.853-.031-3.442-.129-4.9h2.501l.13 3.116h.096c.714-2.114 2.466-3.442 4.384-3.442.291 0 .516.033.777.064v2.696c-.294-.068-.586-.068-.974-.068-2.014 0-3.442 1.495-3.831 3.64-.062.39-.095.873-.095 1.327v8.38h-2.859v-10.813zM294.835 202.413c-.749.356-2.403.912-4.513.912-4.737 0-7.823-3.215-7.823-8.021 0-4.833 3.307-8.375 8.437-8.375 1.689 0 3.181.426 3.965.845l-.65 2.172c-.682-.356-1.752-.745-3.315-.745-3.6 0-5.55 2.697-5.55 5.94 0 3.638 2.34 5.875 5.456 5.875a8.158 8.158 0 0 0 3.504-.746l.489 2.143zM298.867 179.916h2.854v9.836h.067a5.341 5.341 0 0 1 2.046-2.041 5.802 5.802 0 0 1 2.922-.783c2.108 0 5.486 1.297 5.486 6.69v9.349h-2.858v-9.024c0-2.535-.939-4.648-3.636-4.648-1.847 0-3.278 1.301-3.83 2.827-.163.424-.198.846-.198 1.363v9.481h-2.854v-23.05zM328.062 181.085v21.882h-2.853v-21.882h2.853zM333.911 191.51c0-1.659-.031-2.958-.13-4.255h2.534l.162 2.596h.065c.779-1.458 2.6-2.922 5.192-2.922 2.176 0 5.551 1.297 5.551 6.69v9.349h-2.855v-9.061c0-2.533-.943-4.643-3.634-4.643-1.852 0-3.312 1.333-3.831 2.923-.131.36-.194.845-.194 1.332v9.449h-2.859V191.51zM352.916 202.968v-13.537h-2.177v-2.176h2.177v-.75c0-2.205.514-4.219 1.815-5.484 1.07-1.038 2.497-1.462 3.829-1.462 1.039 0 1.883.23 2.435.456l-.389 2.209c-.42-.198-.974-.358-1.814-.358-2.436 0-3.053 2.109-3.053 4.545v.845h3.798v2.176h-3.798v13.537h-2.823zM362.787 192.155c0-1.853-.032-3.442-.13-4.9h2.501l.125 3.116h.097c.718-2.114 2.471-3.442 4.385-3.442.294 0 .52.033.777.064v2.696c-.289-.068-.581-.068-.971-.068-2.009 0-3.441 1.495-3.834 3.64a8.75 8.75 0 0 0-.096 1.327v8.38h-2.854v-10.813zM384.967 199.2c0 1.364.062 2.697.221 3.768h-2.561l-.23-1.983h-.096c-.875 1.234-2.561 2.34-4.805 2.34-3.18 0-4.807-2.245-4.807-4.514 0-3.798 3.379-5.874 9.45-5.842v-.326c0-1.269-.356-3.636-3.572-3.603-1.492 0-3.018.425-4.124 1.168l-.646-1.914c1.295-.814 3.214-1.365 5.193-1.365 4.802 0 5.976 3.279 5.976 6.396v5.875zm-2.76-4.254c-3.115-.062-6.657.489-6.657 3.542 0 1.878 1.233 2.728 2.661 2.728 2.078 0 3.409-1.301 3.861-2.633a3.05 3.05 0 0 0 .134-.907v-2.73zM389.875 200.076c.876.52 2.371 1.104 3.799 1.104 2.045 0 3.021-1.003 3.021-2.336 0-1.364-.817-2.078-2.896-2.858-2.854-1.04-4.186-2.566-4.186-4.445 0-2.534 2.078-4.612 5.424-4.612 1.589 0 2.985.426 3.83.972l-.681 2.077c-.619-.388-1.752-.938-3.211-.938-1.69 0-2.602.971-2.602 2.145 0 1.296.912 1.879 2.958 2.692 2.692 1.008 4.123 2.367 4.123 4.706 0 2.792-2.179 4.743-5.842 4.743-1.721 0-3.316-.456-4.417-1.106l.68-2.144zM407.248 183.489v3.766h4.093v2.176h-4.093v8.469c0 1.951.555 3.054 2.141 3.054.78 0 1.238-.064 1.658-.194l.126 2.175c-.546.192-1.427.39-2.529.39-1.333 0-2.402-.456-3.084-1.207-.777-.872-1.102-2.267-1.102-4.119v-8.568h-2.435v-2.176h2.435v-2.922l2.79-.844zM415.241 192.155c0-1.853-.033-3.442-.131-4.9h2.501l.127 3.116h.096c.717-2.114 2.47-3.442 4.384-3.442.295 0 .521.033.777.064v2.696c-.29-.068-.581-.068-.971-.068-2.011 0-3.442 1.495-3.834 3.64a8.75 8.75 0 0 0-.096 1.327v8.38h-2.854v-10.813zM439.688 198.646c0 1.657.035 3.084.134 4.322h-2.537l-.159-2.57h-.062c-.715 1.269-2.404 2.927-5.193 2.927-2.472 0-5.425-1.397-5.425-6.884v-9.186h2.854v8.667c0 2.985.944 5.032 3.51 5.032 1.915 0 3.248-1.333 3.763-2.633.167-.389.262-.904.262-1.459v-9.606h2.854v11.39zM456.32 202.413c-.748.356-2.403.912-4.514.912-4.736 0-7.82-3.215-7.82-8.021 0-4.833 3.307-8.375 8.437-8.375 1.69 0 3.18.426 3.966.845l-.651 2.172c-.682-.356-1.752-.745-3.314-.745-3.599 0-5.55 2.697-5.55 5.94 0 3.638 2.339 5.875 5.455 5.875a8.17 8.17 0 0 0 3.504-.746l.487 2.143zM464.215 183.489v3.766h4.092v2.176h-4.092v8.469c0 1.951.554 3.054 2.145 3.054.78 0 1.232-.064 1.654-.194l.133 2.175c-.555.192-1.431.39-2.536.39-1.329 0-2.403-.456-3.082-1.207-.779-.872-1.105-2.267-1.105-4.119v-8.568h-2.435v-2.176h2.435v-2.922l2.791-.844zM485.355 198.646c0 1.657.031 3.084.13 4.322h-2.534l-.158-2.57h-.067c-.713 1.269-2.401 2.927-5.194 2.927-2.471 0-5.42-1.397-5.42-6.884v-9.186h2.855v8.667c0 2.985.943 5.032 3.506 5.032 1.917 0 3.246-1.333 3.765-2.633.163-.389.262-.904.262-1.459v-9.606h2.856v11.39zM490.785 192.155c0-1.853-.03-3.442-.125-4.9h2.497l.126 3.116h.102c.716-2.114 2.469-3.442 4.38-3.442.293 0 .522.033.78.064v2.696c-.289-.068-.582-.068-.971-.068-2.016 0-3.442 1.495-3.831 3.64-.066.39-.102.873-.102 1.327v8.38h-2.856v-10.813zM503.354 195.628c.063 3.867 2.504 5.452 5.393 5.452 2.045 0 3.306-.356 4.345-.809l.523 2.047c-1.007.451-2.758 1.007-5.257 1.007-4.837 0-7.731-3.215-7.731-7.954 0-4.742 2.79-8.442 7.372-8.442 5.16 0 6.489 4.48 6.489 7.371 0 .584-.031 1.004-.096 1.328h-11.038zm8.374-2.042c.037-1.789-.745-4.615-3.957-4.615-2.921 0-4.153 2.634-4.384 4.615h8.341zM89.669 241.94v-13.536h-2.172v-2.175h2.172v-.746c0-2.207.524-4.222 1.82-5.488 1.071-1.038 2.501-1.458 3.83-1.458 1.038 0 1.883.226 2.434.457l-.388 2.204c-.424-.194-.976-.357-1.82-.357-2.433 0-3.053 2.11-3.053 4.544v.845h3.798v2.175h-3.798v13.536h-2.823zM114.838 233.955c0 5.813-4.06 8.342-7.827 8.342-4.218 0-7.532-3.116-7.532-8.08 0-5.229 3.472-8.31 7.794-8.31 4.511 0 7.565 3.276 7.565 8.048zm-12.433.164c0 3.437 1.941 6.038 4.737 6.038 2.724 0 4.769-2.565 4.769-6.106 0-2.661-1.33-6.003-4.7-6.003-3.347 0-4.806 3.117-4.806 6.071zM120.623 231.134c0-1.852-.033-3.442-.13-4.904h2.501l.13 3.116h.096c.712-2.109 2.466-3.438 4.385-3.438.289 0 .516.031.777.063v2.697c-.293-.067-.587-.067-.975-.067-2.015 0-3.441 1.494-3.831 3.635a8.78 8.78 0 0 0-.095 1.333v8.372h-2.858v-10.807zM145.923 222.466v3.764h4.09v2.175h-4.09v8.473c0 1.946.553 3.049 2.144 3.049.782 0 1.233-.064 1.654-.193l.134 2.176c-.555.193-1.432.388-2.538.388-1.327 0-2.402-.451-3.08-1.202-.78-.875-1.106-2.272-1.106-4.119v-8.572h-2.435v-2.175h2.435v-2.922l2.792-.842zM155.404 218.895h2.859v9.836h.068a5.299 5.299 0 0 1 2.046-2.046 5.81 5.81 0 0 1 2.918-.778c2.109 0 5.487 1.296 5.487 6.685v9.348h-2.855v-9.023c0-2.534-.943-4.643-3.639-4.643-1.847 0-3.274 1.296-3.83 2.827-.158.42-.195.84-.195 1.359v9.479h-2.859v-23.044zM177.204 234.605c.064 3.863 2.499 5.453 5.385 5.453 2.046 0 3.313-.357 4.353-.814l.516 2.046c-1.003.456-2.759 1.007-5.256 1.007-4.837 0-7.724-3.21-7.724-7.952 0-4.738 2.791-8.438 7.366-8.438 5.162 0 6.495 4.477 6.495 7.366 0 .587-.031 1.008-.1 1.332h-11.035zm8.373-2.043c.033-1.785-.744-4.612-3.96-4.612-2.921 0-4.155 2.628-4.382 4.612h8.342zM206.757 235.058l-2.276 6.882h-2.917l7.464-21.876h3.374l7.47 21.876h-3.021l-2.339-6.882h-7.755zm7.209-2.204l-2.181-6.3c-.484-1.427-.81-2.725-1.134-3.993h-.064c-.326 1.268-.652 2.63-1.103 3.961l-2.146 6.332h6.628zM225.075 231.134c0-1.852-.033-3.442-.127-4.904h2.499l.129 3.116h.101c.712-2.109 2.464-3.438 4.38-3.438.29 0 .52.031.781.063v2.697c-.292-.067-.586-.067-.974-.067-2.015 0-3.443 1.494-3.831 3.635a8.758 8.758 0 0 0-.099 1.333v8.372h-2.858v-10.807zM242.091 222.466v3.764h4.092v2.175h-4.092v8.473c0 1.946.554 3.049 2.145 3.049.781 0 1.233-.064 1.654-.193l.135 2.176c-.556.193-1.432.388-2.537.388-1.329 0-2.404-.451-3.082-1.202-.781-.875-1.105-2.272-1.105-4.119v-8.572h-2.436v-2.175h2.436v-2.922l2.79-.842zM251.19 239.055c.877.515 2.368 1.102 3.8 1.102 2.041 0 3.016-1.007 3.016-2.34 0-1.363-.809-2.077-2.887-2.854-2.859-1.038-4.186-2.565-4.186-4.446 0-2.532 2.076-4.608 5.416-4.608 1.592 0 2.987.421 3.833.971l-.681 2.079a6.069 6.069 0 0 0-3.216-.94c-1.688 0-2.594.971-2.594 2.141 0 1.302.906 1.883 2.951 2.696 2.695 1.007 4.124 2.366 4.124 4.702 0 2.796-2.173 4.742-5.845 4.742-1.721 0-3.305-.451-4.414-1.102l.683-2.143zM286.715 238.174c0 1.365.067 2.696.227 3.767h-2.563l-.229-1.982h-.096c-.88 1.237-2.57 2.339-4.805 2.339-3.18 0-4.806-2.239-4.806-4.512 0-3.797 3.377-5.875 9.444-5.844v-.325c0-1.264-.357-3.632-3.568-3.599-1.491 0-3.022.419-4.124 1.166l-.649-1.915c1.298-.813 3.214-1.361 5.192-1.361 4.806 0 5.975 3.275 5.975 6.393v5.873zm-2.759-4.25c-3.118-.064-6.658.483-6.658 3.536 0 1.884 1.237 2.728 2.665 2.728 2.077 0 3.41-1.299 3.861-2.632.1-.321.132-.647.132-.905v-2.727zM293.506 230.482c0-1.658-.031-2.953-.126-4.253h2.529l.167 2.595h.063c.778-1.459 2.597-2.917 5.193-2.917 2.174 0 5.552 1.296 5.552 6.685v9.348h-2.856v-9.054c0-2.534-.943-4.643-3.64-4.643-1.847 0-3.306 1.327-3.829 2.921-.128.357-.194.84-.194 1.332v9.444h-2.859v-11.458zM327.248 218.895v18.987c0 1.395.064 2.988.129 4.059h-2.533l-.125-2.727h-.1c-.845 1.752-2.724 3.084-5.293 3.084-3.797 0-6.748-3.21-6.748-7.984-.033-5.225 3.242-8.406 7.041-8.406 2.435 0 4.029 1.134 4.743 2.367h.063v-9.38h2.823zm-2.824 13.728c0-.357-.031-.84-.126-1.2-.424-1.784-1.983-3.279-4.124-3.279-2.957 0-4.709 2.601-4.709 6.037 0 3.185 1.592 5.814 4.642 5.814 1.916 0 3.667-1.302 4.19-3.411.096-.388.126-.781.126-1.232v-2.729zM346.191 220.064v9.149h10.577v-9.149h2.859v21.876h-2.859v-10.256h-10.577v10.256h-2.858v-21.876h2.858zM379.765 237.624c0 1.652.034 3.083.134 4.316h-2.537l-.159-2.564h-.063c-.714 1.264-2.404 2.921-5.194 2.921-2.471 0-5.424-1.395-5.424-6.882v-9.186h2.855v8.671c0 2.981.943 5.026 3.508 5.026 1.916 0 3.248-1.332 3.762-2.628.168-.39.261-.909.261-1.459v-9.61h2.856v11.395zM386.69 230.482c0-1.658-.062-2.953-.131-4.253h2.501l.132 2.564h.095c.879-1.49 2.338-2.886 4.968-2.886 2.11 0 3.73 1.296 4.412 3.148h.063a6.244 6.244 0 0 1 1.789-2.046c.939-.715 1.946-1.103 3.441-1.103 2.11 0 5.194 1.361 5.194 6.814v9.219h-2.792v-8.862c0-3.052-1.137-4.835-3.41-4.835-1.654 0-2.89 1.201-3.406 2.564-.134.42-.229.908-.229 1.428v9.705h-2.792v-9.411c0-2.502-1.102-4.286-3.279-4.286-1.752 0-3.081 1.427-3.541 2.858-.157.388-.222.903-.222 1.395v9.444h-2.795v-11.457zM426.993 238.174c0 1.365.064 2.696.229 3.767h-2.567l-.226-1.982h-.1c-.872 1.237-2.562 2.339-4.803 2.339-3.182 0-4.805-2.239-4.805-4.512 0-3.797 3.374-5.875 9.447-5.844v-.325c0-1.264-.355-3.632-3.571-3.599-1.497 0-3.018.419-4.124 1.166l-.647-1.915c1.297-.813 3.213-1.361 5.195-1.361 4.801 0 5.971 3.275 5.971 6.393v5.873zm-2.76-4.25c-3.117-.064-6.653.483-6.653 3.536 0 1.884 1.229 2.728 2.662 2.728 2.076 0 3.403-1.299 3.865-2.632.095-.321.126-.647.126-.905v-2.727zM433.79 230.482c0-1.658-.035-2.953-.132-4.253h2.533l.158 2.595h.067c.782-1.459 2.597-2.917 5.194-2.917 2.176 0 5.55 1.296 5.55 6.685v9.348h-2.857v-9.054c0-2.534-.941-4.643-3.632-4.643-1.856 0-3.314 1.327-3.83 2.921-.135.357-.199.84-.199 1.332v9.444h-2.853v-11.458zM457.173 221.816c0 .974-.683 1.751-1.819 1.751-1.039 0-1.722-.777-1.722-1.751 0-.976.717-1.785 1.787-1.785 1.041.001 1.754.778 1.754 1.785zm-3.184 20.124v-15.711h2.857v15.711h-2.857zM467.203 222.466v3.764h4.093v2.175h-4.093v8.473c0 1.946.557 3.049 2.145 3.049.782 0 1.233-.064 1.653-.193l.137 2.176c-.557.193-1.433.388-2.538.388-1.327 0-2.402-.451-3.081-1.202-.78-.875-1.106-2.272-1.106-4.119v-8.572h-2.433v-2.175h2.433v-2.922l2.79-.842zM479.874 221.816c0 .974-.682 1.751-1.818 1.751-1.039 0-1.721-.777-1.721-1.751 0-.976.718-1.785 1.787-1.785 1.04.001 1.752.778 1.752 1.785zm-3.183 20.124v-15.711h2.857v15.711h-2.857zM488.059 234.605c.063 3.863 2.498 5.453 5.387 5.453 2.048 0 3.313-.357 4.352-.814l.519 2.046c-1.003.456-2.76 1.007-5.261 1.007-4.835 0-7.724-3.21-7.724-7.952 0-4.738 2.79-8.438 7.367-8.438 5.162 0 6.492 4.477 6.492 7.366 0 .587-.031 1.008-.094 1.332h-11.038zm8.374-2.043c.03-1.785-.746-4.612-3.957-4.612-2.926 0-4.154 2.628-4.385 4.612h8.342zM504.529 239.055c.871.515 2.366 1.102 3.797 1.102 2.042 0 3.018-1.007 3.018-2.34 0-1.363-.813-2.077-2.892-2.854-2.854-1.038-4.187-2.565-4.187-4.446 0-2.532 2.078-4.608 5.424-4.608 1.587 0 2.982.421 3.829.971l-.682 2.079a6.067 6.067 0 0 0-3.214-.94c-1.688 0-2.597.971-2.597 2.141 0 1.302.908 1.883 2.952 2.696 2.693 1.007 4.12 2.366 4.12 4.702 0 2.796-2.172 4.742-5.84 4.742-1.72 0-3.311-.451-4.413-1.102l.685-2.143z"/></g><path fill="#213365" d="M106.589 146.883c11.717 0 19.202-6.914 19.202-19.934 0-12.855-7.647-19.773-19.202-19.773h-8.706v39.708h8.706zm-19.12-45.32c0-2.198 1.14-3.418 3.335-3.418h16.355c17.82 0 29.455 10.579 29.455 28.804 0 18.226-11.635 28.967-29.455 28.967H90.804c-2.196 0-3.335-1.139-3.335-3.418v-50.935zM172.737 132.563l-5.126-15.461c-.976-3.254-2.278-8.949-2.278-8.949h-.164s-1.302 5.695-2.278 8.949l-5.208 15.461h15.054zm-13.914-31.651c.651-1.871 1.873-2.767 3.825-2.767h5.207c1.953 0 3.255.896 3.824 2.767l18.063 51.099c.813 2.358-.244 3.906-2.767 3.906h-3.741c-1.954 0-3.256-.896-3.825-2.766l-4.069-12.043h-20.26l-3.987 11.961c-.569 1.952-1.871 2.848-3.824 2.848h-3.743c-2.522 0-3.581-1.547-2.766-3.906l18.063-51.099zM217.563 125.241c5.614 0 9.114-3.5 9.114-9.195 0-3.662-1.383-6.591-4.556-7.891-1.383-.654-3.174-.979-6.266-.979h-7.729v18.065h9.437zm-19.853-23.678c0-2.198 1.14-3.418 3.337-3.418h15.622c5.695 0 8.543.487 10.984 1.546 5.859 2.441 9.684 7.974 9.684 15.784 0 6.835-3.58 13.345-9.602 15.787v.163s.733.896 1.871 3.01l9.521 17.413c1.382 2.358.323 4.068-2.36 4.068h-4.395c-1.871 0-3.089-.733-3.987-2.36l-10.17-19.201h-10.089v18.143c0 2.279-1.14 3.418-3.337 3.418h-3.742c-2.197 0-3.337-1.139-3.337-3.418v-50.935zM248.639 101.563c0-2.198 1.141-3.418 3.336-3.418h3.745c2.196 0 3.335 1.221 3.335 3.418v50.934c0 2.279-1.139 3.418-3.335 3.418h-3.745c-2.196 0-3.336-1.139-3.336-3.418v-50.934zM299.002 132.563l-5.126-15.461c-.976-3.254-2.278-8.949-2.278-8.949h-.163s-1.302 5.695-2.278 8.949l-5.207 15.461h15.052zm-13.912-31.651c.65-1.871 1.872-2.767 3.825-2.767h5.206c1.955 0 3.257.896 3.824 2.767l18.063 51.099c.814 2.358-.244 3.906-2.766 3.906H309.5c-1.952 0-3.254-.896-3.824-2.766l-4.067-12.043h-20.261l-3.988 11.961c-.568 1.952-1.87 2.848-3.822 2.848h-3.745c-2.521 0-3.579-1.547-2.765-3.906l18.062-51.099zM323.976 101.563c0-2.198 1.14-3.418 3.335-3.418h3.744c2.197 0 3.335 1.221 3.335 3.418v21.074h26.443v-21.074c0-2.198 1.141-3.418 3.419-3.418h3.662c2.198 0 3.335 1.221 3.335 3.418v50.934c0 2.279-1.137 3.418-3.335 3.418h-3.662c-2.278 0-3.419-1.139-3.419-3.418v-20.83H334.39v20.83c0 2.279-1.139 3.418-3.335 3.418h-3.744c-2.196 0-3.335-1.139-3.335-3.418v-50.934zM382.636 133.784v-2.279c0-2.196 1.22-3.335 3.418-3.335h17.654c2.2 0 3.42 1.14 3.42 3.335v2.279c0 2.277-1.221 3.417-3.42 3.417h-17.654c-2.198 0-3.418-1.139-3.418-3.417M437.637 146.883c11.717 0 19.203-6.914 19.203-19.934 0-12.855-7.648-19.773-19.203-19.773h-8.706v39.708h8.706zm-19.122-45.32c0-2.198 1.14-3.418 3.336-3.418h16.356c17.818 0 29.454 10.579 29.454 28.804 0 18.226-11.636 28.967-29.454 28.967h-16.356c-2.196 0-3.336-1.139-3.336-3.418v-50.935zM477.745 101.563c0-2.198 1.141-3.418 3.336-3.418h27.827c2.198 0 3.418 1.221 3.418 3.418v2.277c0 2.198-1.22 3.335-3.418 3.335h-20.747v15.134h16.11c2.196 0 3.417 1.14 3.417 3.337v2.279c0 2.277-1.221 3.415-3.417 3.415h-16.11v15.542h22.049c2.198 0 3.419 1.14 3.419 3.335v2.279c0 2.279-1.221 3.418-3.419 3.418h-29.129c-2.195 0-3.336-1.139-3.336-3.418v-50.933z"/><path fill="#424569" d="M52.79 25.735c0-10.078 12.975-16.307 21.516-21.483 6.711 4.087 22.363 11.481 22.366 22.085.004 11.771-4.896 30.958-8.793 31.042-4.239.093-10.095-24.319-13.212-24.255-3.115.066-8.915 24.354-12.824 24.348-4.244-.006-9.053-20.769-9.053-31.737"/><path fill="#727299" d="M18.033 82.585C8.449 79.468 6.535 65.205 4.252 55.483c5.96-5.121 17.829-17.722 27.917-14.449 11.195 3.635 27.93 14.222 26.804 17.956-1.219 4.059-26.248 2.085-27.148 5.068-.903 2.983 20.405 16.005 19.191 19.724-1.318 4.032-22.551 2.191-32.983-1.197"/><path fill="#213365" d="M61.359 133.206c-5.926 8.15-20.08 5.563-30.033 4.734-3.028-7.251-11.343-22.436-5.115-31.016 6.919-9.524 22.16-22.165 25.36-19.944 3.483 2.413-6.128 25.606-3.566 27.386 2.558 1.782 21.528-14.461 24.688-12.157 3.428 2.498-4.885 22.123-11.334 30.997"/><path fill="#494E7D" d="M117.594 41.218c9.587-3.114 19.519 7.3 27.082 13.826-1.813 7.644-4.008 24.815-14.092 28.094-11.195 3.643-30.957 4.912-32.24 1.232-1.399-4.002 20.008-17.119 18.984-20.062-1.022-2.942-25.918-.952-27.119-4.672-1.307-4.041 16.956-15.027 27.385-18.418"/></svg>