<svg xmlns="http://www.w3.org/2000/svg" width="482" height="200" viewBox="0 -12 482 200"><path fill="#fff" d="M109.218 116.352c0-2.883 1.496-4.486 4.378-4.486h21.465c23.39 0 38.658 13.884 38.658 37.804s-15.27 38.018-38.657 38.018h-21.464c-2.882 0-4.378-1.495-4.378-4.487v-66.848zm25.094 59.48c15.378 0 25.2-9.073 25.2-26.162 0-16.87-10.036-25.952-25.2-25.952h-11.426v52.115h11.426m68.554-60.336c.854-2.456 2.457-3.63 5.02-3.63h6.834c2.563 0 4.272 1.174 5.02 3.63l23.707 67.064c1.067 3.097-.32 5.127-3.63 5.127h-4.913c-2.563 0-4.272-1.175-5.02-3.63l-5.34-15.807h-26.592l-5.232 15.7c-.746 2.562-2.455 3.736-5.018 3.736h-4.913c-3.31 0-4.7-2.03-3.632-5.126l23.708-67.063zm18.262 41.54l-6.728-20.29c-1.28-4.272-2.99-11.746-2.99-11.746h-.215s-1.708 7.476-2.99 11.746l-6.835 20.292h19.758m32.776-40.686c0-2.883 1.495-4.486 4.38-4.486h20.502c7.476 0 11.213.64 14.416 2.03 7.69 3.204 12.71 10.464 12.71 20.714 0 8.97-4.7 17.515-12.602 20.72v.213s.962 1.176 2.455 3.95l12.496 22.854c1.815 3.096.425 5.338-3.097 5.338h-5.768c-2.455 0-4.055-.96-5.233-3.098l-13.348-25.2h-13.24V183.2c0 2.992-1.496 4.487-4.38 4.487h-4.91c-2.886 0-4.38-1.495-4.38-4.487v-66.848zm26.057 31.075c7.367 0 11.962-4.593 11.962-12.068 0-4.807-1.816-8.65-5.98-10.358-1.814-.858-4.165-1.284-8.224-1.284h-10.144v23.71h12.387m40.785-31.076c0-2.883 1.497-4.486 4.38-4.486h4.913c2.883 0 4.377 1.603 4.377 4.486V183.2c0 2.992-1.494 4.487-4.377 4.487h-4.914c-2.882 0-4.38-1.495-4.38-4.487v-66.848m47.84-.855c.854-2.456 2.457-3.63 5.02-3.63h6.834c2.565 0 4.274 1.174 5.02 3.63l23.705 67.064c1.07 3.097-.32 5.127-3.63 5.127h-4.91c-2.563 0-4.272-1.175-5.02-3.63l-5.338-15.807h-26.592l-5.233 15.7c-.746 2.562-2.455 3.736-5.017 3.736h-4.916c-3.31 0-4.696-2.03-3.628-5.126l23.704-67.063zm18.26 41.54l-6.728-20.29c-1.28-4.272-2.988-11.746-2.988-11.746h-.213s-1.71 7.476-2.99 11.746l-6.834 20.292h19.754m32.777-40.686c0-2.883 1.497-4.486 4.378-4.486h4.915c2.883 0 4.377 1.603 4.377 4.486v27.658h34.705v-27.658c0-2.883 1.496-4.486 4.486-4.486h4.81c2.883 0 4.376 1.603 4.376 4.486V183.2c0 2.992-1.493 4.487-4.377 4.487h-4.81c-2.99 0-4.485-1.495-4.485-4.487v-27.337H433.29V183.2c0 2.992-1.494 4.487-4.377 4.487h-4.915c-2.88 0-4.377-1.495-4.377-4.486v-66.848z"/><path fill="#fff" d="M63.704 16.832c0-13.228 17.028-21.402 28.238-28.196C100.75-6 121.292 3.704 121.296 17.622c.006 15.45-6.426 40.632-11.54 40.74-5.563.123-13.248-31.916-17.34-31.833-4.087.086-11.7 31.963-16.83 31.956-5.572-.01-11.882-27.26-11.882-41.654"/><path fill="#fff" d="M18.088 91.444C5.508 87.354 2.996 68.634 0 55.874c7.823-6.72 23.4-23.258 36.64-18.962 14.692 4.77 36.655 18.666 35.178 23.566-1.6 5.327-34.448 2.736-35.63 6.652C35 71.046 62.968 88.135 61.376 93.016c-1.73 5.29-29.597 2.874-43.288-1.572"/><path fill="#fff" d="M74.95 157.88c-7.776 10.698-26.353 7.304-39.416 6.214-3.975-9.518-14.888-29.446-6.713-40.707 9.08-12.5 29.083-29.09 33.284-26.174 4.57 3.166-8.043 33.606-4.68 35.942 3.355 2.34 28.253-18.98 32.4-15.955 4.5 3.278-6.41 29.034-14.873 40.68"/><path fill="#fff" d="M148.755 37.152c12.582-4.085 25.618 9.583 35.544 18.146-2.38 10.032-5.26 32.57-18.496 36.874-14.694 4.78-40.63 6.446-42.313 1.617-1.836-5.254 26.26-22.47 24.916-26.332-1.34-3.862-34.016-1.25-35.592-6.132-1.715-5.305 22.253-19.724 35.94-24.174"/></svg>
