<svg xmlns="http://www.w3.org/2000/svg" width="518.74" height="246.549" viewBox="0 0 518.74 246.549"><path fill="#213365" d="M106.748 147.104c11.734 0 19.231-6.925 19.231-19.965 0-12.875-7.66-19.804-19.231-19.804h-8.719v39.769h8.719zm-19.151-45.39c0-2.202 1.142-3.424 3.34-3.424h16.38c17.847 0 29.5 10.595 29.5 28.848 0 18.254-11.653 29.012-29.5 29.012h-16.38c-2.199 0-3.34-1.141-3.34-3.424v-51.012zM172.997 132.761l-5.134-15.485c-.978-3.259-2.282-8.963-2.282-8.963h-.164s-1.304 5.704-2.281 8.963l-5.216 15.485h15.077zm-13.935-31.7c.652-1.874 1.875-2.771 3.83-2.771h5.215c1.956 0 3.26.897 3.83 2.771l18.091 51.178c.815 2.361-.244 3.912-2.771 3.912h-3.748c-1.957 0-3.261-.897-3.831-2.771l-4.075-12.062h-20.292l-3.993 11.98c-.57 1.955-1.874 2.852-3.83 2.852h-3.748c-2.526 0-3.586-1.55-2.771-3.912l18.093-51.177zM217.893 125.428c5.623 0 9.127-3.505 9.127-9.209 0-3.668-1.385-6.601-4.563-7.903-1.385-.655-3.179-.98-6.275-.98h-7.741v18.093h9.452zm-19.884-23.714c0-2.202 1.141-3.424 3.342-3.424h15.646c5.705 0 8.557.488 11.001 1.548 5.868 2.445 9.699 7.986 9.699 15.809 0 6.845-3.586 13.365-9.616 15.81v.164s.734.897 1.874 3.015l9.536 17.44c1.384 2.362.323 4.075-2.364 4.075h-4.401c-1.874 0-3.095-.734-3.994-2.364l-10.186-19.23H208.44v18.17c0 2.283-1.141 3.424-3.342 3.424h-3.748c-2.201 0-3.342-1.141-3.342-3.424v-51.013zM249.016 101.714c0-2.202 1.142-3.424 3.341-3.424h3.75c2.201 0 3.341 1.222 3.341 3.424v51.012c0 2.283-1.14 3.424-3.341 3.424h-3.75c-2.199 0-3.341-1.141-3.341-3.424v-51.012zM299.457 132.761l-5.134-15.485c-.978-3.259-2.282-8.963-2.282-8.963h-.163s-1.304 5.704-2.282 8.963l-5.215 15.485h15.076zm-13.935-31.7c.651-1.874 1.875-2.771 3.831-2.771h5.214c1.958 0 3.262.897 3.83 2.771l18.091 51.178c.815 2.361-.244 3.912-2.771 3.912h-3.747c-1.955 0-3.259-.897-3.83-2.771l-4.074-12.062h-20.292l-3.995 11.98c-.568 1.955-1.873 2.852-3.827 2.852h-3.751c-2.525 0-3.585-1.55-2.77-3.912l18.091-51.177zM324.469 101.714c0-2.202 1.141-3.424 3.34-3.424h3.75c2.201 0 3.34 1.222 3.34 3.424v21.105h26.484v-21.105c0-2.202 1.142-3.424 3.423-3.424h3.668c2.201 0 3.34 1.222 3.34 3.424v51.012c0 2.283-1.139 3.424-3.34 3.424h-3.668c-2.282 0-3.423-1.141-3.423-3.424v-20.862H334.9v20.862c0 2.283-1.14 3.424-3.34 3.424h-3.75c-2.199 0-3.34-1.141-3.34-3.424v-51.012zM383.22 133.984v-2.282c0-2.199 1.222-3.34 3.424-3.34h17.681c2.203 0 3.426 1.141 3.426 3.34v2.282c0 2.281-1.223 3.422-3.426 3.422h-17.681c-2.203 0-3.424-1.141-3.424-3.422M438.306 147.104c11.735 0 19.232-6.925 19.232-19.965 0-12.875-7.66-19.804-19.232-19.804h-8.721v39.769h8.721zm-19.153-45.39c0-2.202 1.143-3.424 3.342-3.424h16.381c17.847 0 29.5 10.595 29.5 28.848 0 18.254-11.653 29.012-29.5 29.012h-16.381c-2.199 0-3.342-1.141-3.342-3.424v-51.012zM478.476 101.714c0-2.202 1.143-3.424 3.341-3.424h27.87c2.201 0 3.424 1.222 3.424 3.424v2.28c0 2.201-1.223 3.34-3.424 3.34h-20.779v15.158h16.135c2.199 0 3.422 1.141 3.422 3.342v2.282c0 2.281-1.223 3.42-3.422 3.42h-16.135v15.566h22.082c2.203 0 3.425 1.141 3.425 3.34v2.282c0 2.283-1.222 3.424-3.425 3.424h-29.173c-2.198 0-3.341-1.141-3.341-3.424v-51.01z"/><path fill="#424569" d="M52.865 25.768c0-10.093 12.995-16.333 21.549-21.516 6.721 4.093 22.397 11.499 22.4 22.119.004 11.79-4.904 31.006-8.806 31.09-4.246.093-10.111-24.356-13.232-24.292-3.12.066-8.929 24.391-12.845 24.385-4.25-.006-9.066-20.801-9.066-31.786"/><path fill="#727299" d="M18.055 82.706C8.456 79.584 6.539 65.298 4.252 55.562c5.97-5.129 17.857-17.749 27.959-14.471 11.213 3.641 27.973 14.244 26.845 17.983-1.221 4.065-26.289 2.089-27.19 5.077-.905 2.988 20.437 16.03 19.221 19.753-1.319 4.039-22.584 2.195-33.032-1.198"/><path fill="#213365" d="M61.448 133.405c-5.935 8.163-20.111 5.572-30.079 4.741-3.033-7.262-11.361-22.47-5.123-31.063 6.929-9.539 22.193-22.199 25.399-19.975 3.488 2.416-6.137 25.646-3.572 27.428 2.562 1.785 21.562-14.483 24.726-12.176 3.432 2.502-4.894 22.157-11.351 31.045"/><path fill="#494E7D" d="M117.768 41.275c9.602-3.119 19.549 7.312 27.124 13.847-1.815 7.656-4.014 24.854-14.113 28.138-11.213 3.648-31.004 4.919-32.29 1.234-1.402-4.009 20.039-17.146 19.014-20.093-1.024-2.947-25.958-.953-27.161-4.679-1.309-4.048 16.982-15.051 27.426-18.447"/><g fill="#213365"><path d="M88.159 179.584a29.889 29.889 0 0 1 4.953-.402c3.348 0 5.731.803 7.311 2.25 1.633 1.473 2.571 3.562 2.571 6.48 0 2.946-.938 5.356-2.598 7.017-1.714 1.687-4.498 2.597-8.006 2.597-1.687 0-3.053-.081-4.23-.214v-17.728zm2.329 15.959c.59.08 1.447.107 2.357.107 5.008 0 7.686-2.785 7.686-7.658.026-4.258-2.383-6.963-7.311-6.963-1.206 0-2.116.107-2.732.241v14.273zM108.354 180.762c0 .803-.563 1.446-1.5 1.446-.857 0-1.419-.643-1.419-1.446s.589-1.473 1.473-1.473c.856.001 1.446.643 1.446 1.473zm-2.625 16.602v-12.96h2.356v12.96h-2.356zM122.895 195.464c0 2.998-.616 4.792-1.847 5.944-1.286 1.151-3.107 1.553-4.74 1.553-1.553 0-3.267-.375-4.312-1.071l.589-1.821c.857.563 2.196 1.045 3.803 1.045 2.41 0 4.177-1.258 4.177-4.553v-1.419h-.053c-.697 1.205-2.116 2.169-4.124 2.169-3.214 0-5.517-2.732-5.517-6.319 0-4.393 2.866-6.855 5.865-6.855 2.249 0 3.454 1.151 4.042 2.223h.054l.081-1.955h2.088c-.08.911-.107 1.981-.107 3.534v7.525zm-2.355-5.945c0-.401-.027-.75-.135-1.045-.428-1.392-1.553-2.517-3.292-2.517-2.25 0-3.857 1.901-3.857 4.9 0 2.544 1.313 4.66 3.83 4.66 1.473 0 2.785-.911 3.267-2.41.133-.401.188-.857.188-1.259v-2.329zM129.058 180.762c0 .803-.563 1.446-1.5 1.446-.857 0-1.419-.643-1.419-1.446s.589-1.473 1.473-1.473c.856.001 1.446.643 1.446 1.473zm-2.625 16.602v-12.96h2.356v12.96h-2.356zM135.352 181.298v3.106h3.374v1.794h-3.374v6.989c0 1.606.455 2.517 1.767 2.517.642 0 1.017-.054 1.366-.161l.107 1.794c-.456.161-1.178.321-2.089.321-1.098 0-1.981-.375-2.544-.991-.642-.723-.91-1.875-.91-3.4v-7.07h-2.008v-1.794h2.008v-2.41l2.303-.695zM150.295 194.258c0 1.125.054 2.223.187 3.106h-2.115l-.188-1.633h-.08c-.723 1.017-2.116 1.927-3.963 1.927-2.625 0-3.963-1.847-3.963-3.722 0-3.133 2.785-4.847 7.793-4.82v-.269c0-1.044-.295-2.999-2.946-2.972-1.231 0-2.49.349-3.4.964l-.536-1.58c1.072-.669 2.652-1.124 4.285-1.124 3.963 0 4.927 2.704 4.927 5.275v4.848zm-2.276-3.508c-2.57-.054-5.489.401-5.489 2.919 0 1.552 1.017 2.249 2.195 2.249 1.714 0 2.813-1.071 3.188-2.168.08-.268.106-.536.106-.75v-2.25zM153.914 178.352h2.356v19.012h-2.356v-19.012zM161.359 191.313c.054 3.186 2.062 4.499 4.446 4.499 1.687 0 2.731-.294 3.587-.669l.429 1.687c-.83.375-2.276.83-4.338.83-3.99 0-6.374-2.65-6.374-6.561 0-3.909 2.303-6.962 6.08-6.962 4.257 0 5.355 3.695 5.355 6.079 0 .481-.027.83-.081 1.098h-9.104zm6.909-1.688c.027-1.472-.616-3.802-3.267-3.802-2.409 0-3.428 2.169-3.615 3.802h6.882zM178.823 179.316h9.721v1.955h-7.365v5.999h6.802v1.928h-6.802v8.167h-2.356v-18.049zM202.525 190.777c0 4.793-3.347 6.882-6.453 6.882-3.481 0-6.213-2.57-6.213-6.667 0-4.312 2.866-6.855 6.427-6.855 3.722-.001 6.239 2.703 6.239 6.64zm-10.255.134c0 2.839 1.606 4.981 3.91 4.981 2.249 0 3.936-2.116 3.936-5.035 0-2.196-1.099-4.954-3.883-4.954-2.758.001-3.963 2.571-3.963 5.008zM205.314 188.447c0-1.527-.027-2.838-.108-4.043h2.063l.107 2.57h.08c.589-1.74 2.036-2.838 3.615-2.838.242 0 .429.026.644.054v2.222c-.241-.053-.483-.053-.803-.053-1.661 0-2.838 1.231-3.16 2.998a7.135 7.135 0 0 0-.081 1.099v6.908h-2.356v-8.917zM213.565 194.981c.723.428 1.955.911 3.133.911 1.687 0 2.491-.831 2.491-1.928 0-1.125-.669-1.714-2.383-2.357-2.357-.856-3.455-2.115-3.455-3.669 0-2.088 1.714-3.802 4.472-3.802 1.312 0 2.464.348 3.16.803l-.563 1.714a5.02 5.02 0 0 0-2.65-.777c-1.393 0-2.143.803-2.143 1.767 0 1.072.75 1.554 2.438 2.224 2.222.829 3.4 1.954 3.4 3.883 0 2.303-1.794 3.909-4.82 3.909-1.419 0-2.731-.375-3.641-.911l.561-1.767zM233.544 196.909c-.616.294-1.982.75-3.722.75-3.91 0-6.454-2.65-6.454-6.614 0-3.99 2.731-6.909 6.962-6.909 1.392 0 2.625.348 3.267.696l-.536 1.794c-.562-.294-1.445-.616-2.731-.616-2.973 0-4.58 2.223-4.58 4.901 0 2.999 1.928 4.847 4.499 4.847a6.737 6.737 0 0 0 2.892-.616l.403 1.767zM236.117 178.352h2.356v8.114h.053a4.432 4.432 0 0 1 1.688-1.687 4.823 4.823 0 0 1 2.409-.643c1.741 0 4.526 1.071 4.526 5.517v7.711h-2.357v-7.444c0-2.088-.776-3.829-2.999-3.829-1.527 0-2.705 1.071-3.161 2.33-.133.348-.161.697-.161 1.125v7.819h-2.356v-19.013zM261.64 193.803c0 1.365.027 2.544.107 3.561h-2.088l-.134-2.116h-.054c-.589 1.044-1.981 2.41-4.285 2.41-2.035 0-4.472-1.151-4.472-5.677v-7.578h2.356v7.15c0 2.464.776 4.15 2.892 4.15 1.58 0 2.678-1.098 3.107-2.169.134-.32.214-.75.214-1.204v-7.927h2.356v9.4zM265.366 187.912c0-1.366-.027-2.436-.107-3.508h2.088l.134 2.142h.054c.642-1.205 2.142-2.41 4.284-2.41 1.794 0 4.58 1.071 4.58 5.517v7.711h-2.357v-7.471c0-2.088-.776-3.829-2.999-3.829-1.527 0-2.731 1.098-3.16 2.409-.107.295-.161.696-.161 1.099v7.792h-2.356v-9.452zM291.13 195.464c0 2.998-.616 4.792-1.847 5.944-1.286 1.151-3.107 1.553-4.741 1.553-1.552 0-3.266-.375-4.311-1.071l.589-1.821c.857.563 2.196 1.045 3.802 1.045 2.411 0 4.178-1.258 4.178-4.553v-1.419h-.053c-.697 1.205-2.116 2.169-4.125 2.169-3.213 0-5.516-2.732-5.516-6.319 0-4.393 2.866-6.855 5.865-6.855 2.249 0 3.454 1.151 4.043 2.223h.054l.081-1.955h2.089c-.081.911-.108 1.981-.108 3.534v7.525zm-2.356-5.945c0-.401-.027-.75-.134-1.045-.428-1.392-1.553-2.517-3.293-2.517-2.25 0-3.856 1.901-3.856 4.9 0 2.544 1.313 4.66 3.83 4.66 1.472 0 2.785-.911 3.267-2.41.134-.401.188-.857.188-1.259v-2.329zM294.507 194.981c.723.428 1.955.911 3.133.911 1.687 0 2.49-.831 2.49-1.928 0-1.125-.669-1.714-2.383-2.357-2.357-.856-3.455-2.115-3.455-3.669 0-2.088 1.714-3.802 4.472-3.802 1.312 0 2.463.348 3.16.803l-.563 1.714a5.024 5.024 0 0 0-2.651-.777c-1.394 0-2.143.803-2.143 1.767 0 1.072.75 1.554 2.438 2.224 2.222.829 3.4 1.954 3.4 3.883 0 2.303-1.794 3.909-4.82 3.909-1.419 0-2.732-.375-3.642-.911l.564-1.767zM307.874 180.762c0 .803-.563 1.446-1.5 1.446-.857 0-1.419-.643-1.419-1.446s.589-1.473 1.472-1.473c.857.001 1.447.643 1.447 1.473zm-2.625 16.602v-12.96h2.356v12.96h-2.356zM311.329 187.912c0-1.366-.027-2.436-.108-3.508h2.089l.134 2.142h.054c.643-1.205 2.142-2.41 4.284-2.41 1.794 0 4.58 1.071 4.58 5.517v7.711h-2.356v-7.471c0-2.088-.776-3.829-2.999-3.829-1.527 0-2.732 1.098-3.161 2.409-.107.295-.161.696-.161 1.099v7.792h-2.356v-9.452zM326.248 197.364v-11.167h-1.794v-1.794h1.794v-.616c0-1.82.428-3.48 1.5-4.525.884-.857 2.062-1.205 3.16-1.205.856 0 1.552.188 2.008.375l-.321 1.821c-.348-.161-.803-.295-1.5-.295-2.008 0-2.517 1.74-2.517 3.749v.696h3.133v1.794h-3.133v11.167h-2.33zM333.64 188.447c0-1.527-.027-2.838-.107-4.043h2.063l.106 2.57h.081c.589-1.74 2.036-2.838 3.616-2.838.24 0 .428.026.642.054v2.222c-.241-.053-.482-.053-.803-.053-1.661 0-2.839 1.231-3.16 2.998a7.14 7.14 0 0 0-.08 1.099v6.908h-2.356v-8.917zM351.183 194.258c0 1.125.054 2.223.187 3.106h-2.116l-.187-1.633h-.081c-.723 1.017-2.116 1.927-3.963 1.927-2.625 0-3.963-1.847-3.963-3.722 0-3.133 2.785-4.847 7.792-4.82v-.269c0-1.044-.294-2.999-2.946-2.972-1.231 0-2.49.349-3.4.964l-.536-1.58c1.071-.669 2.651-1.124 4.285-1.124 3.963 0 4.927 2.704 4.927 5.275v4.848zm-2.277-3.508c-2.57-.054-5.489.401-5.489 2.919 0 1.552 1.017 2.249 2.195 2.249 1.714 0 2.813-1.071 3.188-2.168.079-.268.106-.536.106-.75v-2.25zM354.479 194.981c.723.428 1.955.911 3.133.911 1.687 0 2.49-.831 2.49-1.928 0-1.125-.669-1.714-2.383-2.357-2.357-.856-3.455-2.115-3.455-3.669 0-2.088 1.714-3.802 4.472-3.802 1.312 0 2.464.348 3.16.803l-.563 1.714a5.024 5.024 0 0 0-2.651-.777c-1.393 0-2.143.803-2.143 1.767 0 1.072.75 1.554 2.438 2.224 2.223.829 3.4 1.954 3.4 3.883 0 2.303-1.794 3.909-4.819 3.909-1.42 0-2.732-.375-3.642-.911l.563-1.767zM368.059 181.298v3.106h3.373v1.794h-3.373v6.989c0 1.606.456 2.517 1.767 2.517.642 0 1.017-.054 1.366-.161l.107 1.794c-.456.161-1.178.321-2.089.321-1.098 0-1.981-.375-2.544-.991-.642-.723-.91-1.875-.91-3.4v-7.07h-2.008v-1.794h2.008v-2.41l2.303-.695zM373.898 188.447c0-1.527-.027-2.838-.107-4.043h2.063l.106 2.57h.081c.589-1.74 2.036-2.838 3.614-2.838.241 0 .429.026.644.054v2.222c-.241-.053-.482-.053-.803-.053-1.661 0-2.839 1.231-3.16 2.998a7.14 7.14 0 0 0-.08 1.099v6.908H373.9v-8.917zM393.314 193.803c0 1.365.027 2.544.107 3.561h-2.089l-.133-2.116h-.054c-.589 1.044-1.981 2.41-4.284 2.41-2.035 0-4.472-1.151-4.472-5.677v-7.578h2.356v7.15c0 2.464.777 4.15 2.892 4.15 1.58 0 2.678-1.098 3.106-2.169.134-.32.214-.75.214-1.204v-7.927h2.356v9.4zM399.37 190.348h.054a26.67 26.67 0 0 1 1.125-1.472l3.829-4.472h2.812l-4.981 5.329 5.704 7.632h-2.892l-4.445-6.213-1.205 1.339v4.874h-2.329v-19.012h2.329v11.995zM412.253 181.298v3.106h3.374v1.794h-3.374v6.989c0 1.606.456 2.517 1.767 2.517.642 0 1.017-.054 1.366-.161l.107 1.794c-.456.161-1.178.321-2.089.321-1.098 0-1.981-.375-2.544-.991-.642-.723-.91-1.875-.91-3.4v-7.07h-2.008v-1.794h2.008v-2.41l2.303-.695zM428.938 193.803c0 1.365.027 2.544.106 3.561h-2.088l-.134-2.116h-.055c-.589 1.044-1.98 2.41-4.283 2.41-2.036 0-4.473-1.151-4.473-5.677v-7.578h2.356v7.15c0 2.464.777 4.15 2.892 4.15 1.581 0 2.679-1.098 3.106-2.169.134-.32.215-.75.215-1.204v-7.927h2.356v9.4zM432.664 188.447c0-1.527-.027-2.838-.107-4.043h2.063l.106 2.57h.08c.589-1.74 2.036-2.838 3.615-2.838.241 0 .429.026.644.054v2.222c-.242-.053-.483-.053-.804-.053-1.661 0-2.839 1.231-3.16 2.998a7.012 7.012 0 0 0-.081 1.099v6.908h-2.355v-8.917zM446.968 197.364v-11.167h-1.795v-1.794h1.795v-.616c0-1.82.428-3.48 1.499-4.525.884-.857 2.062-1.205 3.159-1.205.856 0 1.553.188 2.009.375l-.321 1.821c-.349-.161-.804-.295-1.5-.295-2.009 0-2.518 1.74-2.518 3.749v.696h3.133v1.794h-3.133v11.167h-2.328zM465.205 193.803c0 1.365.026 2.544.107 3.561h-2.089l-.134-2.116h-.054c-.589 1.044-1.981 2.41-4.285 2.41-2.034 0-4.472-1.151-4.472-5.677v-7.578h2.356v7.15c0 2.464.777 4.15 2.892 4.15 1.58 0 2.678-1.098 3.107-2.169.134-.32.214-.75.214-1.204v-7.927h2.356v9.4zm-9.158-13.068c0-.75.589-1.365 1.366-1.365.723 0 1.285.589 1.285 1.365 0 .723-.535 1.366-1.339 1.366-.75 0-1.312-.643-1.312-1.366zm4.954 0c0-.75.59-1.365 1.339-1.365.75 0 1.312.589 1.312 1.365 0 .723-.535 1.366-1.338 1.366-.778 0-1.313-.643-1.313-1.366zM468.931 188.447c0-1.527-.027-2.838-.107-4.043h2.063l.106 2.57h.081c.589-1.74 2.035-2.838 3.614-2.838.241 0 .43.026.643.054v2.222c-.24-.053-.481-.053-.803-.053-1.66 0-2.838 1.231-3.16 2.998a7.14 7.14 0 0 0-.08 1.099v6.908h-2.356v-8.917zM494.159 178.352v15.666c0 1.151.053 2.463.106 3.347h-2.088l-.107-2.25h-.08c-.696 1.446-2.25 2.544-4.364 2.544-3.134 0-5.571-2.65-5.571-6.588-.026-4.311 2.678-6.935 5.812-6.935 2.009 0 3.32.937 3.91 1.955h.053v-7.739h2.329zm-2.33 11.327c0-.295-.026-.697-.106-.991-.349-1.473-1.634-2.704-3.401-2.704-2.437 0-3.883 2.142-3.883 4.981 0 2.624 1.313 4.793 3.829 4.793 1.581 0 3.026-1.071 3.455-2.812.08-.321.106-.642.106-1.017v-2.25zM500.536 180.762c0 .803-.562 1.446-1.499 1.446-.858 0-1.419-.643-1.419-1.446s.588-1.473 1.472-1.473c.857.001 1.446.643 1.446 1.473zm-2.624 16.602v-12.96h2.356v12.96h-2.356zM505.304 191.313c.053 3.186 2.061 4.499 4.444 4.499 1.688 0 2.732-.294 3.588-.669l.43 1.687c-.83.375-2.276.83-4.338.83-3.991 0-6.374-2.65-6.374-6.561 0-3.909 2.303-6.962 6.079-6.962 4.258 0 5.355 3.695 5.355 6.079 0 .481-.027.83-.081 1.098h-9.103zm6.908-1.688c.026-1.472-.615-3.802-3.267-3.802-2.41 0-3.428 2.169-3.615 3.802h6.882zM101.923 228.703c-1.044.401-3.133.99-5.57.99-2.731 0-4.98-.695-6.749-2.383-1.553-1.499-2.517-3.91-2.517-6.721 0-5.383 3.723-9.319 9.774-9.319 2.088 0 3.75.455 4.525.831l-.588 1.9c-.964-.455-2.169-.776-3.99-.776-4.392 0-7.257 2.731-7.257 7.256 0 4.58 2.731 7.283 6.962 7.283 1.526 0 2.571-.214 3.106-.481V221.9h-3.642v-1.875h5.945v8.678zM108.246 223.454c.054 3.186 2.062 4.499 4.446 4.499 1.687 0 2.731-.294 3.587-.669l.429 1.687c-.831.375-2.277.83-4.338.83-3.99 0-6.374-2.65-6.374-6.561 0-3.909 2.303-6.962 6.08-6.962 4.257 0 5.355 3.695 5.355 6.079 0 .481-.027.831-.081 1.098h-9.104zm6.908-1.687c.027-1.472-.615-3.802-3.266-3.802-2.41 0-3.428 2.169-3.615 3.802h6.881zM124.398 212.904c0 .803-.563 1.446-1.5 1.446-.857 0-1.419-.643-1.419-1.446 0-.803.589-1.473 1.473-1.473.856 0 1.446.643 1.446 1.473zm-2.625 16.602v-12.961h2.356v12.961h-2.356zM129.138 227.123c.723.428 1.955.911 3.133.911 1.687 0 2.491-.831 2.491-1.928 0-1.125-.67-1.714-2.383-2.357-2.357-.856-3.455-2.115-3.455-3.668 0-2.089 1.714-3.803 4.472-3.803 1.312 0 2.463.348 3.16.804l-.563 1.713a5.021 5.021 0 0 0-2.651-.777c-1.393 0-2.143.803-2.143 1.767 0 1.072.75 1.554 2.438 2.224 2.222.829 3.4 1.954 3.4 3.883 0 2.303-1.794 3.909-4.82 3.909-1.419 0-2.732-.375-3.642-.911l.563-1.767zM144.324 213.439v3.106h3.373v1.794h-3.373v6.989c0 1.607.455 2.517 1.767 2.517.642 0 1.017-.053 1.366-.161l.106 1.794c-.455.161-1.178.321-2.088.321-1.098 0-1.981-.375-2.544-.991-.642-.723-.91-1.874-.91-3.4v-7.069h-2.008v-1.794h2.008v-2.41l2.303-.696zM152.922 223.454c.053 3.186 2.062 4.499 4.445 4.499 1.688 0 2.731-.294 3.588-.669l.429 1.687c-.83.375-2.277.83-4.338.83-3.99 0-6.374-2.65-6.374-6.561 0-3.909 2.303-6.962 6.079-6.962 4.258 0 5.355 3.695 5.355 6.079 0 .481-.027.831-.08 1.098h-9.104zm6.909-1.687c.027-1.472-.615-3.802-3.267-3.802-2.41 0-3.428 2.169-3.615 3.802h6.882zM166.126 227.123c.723.428 1.956.911 3.133.911 1.687 0 2.491-.831 2.491-1.928 0-1.125-.669-1.714-2.383-2.357-2.357-.856-3.455-2.115-3.455-3.668 0-2.089 1.714-3.803 4.472-3.803 1.312 0 2.464.348 3.161.804l-.563 1.713a5.026 5.026 0 0 0-2.65-.777c-1.394 0-2.144.803-2.144 1.767 0 1.072.75 1.554 2.438 2.224 2.223.829 3.401 1.954 3.401 3.883 0 2.303-1.794 3.909-4.82 3.909-1.419 0-2.732-.375-3.642-.911l.561-1.767zM183.936 221.419v1.714h-6.614v-1.714h6.614zM206.06 225.945c0 1.365.027 2.544.107 3.562h-2.089l-.134-2.116h-.054c-.589 1.044-1.981 2.41-4.284 2.41-2.036 0-4.472-1.152-4.472-5.677v-7.578h2.356v7.15c0 2.464.777 4.15 2.892 4.15 1.58 0 2.678-1.098 3.106-2.169.134-.32.214-.75.214-1.204v-7.927h2.356v9.399zM211.393 220.054c0-1.366-.027-2.437-.107-3.508h2.089l.133 2.143h.055c.642-1.206 2.142-2.41 4.284-2.41 1.794 0 4.58 1.071 4.58 5.516v7.713h-2.357v-7.471c0-2.089-.776-3.829-2.998-3.829-1.527 0-2.732 1.098-3.16 2.409-.107.295-.161.697-.161 1.099v7.792h-2.356v-9.454zM238.844 210.494v15.666c0 1.151.053 2.463.107 3.347h-2.089l-.107-2.25h-.08c-.696 1.446-2.25 2.543-4.365 2.543-3.133 0-5.57-2.65-5.57-6.588-.026-4.311 2.678-6.935 5.811-6.935 2.008 0 3.321.937 3.91 1.955h.054v-7.739h2.329zm-2.329 11.327c0-.295-.026-.696-.107-.991-.349-1.473-1.633-2.704-3.401-2.704-2.437 0-3.883 2.142-3.883 4.981 0 2.624 1.313 4.793 3.83 4.793 1.58 0 3.026-1.071 3.455-2.812.081-.321.107-.642.107-1.017v-2.25zM251.382 211.458h2.329v8.703h.081c.482-.696.964-1.339 1.419-1.928l5.517-6.775h2.892l-6.534 7.658 7.043 10.391h-2.758l-5.918-8.864-1.741 1.981v6.882h-2.329v-18.048zM277.922 225.945c0 1.365.027 2.544.108 3.562h-2.089l-.134-2.116h-.054c-.589 1.044-1.981 2.41-4.284 2.41-2.036 0-4.472-1.152-4.472-5.677v-7.578h2.356v7.15c0 2.464.777 4.15 2.892 4.15 1.58 0 2.677-1.098 3.106-2.169.134-.32.214-.75.214-1.204v-7.927h2.356v9.399zM283.256 210.494h2.356v19.013h-2.356v-19.013zM293.835 213.439v3.106h3.374v1.794h-3.374v6.989c0 1.607.455 2.517 1.767 2.517.642 0 1.017-.053 1.366-.161l.107 1.794c-.456.161-1.178.321-2.089.321-1.097 0-1.981-.375-2.544-.991-.642-.723-.91-1.874-.91-3.4v-7.069h-2.008v-1.794h2.008v-2.41l2.303-.696zM312.127 225.945c0 1.365.027 2.544.107 3.562h-2.089l-.134-2.116h-.054c-.589 1.044-1.981 2.41-4.284 2.41-2.036 0-4.472-1.152-4.472-5.677v-7.578h2.356v7.15c0 2.464.777 4.15 2.892 4.15 1.58 0 2.677-1.098 3.107-2.169.134-.32.214-.75.214-1.204v-7.927h2.356v9.399zM317.46 220.589c0-1.527-.027-2.839-.107-4.044h2.063l.106 2.57h.081c.589-1.74 2.035-2.838 3.615-2.838.241 0 .429.026.643.054v2.222c-.242-.053-.482-.053-.803-.053-1.661 0-2.838 1.231-3.16 2.999a7.14 7.14 0 0 0-.08 1.099v6.909h-2.356v-8.918zM329.246 216.545l1.741 6.588c.348 1.445.696 2.784.937 4.124h.081c.294-1.312.723-2.705 1.152-4.097l2.115-6.614h1.982l2.008 6.48a55.04 55.04 0 0 1 1.151 4.231h.081c.214-1.312.563-2.678.991-4.204l1.848-6.507h2.33l-4.178 12.961h-2.142l-1.982-6.186c-.455-1.446-.83-2.731-1.151-4.258h-.054c-.321 1.553-.723 2.892-1.178 4.285l-2.089 6.159h-2.142l-3.909-12.961h2.408zM352.066 212.904c0 .803-.563 1.446-1.5 1.446-.857 0-1.419-.643-1.419-1.446 0-.803.588-1.473 1.473-1.473.856 0 1.446.643 1.446 1.473zm-2.624 16.602v-12.961h2.356v12.961h-2.356zM356.807 227.123c.723.428 1.955.911 3.133.911 1.687 0 2.491-.831 2.491-1.928 0-1.125-.669-1.714-2.383-2.357-2.357-.856-3.455-2.115-3.455-3.668 0-2.089 1.714-3.803 4.472-3.803 1.312 0 2.463.348 3.16.804l-.563 1.713a5.023 5.023 0 0 0-2.65-.777c-1.393 0-2.143.803-2.143 1.767 0 1.072.75 1.554 2.438 2.224 2.222.829 3.4 1.954 3.4 3.883 0 2.303-1.794 3.909-4.819 3.909-1.42 0-2.732-.375-3.642-.911l.561-1.767zM368.834 227.123c.723.428 1.956.911 3.133.911 1.687 0 2.491-.831 2.491-1.928 0-1.125-.669-1.714-2.383-2.357-2.357-.856-3.455-2.115-3.455-3.668 0-2.089 1.714-3.803 4.472-3.803 1.312 0 2.464.348 3.161.804l-.563 1.713a5.02 5.02 0 0 0-2.65-.777c-1.394 0-2.144.803-2.144 1.767 0 1.072.75 1.554 2.438 2.224 2.223.829 3.401 1.954 3.401 3.883 0 2.303-1.794 3.909-4.82 3.909-1.419 0-2.732-.375-3.642-.911l.561-1.767zM382.493 223.454c.053 3.186 2.062 4.499 4.445 4.499 1.688 0 2.732-.294 3.588-.669l.429 1.687c-.83.375-2.277.83-4.338.83-3.99 0-6.374-2.65-6.374-6.561 0-3.909 2.303-6.962 6.079-6.962 4.258 0 5.355 3.695 5.355 6.079 0 .481-.027.831-.081 1.098h-9.103zm6.909-1.687c.027-1.472-.615-3.802-3.267-3.802-2.409 0-3.428 2.169-3.615 3.802h6.882zM396.019 220.054c0-1.366-.027-2.437-.107-3.508H398l.134 2.143h.054c.642-1.206 2.142-2.41 4.284-2.41 1.794 0 4.58 1.071 4.58 5.516v7.713h-2.357v-7.471c0-2.089-.776-3.829-2.999-3.829-1.527 0-2.731 1.098-3.16 2.409-.107.295-.161.697-.161 1.099v7.792h-2.356v-9.454zM411.983 227.123c.723.428 1.955.911 3.133.911 1.687 0 2.491-.831 2.491-1.928 0-1.125-.67-1.714-2.384-2.357-2.357-.856-3.454-2.115-3.454-3.668 0-2.089 1.713-3.803 4.472-3.803 1.312 0 2.464.348 3.16.804l-.563 1.713a5.021 5.021 0 0 0-2.651-.777c-1.393 0-2.143.803-2.143 1.767 0 1.072.75 1.554 2.438 2.224 2.223.829 3.4 1.954 3.4 3.883 0 2.303-1.794 3.909-4.82 3.909-1.419 0-2.732-.375-3.642-.911l.563-1.767zM433.569 229.051c-.615.294-1.981.75-3.722.75-3.909 0-6.454-2.65-6.454-6.613 0-3.991 2.732-6.909 6.963-6.909 1.392 0 2.624.348 3.267.696l-.535 1.794c-.563-.294-1.446-.616-2.731-.616-2.972 0-4.58 2.223-4.58 4.901 0 2.999 1.929 4.847 4.499 4.847 1.34 0 2.223-.321 2.892-.616l.401 1.766zM437.75 210.494h2.356v8.114h.054a4.43 4.43 0 0 1 1.687-1.687 4.824 4.824 0 0 1 2.41-.643c1.74 0 4.526 1.071 4.526 5.516v7.713h-2.357v-7.444c0-2.089-.776-3.83-2.999-3.83-1.526 0-2.704 1.071-3.16 2.33-.133.348-.16.696-.16 1.125v7.819h-2.356v-19.013zM463.141 226.4c0 1.125.054 2.223.187 3.106h-2.115l-.188-1.633h-.08c-.724 1.017-2.116 1.927-3.964 1.927-2.624 0-3.963-1.847-3.963-3.722 0-3.133 2.785-4.847 7.793-4.82v-.269c0-1.044-.294-2.999-2.946-2.972-1.231 0-2.49.348-3.4.964l-.536-1.58c1.071-.669 2.651-1.124 4.285-1.124 3.963 0 4.928 2.704 4.928 5.275v4.848zm-2.277-3.508c-2.57-.054-5.49.401-5.49 2.919 0 1.552 1.018 2.249 2.195 2.249 1.714 0 2.813-1.071 3.188-2.168.08-.268.107-.536.107-.75v-2.25zM468.606 229.506V218.34h-1.794v-1.794h1.794v-.616c0-1.82.428-3.48 1.498-4.525.885-.857 2.063-1.205 3.161-1.205.856 0 1.553.188 2.008.375l-.322 1.821c-.348-.161-.803-.294-1.499-.294-2.008 0-2.517 1.74-2.517 3.748v.696h3.133v1.794h-3.133v11.167h-2.329zM480.738 213.439v3.106h3.374v1.794h-3.374v6.989c0 1.607.456 2.517 1.768 2.517.642 0 1.017-.053 1.366-.161l.105 1.794c-.455.161-1.178.321-2.088.321-1.098 0-1.981-.375-2.544-.991-.643-.723-.91-1.874-.91-3.4v-7.069h-2.009v-1.794h2.009v-2.41l2.303-.696zM489.337 223.454c.053 3.186 2.062 4.499 4.445 4.499 1.687 0 2.731-.294 3.588-.669l.43 1.687c-.831.375-2.277.83-4.339.83-3.99 0-6.374-2.65-6.374-6.561 0-3.909 2.303-6.962 6.079-6.962 4.259 0 5.356 3.695 5.356 6.079 0 .481-.027.831-.081 1.098h-9.104zm6.908-1.687c.027-1.472-.615-3.802-3.268-3.802-2.408 0-3.428 2.169-3.614 3.802h6.882zM502.862 220.054c0-1.366-.026-2.437-.107-3.508h2.089l.134 2.143h.054c.644-1.206 2.143-2.41 4.285-2.41 1.794 0 4.579 1.071 4.579 5.516v7.713h-2.357v-7.471c0-2.089-.775-3.829-2.998-3.829-1.527 0-2.732 1.098-3.161 2.409-.106.295-.16.697-.16 1.099v7.792h-2.356v-9.454z"/></g></svg>
